<?xml version="1.0" encoding="utf-8"?>
<!-- Generator: Adobe Illustrator 19.0.0, SVG Export Plug-In . SVG Version: 6.00 Build 0)  -->
<svg version="1.1" xmlns="http://www.w3.org/2000/svg" xmlns:xlink="http://www.w3.org/1999/xlink" x="0px" y="0px"
	 viewBox="0 0 36.4 36.4" style="enable-background:new 0 0 36.4 36.4;" xml:space="preserve">
<g id="Layer_2">
	<path id="XMLID_6_" d="M26.9,22.6L13.8,9.5C14.7,6.9,14.2,4,12.1,2c-1.8-1.8-4.3-2.3-6.7-1.8L10,4.7L9.1,9.2L4.7,10l0,0L0.2,5.5
		c-0.5,2.3,0,4.8,1.8,6.7c2,2,4.9,2.5,7.5,1.6l13.2,13.2c-0.9,2.5-0.4,5.5,1.6,7.5c1.8,1.8,4.3,2.3,6.7,1.8l-4.5-4.5l0,0l0.9-4.5
		l4.5-0.9l4.5,4.5c0.5-2.3,0-4.8-1.8-6.7C32.4,22.2,29.5,21.7,26.9,22.6z"/>
</g>
<g id="Layer_3">
	<path id="XMLID_5_" d="M33.6,7.1c0.5-0.5,0.6-1.3,0.2-1.8l-2.7-2.7c-0.4-0.4-1.2-0.3-1.8,0.2l-23,23c-0.1,0.1,0,0.2-0.1,0.4L6,26.2
		l-3.7,7.9l7.9-3.7l0.1-0.2c0.2-0.1,0.2,0,0.4-0.1L33.6,7.1z"/>
</g>
</svg>
