<?xml version="1.0" encoding="utf-8"?>
<!-- Generator: Adobe Illustrator 19.0.0, SVG Export Plug-In . SVG Version: 6.00 Build 0)  -->
<svg version="1.1" xmlns="http://www.w3.org/2000/svg" xmlns:xlink="http://www.w3.org/1999/xlink" x="0px" y="0px"
	 viewBox="0 0 64 35.8" style="enable-background:new 0 0 64 35.8;" xml:space="preserve">
<g id="Layer_3">
</g>
<g id="Layer_2">
	<polygon id="XMLID_4_" points="37.6,22.8 29.7,27.3 29.7,18 37.6,13.3 	"/>
	<polygon id="XMLID_3_" points="21.3,22.8 29.3,27.3 29.3,18 21.3,13.3 	"/>
	<polygon id="XMLID_7_" points="29.5,8.4 37.4,13 29.5,17.7 21.5,13 	"/>
	<path id="XMLID_1_" d="M0,2l0,31.8c0,1.1,0.9,2,2,2h60c1.1,0,2-0.9,2-2V2c0-1.1-0.9-2-2-2L2,0C0.9,0,0,0.9,0,2z M2.3,23.7V12.1
		c0-0.5,0.4-0.9,0.9-0.9c0.5,0,0.9,0.4,0.9,0.9v11.6c0,0.5-0.4,0.9-0.9,0.9C2.7,24.6,2.3,24.2,2.3,23.7z M60.8,17.9
		c0,1.4-1.2,2.6-2.6,2.6s-2.6-1.2-2.6-2.6s1.2-2.6,2.6-2.6S60.8,16.4,60.8,17.9z M52.5,3.4v29h-46v-29H52.5z"/>
</g>
</svg>
