<?xml version="1.0" encoding="utf-8"?>
<!-- Generator: Adobe Illustrator 19.0.0, SVG Export Plug-In . SVG Version: 6.00 Build 0)  -->
<svg version="1.1" xmlns="http://www.w3.org/2000/svg" xmlns:xlink="http://www.w3.org/1999/xlink" x="0px" y="0px"
	 viewBox="-31 34.5 35.5 33.5" style="enable-background:new -31 34.5 35.5 33.5;" xml:space="preserve">
<g id="Layer_5">
</g>
<g id="Layer_3">
</g>
<g id="Layer_2">
	<g>
		<path d="M-13,55.4c0.6,0,1-0.2,1.4-0.6s0.5-0.9,0.5-1.6c0-0.7-0.2-1.2-0.5-1.6S-12.3,51-13,51c-0.5,0-0.9,0.1-1.2,0.4
			s-0.6,0.6-0.7,0.9v0.4c0,0.8,0.2,1.4,0.6,1.9S-13.5,55.4-13,55.4z"/>
		<path d="M-6.5,55.4c0.6,0,1.1-0.2,1.4-0.7s0.5-1,0.5-1.8v-2.7c0-0.7-0.2-1.3-0.5-1.8s-0.8-0.7-1.4-0.7S-7.7,48-8,48.4
			s-0.5,1-0.5,1.8v2.7c0,0.7,0.2,1.3,0.5,1.8S-7.2,55.4-6.5,55.4z"/>
		<path d="M0.8,41.3h-28.2c-1.1,0-2,0.9-2,2v17.9c0,1.1,0.9,2,2,2H0.8c1.1,0,2-0.9,2-2V43.3C2.8,42.2,1.9,41.3,0.8,41.3z M-9.2,50.3
			c0-1,0.2-1.7,0.7-2.3s1.1-0.8,1.9-0.8s1.5,0.3,1.9,0.8s0.7,1.3,0.7,2.3v2.5c0,1-0.2,1.7-0.7,2.3S-5.7,56-6.5,56s-1.5-0.3-1.9-0.8
			s-0.7-1.3-0.7-2.3V50.3z M-15.6,50.4c0-0.9,0.3-1.7,0.8-2.3s1.2-0.9,2-0.9c0.3,0,0.6,0,0.9,0.1c0.3,0.1,0.6,0.2,0.8,0.3l-0.2,0.6
			c-0.2-0.1-0.5-0.2-0.7-0.3c-0.2-0.1-0.5-0.1-0.9-0.1c-0.6,0-1.1,0.2-1.5,0.7s-0.6,1.1-0.6,1.9v1.2c0.2-0.3,0.5-0.6,0.9-0.8
			s0.8-0.3,1.2-0.3c0.8,0,1.3,0.2,1.8,0.7s0.6,1.2,0.6,2c0,0.8-0.2,1.5-0.7,2S-12.2,56-13,56c-0.8,0-1.4-0.3-1.9-0.9
			s-0.8-1.4-0.8-2.4V50.4z M-22.5,53.5h0.7c0,0.5,0.2,1,0.6,1.3s0.9,0.5,1.5,0.5c0.6,0,1.1-0.2,1.4-0.5s0.5-0.8,0.5-1.3
			c0-0.6-0.2-1-0.5-1.3s-0.9-0.4-1.5-0.4h-0.8v-0.6h0.8c0.6,0,1.1-0.2,1.4-0.5S-18,50-18,49.5c0-0.5-0.1-0.9-0.4-1.2
			s-0.7-0.5-1.3-0.5c-0.5,0-1,0.2-1.4,0.5s-0.5,0.7-0.5,1.3h-0.7l0,0c0-0.7,0.2-1.2,0.7-1.7s1.1-0.7,1.9-0.7c0.8,0,1.4,0.2,1.8,0.6
			s0.7,1,0.7,1.7c0,0.4-0.1,0.8-0.4,1.1s-0.6,0.6-1,0.8c0.5,0.2,0.9,0.4,1.1,0.8c0.3,0.4,0.4,0.8,0.4,1.3c0,0.8-0.2,1.4-0.7,1.8
			S-19,56-19.8,56c-0.7,0-1.4-0.2-1.9-0.6S-22.5,54.3-22.5,53.5L-22.5,53.5z M-13.3,57.8c-7.2,0-13-0.7-13-1.6
			c0-0.3,0.7-0.6,1.9-0.9c-0.4,0.1-0.6,0.3-0.6,0.4c0,0.8,5.2,1.4,11.7,1.4s11.7-0.6,11.7-1.4c0-0.2-0.2-0.3-0.6-0.4
			c1.2,0.2,1.9,0.5,1.9,0.9C-0.3,57.1-6.1,57.8-13.3,57.8z"/>
	</g>
</g>
</svg>
