<?xml version="1.0" encoding="utf-8"?>
<!-- Generator: Adobe Illustrator 19.0.0, SVG Export Plug-In . SVG Version: 6.00 Build 0)  -->
<svg version="1.1" xmlns="http://www.w3.org/2000/svg" xmlns:xlink="http://www.w3.org/1999/xlink" x="0px" y="0px"
	 viewBox="0 0 30.7 35.3" style="enable-background:new 0 0 30.7 35.3;" xml:space="preserve">
<style type="text/css">
	.st0{fill:none;stroke:#000000;stroke-miterlimit:10;}
</style>
<g id="Layer_1">
	<path id="XMLID_1_" class="st0" d="M27.8,34.4H3c-1.1,0-2-0.9-2-2V2.9c0-1.1,0.9-2,2-2h24.8c1.1,0,2,0.9,2,2v29.5
		C29.8,33.5,28.9,34.4,27.8,34.4z"/>
	<rect id="XMLID_2_" x="4" y="8.9" width="12.7" height="1"/>
	<rect id="XMLID_4_" x="4" y="18.9" width="12.7" height="1"/>
	<rect id="XMLID_5_" x="4" y="28.9" width="12.7" height="1"/>
</g>
<g id="Layer_2">
	<polyline id="XMLID_6_" points="23.7,9.2 23.7,9.2 26.7,6.1 26,5.4 23,8.4 20.8,6.3 20.1,7.1 22.2,9.2 22.2,9.2 22.9,9.9 	"/>
	<polyline id="XMLID_7_" points="23.7,19.2 23.7,19.2 26.7,16.1 26,15.4 23,18.4 20.8,16.3 20.1,17.1 22.2,19.2 22.2,19.2 
		22.9,19.9 	"/>
	<polygon id="XMLID_10_" points="25.8,25 25,24.2 22.9,26.3 20.8,24.2 20.1,25 22.2,27.1 20.1,29.2 20.8,29.9 22.9,27.8 25,29.9 
		25.8,29.2 23.7,27.1 	"/>
</g>
</svg>
