<?xml version="1.0" encoding="utf-8"?>
<!-- Generator: Adobe Illustrator 19.0.0, SVG Export Plug-In . SVG Version: 6.00 Build 0)  -->
<svg version="1.1" xmlns="http://www.w3.org/2000/svg" xmlns:xlink="http://www.w3.org/1999/xlink" x="0px" y="0px"
	 viewBox="0 0 100 100" style="enable-background:new 0 0 100 100;" xml:space="preserve">
<style type="text/css">
	.st0{display:none;}
	.st1{fill:#8C40CC;}
</style>
<g id="Layer_1" class="st0">
</g>
<g id="Layer_3" class="st0">
</g>
<g id="Layer_2">
	<path class="st1" d="M90,0H10C4.5,0,0,4.5,0,10v80c0,5.5,4.5,10,10,10h80c5.5,0,10-4.5,10-10V10C100,4.5,95.5,0,90,0z M52.8,18.9
		c2.4-2.8,6.3-4.8,9.6-4.9c0.3,0,0.5,0.2,0.5,0.5c0.4,3.5-0.9,7.4-3.4,10.4c-2.4,2.9-5.8,4.6-9.1,4.6c-0.2,0-0.5,0-0.7,0
		c-0.2,0-0.4-0.2-0.5-0.5C48.9,25.1,50.8,21.2,52.8,18.9z M76,60.6L76,60.6c-0.5,1.5-1.8,5.2-4.4,9c-2.5,3.7-5.4,7.8-10,7.9
		c-2.2,0-3.6-0.6-5.1-1.2c-1.4-0.6-2.9-1.3-5.3-1.3c-2.5,0-4,0.7-5.6,1.3c-1.4,0.6-2.8,1.2-4.7,1.2c-0.1,0-0.2,0-0.2,0
		c-4.1,0-7.1-3.9-10.1-8.2c-6-8.6-9.4-22.8-4-32.1c2.8-4.9,8-8,13.4-8.1c0.1,0,0.1,0,0.2,0c2.3,0,4.5,0.9,6.5,1.6
		c1.5,0.6,2.7,1.1,3.7,1.1c0.9,0,2.1-0.5,3.6-1.1c2.1-0.8,4.7-1.9,7.4-1.9c0.3,0,0.7,0,1,0.1c2.3,0.1,8.1,0.9,11.8,6.4
		c0.1,0.1,0.1,0.3,0.1,0.4c0,0.1-0.1,0.3-0.2,0.3l-0.1,0c-1.1,0.7-6.5,4.4-6.5,11.5c0.1,8.7,7.2,11.9,8.1,12.2c0,0,0,0,0,0
		C76,60.1,76.1,60.4,76,60.6z"/>
</g>
</svg>
