<?xml version="1.0" encoding="utf-8"?>
<!-- Generator: Adobe Illustrator 19.0.0, SVG Export Plug-In . SVG Version: 6.00 Build 0)  -->
<svg version="1.1" id="Layer_1" xmlns="http://www.w3.org/2000/svg" xmlns:xlink="http://www.w3.org/1999/xlink" x="0px" y="0px"
	 viewBox="0 0 70 70" style="enable-background:new 0 0 70 70;" xml:space="preserve">
<g id="Layer_1_1_">
</g>
<g id="Layer_3">
</g>
<g id="Layer_2">
	<path id="XMLID_7_" d="M57.9,36.3c0.1-0.1,0.1-0.2,0.2-0.3c0-0.1,0.1-0.1,0.1-0.2s0.1-0.2,0.1-0.3c0-0.1,0-0.1,0-0.2
		c0-0.2,0.1-0.3,0.1-0.5l0,0l0,0c0-0.2,0-0.3,0-0.5c0-0.1-0.1-0.2-0.1-0.3c0-0.1,0-0.1-0.1-0.2c0-0.1-0.1-0.2-0.2-0.3
		c0,0,0-0.1-0.1-0.1c-0.1-0.1-0.2-0.3-0.3-0.4L44.5,20c-1-1-2.6-1-3.7,0s-1,2.6,0,3.7l8.7,8.7H14.2c-1.4,0-2.6,1.2-2.6,2.6
		s1.2,2.6,2.6,2.6h35.3l-8.7,8.7c-1,1-1,2.6,0,3.7s2.6,1,3.7,0l13.1-13.1c0.1-0.1,0.1-0.2,0.2-0.2C57.8,36.4,57.9,36.4,57.9,36.3z"
		/>
</g>
</svg>
