<?xml version="1.0" encoding="utf-8"?>
<!-- Generator: Adobe Illustrator 19.0.0, SVG Export Plug-In . SVG Version: 6.00 Build 0)  -->
<svg version="1.1" id="Layer_1" xmlns="http://www.w3.org/2000/svg" xmlns:xlink="http://www.w3.org/1999/xlink" x="0px" y="0px"
	 viewBox="0 0 50 50" style="enable-background:new 0 0 50 50;" xml:space="preserve">
<style type="text/css">
	.st0{fill:#F4BB46;}
</style>
<g id="Прямоугольник_x2C__скругл._углы_2_копия_5">
	<g id="XMLID_44_">
		<path id="XMLID_45_" class="st0" d="M37.3,15.9l2.9,11l-27.4,7.2l-2.9-11L37.3,15.9 M37.4,11.9c-0.3,0-0.7,0-1,0.1L8.7,19.2
			c-2.1,0.5-3.3,2.7-2.8,4.7l2.9,11.3c0.5,1.7,2,2.9,3.7,2.9c0.3,0,0.7,0,1-0.1l27.7-7.3c2.1-0.5,3.3-2.7,2.8-4.7l-2.9-11.3
			C40.7,13,39.1,11.9,37.4,11.9L37.4,11.9z M44.7,15.5c-0.1,0-0.1,0-0.2,0L43,15.9c-0.4,0.1-0.7,0.5-0.6,0.9l1.8,6.8
			c0.1,0.3,0.4,0.6,0.7,0.6c0.1,0,0.1,0,0.2,0l1.5-0.4c0.4-0.1,0.7-0.5,0.6-0.9L45.5,16C45.4,15.7,45,15.5,44.7,15.5L44.7,15.5z
			 M5,25.8c-0.1,0-0.1,0-0.2,0l-1.5,0.4c-0.4,0.1-0.7,0.5-0.6,0.9L4.5,34c0.1,0.3,0.4,0.6,0.7,0.6c0.1,0,0.1,0,0.2,0L7,34.1
			c0.4-0.1,0.7-0.5,0.6-0.9l-1.8-6.8C5.7,26.1,5.4,25.8,5,25.8L5,25.8z"/>
	</g>
</g>
</svg>
