<?xml version="1.0" encoding="utf-8"?>
<!-- Generator: Adobe Illustrator 19.0.0, SVG Export Plug-In . SVG Version: 6.00 Build 0)  -->
<svg version="1.1" id="Layer_1" xmlns="http://www.w3.org/2000/svg" xmlns:xlink="http://www.w3.org/1999/xlink" x="0px" y="0px"
	 viewBox="0 0 70 70" style="enable-background:new 0 0 70 70;" xml:space="preserve">
<g id="Фигура_11_1_">
	<g id="XMLID_51_">
		<path id="XMLID_52_" d="M62.2,14.4H7.8c-1.8,0-3.3,1.5-3.3,3.4V53c0,1.9,1.5,3.4,3.3,3.4h54.4c1.8,0,3.3-1.5,3.3-3.4V17.8
			C65.5,15.9,64,14.4,62.2,14.4z M61.1,17L35.2,43.5c-0.6,0.6-1,0.6-1.6,0L8.8,17C8.8,17,61.1,17,61.1,17z M7,52.7V19l17.3,18.5
			L7,52.7z M9.7,53.9l16.4-14.4l5.6,6c0.8,0.8,1.7,1.2,2.6,1.2c0.9,0,1.8-0.4,2.6-1.2l6.6-6.7c0.1,0.1,0.1,0.2,0.3,0.3l16.6,14.8
			H9.7z M62.9,52.8c-0.1-0.2-0.2-0.4-0.3-0.5L45.6,37C45.5,37,45.4,37,45.4,37L63,19L62.9,52.8L62.9,52.8z"/>
	</g>
</g>
</svg>
