<?xml version="1.0" encoding="utf-8"?>
<!-- Generator: Adobe Illustrator 19.0.0, SVG Export Plug-In . SVG Version: 6.00 Build 0)  -->
<svg version="1.1" id="Layer_3" xmlns="http://www.w3.org/2000/svg" xmlns:xlink="http://www.w3.org/1999/xlink" x="0px" y="0px"
	 viewBox="0 0 50 50" style="enable-background:new 0 0 50 50;" xml:space="preserve">
<g id="XMLID_12_">
	<path id="XMLID_7_" d="M2.3,2.4C2.2,2.8,2.1,3.2,2.1,3.8v42.5c0,0.5,0.1,1,0.2,1.4L26.2,25C26.2,25,2.3,2.4,2.3,2.4z"/>
	<path id="XMLID_6_" d="M35.5,16.2L7.6,0.7C6.5,0,5.4-0.1,4.5,0.1l24,22.8L35.5,16.2z"/>
	<path id="XMLID_4_" d="M45.7,21.9l-7.4-4.1L30.7,25l7.8,7.4l7.2-4C49.2,26.4,47.9,23.1,45.7,21.9z"/>
	<path id="XMLID_3_" d="M4.4,49.9c0.9,0.3,2.1,0.1,3.2-0.6L35.6,34l-7.2-6.8C28.4,27.2,4.4,49.9,4.4,49.9z"/>
</g>
</svg>
