<?xml version="1.0" encoding="utf-8"?>
<!-- Generator: Adobe Illustrator 21.0.2, SVG Export Plug-In . SVG Version: 6.00 Build 0)  -->
<svg version="1.1" id="Layer_1" xmlns="http://www.w3.org/2000/svg" xmlns:xlink="http://www.w3.org/1999/xlink" x="0px" y="0px"
	 viewBox="0 0 98.3 91" style="enable-background:new 0 0 98.3 91;" xml:space="preserve">
<style type="text/css">
	.st0{fill:#8B52A0;}
</style>
<path id="XMLID_2_" class="st0" d="M42.6,4.9C37.7,9.8,14.5,33,2.9,44.6c-6.6,6.6,0,6.6,0,6.6h13.2v33.1c0,0,0,6.6,6.6,6.6
	s6.6,0,13.2,0s6.6-6.6,6.6-6.6V64.5c0,0,0-6.6,6.6-6.6c5,0-5.4,0,0,0c6.6,0,6.6,6.6,6.6,6.6v19.9c0,0,0,6.6,6.6,6.6s6.6,0,13.2,0
	s6.6-6.6,6.6-6.6V51.3c0,0,6.6,0,13.2,0c0,0,6.6,0,0-6.6C92.8,42.2,62.1,11.5,55.6,5S49.2-1.7,42.6,4.9z"/>
</svg>
