<?xml version="1.0" encoding="utf-8"?>
<!-- Generator: Adobe Illustrator 19.0.0, SVG Export Plug-In . SVG Version: 6.00 Build 0)  -->
<svg version="1.1" id="Layer_1" xmlns="http://www.w3.org/2000/svg" xmlns:xlink="http://www.w3.org/1999/xlink" x="0px" y="0px"
	 viewBox="0 0 35.8 64" style="enable-background:new 0 0 35.8 64;" xml:space="preserve">
<path id="XMLID_7_" d="M33.8,0H2C0.9,0,0,0.9,0,2v60c0,1.1,0.9,2,2,2h31.8c1.1,0,2-0.9,2-2V2C35.8,0.9,34.9,0,33.8,0z M12.1,2.3
	h11.6c0.5,0,0.9,0.4,0.9,0.9c0,0.5-0.4,0.9-0.9,0.9H12.1c-0.5,0-0.9-0.4-0.9-0.9C11.2,2.7,11.6,2.3,12.1,2.3z M17.9,60.8
	c-1.4,0-2.6-1.2-2.6-2.6s1.2-2.6,2.6-2.6s2.6,1.2,2.6,2.6S19.3,60.8,17.9,60.8z M32.4,52.5h-29v-46h29V52.5z"/>
</svg>
