<?xml version="1.0" encoding="utf-8"?>
<!-- Generator: Adobe Illustrator 19.0.0, SVG Export Plug-In . SVG Version: 6.00 Build 0)  -->
<svg version="1.1" xmlns="http://www.w3.org/2000/svg" xmlns:xlink="http://www.w3.org/1999/xlink" x="0px" y="0px"
	 viewBox="0 0 59.7 45.7" style="enable-background:new 0 0 59.7 45.7;" xml:space="preserve">
<style type="text/css">
	.st0{fill:none;stroke:#000000;stroke-miterlimit:10;}
</style>
<g id="Layer_1">
</g>
<g id="Layer_2">
	<circle id="XMLID_1_" class="st0" cx="29.8" cy="5.8" r="4.7"/>
	<path id="XMLID_3_" class="st0" d="M22.5,17.8c0-4,3.3-7.3,7.3-7.3s7.3,3.3,7.3,7.3"/>
	<circle id="XMLID_5_" class="st0" cx="8.2" cy="32.6" r="4.7"/>
	<path id="XMLID_4_" class="st0" d="M0.9,44.6c0-4,3.3-7.3,7.3-7.3s7.3,3.3,7.3,7.3"/>
	<circle id="XMLID_8_" class="st0" cx="51.4" cy="32.6" r="4.7"/>
	<path id="XMLID_7_" class="st0" d="M44.2,44.6c0-4,3.3-7.3,7.3-7.3s7.3,3.3,7.3,7.3"/>
	<polygon id="XMLID_6_" points="32.4,11 27.2,11 29.7,13.2 28.3,17.5 29.8,19 31.4,17.5 30,13.2 	"/>
	<line id="XMLID_2_" class="st0" x1="18.2" y1="20.1" x2="12.8" y2="25.5"/>
	<line id="XMLID_11_" class="st0" x1="21.2" y1="41" x2="38.5" y2="41"/>
	<line id="XMLID_10_" class="st0" x1="46.8" y1="25.5" x2="41.5" y2="20.1"/>
</g>
<g id="Layer_3">
</g>
</svg>
