<?xml version="1.0" encoding="utf-8"?>
<!-- Generator: Adobe Illustrator 19.0.0, SVG Export Plug-In . SVG Version: 6.00 Build 0)  -->
<svg version="1.1" xmlns="http://www.w3.org/2000/svg" xmlns:xlink="http://www.w3.org/1999/xlink" x="0px" y="0px"
	 viewBox="-19 28.3 59.7 45.7" style="enable-background:new -19 28.3 59.7 45.7;" xml:space="preserve">
<g id="Layer_1">
	<g id="Layer_1_2_">
		<g id="Layer_1_1_">
		</g>
		<g id="Layer_2">
			<circle id="XMLID_1_" cx="10.8" cy="34.1" r="4.7"/>
			<circle id="XMLID_5_" cx="-11.8" cy="60.9" r="4.7"/>
			<path id="XMLID_4_" d="M-19.1,72.9c0-4,3.3-7.3,7.3-7.3s7.3,3.3,7.3,7.3"/>
			<circle id="XMLID_8_" cx="10.7" cy="60.9" r="4.7"/>
			<path id="XMLID_7_" d="M3.5,72.9c0-4,3.3-7.3,7.3-7.3s7.3,3.3,7.3,7.3"/>
			<circle id="XMLID_3_" cx="33.2" cy="60.9" r="4.7"/>
			<path id="XMLID_2_" d="M26,72.9c0-4,3.3-7.3,7.3-7.3s7.3,3.3,7.3,7.3"/>
			<g>
				<path d="M10.7,40.8l-2.1-1.7c-3,0.9-5.1,3.7-5.1,7h7.3l-1.5-1.4L10.7,40.8z"/>
				<path d="M13,39.1l-2,1.7l1.4,3.9l-1.6,1.4H18C18.1,42.9,15.9,40.1,13,39.1z"/>
			</g>
		</g>
		<g id="Layer_3">
		</g>
	</g>
</g>
<g id="Layer_2_2_">
	<rect x="10" y="47.8" width="1.5" height="6.8"/>
	<rect x="-4.5" y="60.1" width="6.8" height="1.5"/>
	<rect x="19.2" y="60.1" width="6.8" height="1.5"/>
</g>
<g id="Layer_3_1_">
</g>
</svg>
