<?xml version="1.0" encoding="utf-8"?>
<!-- Generator: Adobe Illustrator 19.0.0, SVG Export Plug-In . SVG Version: 6.00 Build 0)  -->
<svg version="1.1" id="Layer_2" xmlns="http://www.w3.org/2000/svg" xmlns:xlink="http://www.w3.org/1999/xlink" x="0px" y="0px"
	 viewBox="0 0 31.3 17.1" style="enable-background:new 0 0 31.3 17.1;" xml:space="preserve">
<style type="text/css">
	.st0{fill:none;stroke:#000000;stroke-miterlimit:10;}
</style>
<path id="XMLID_5_" class="st0" d="M28.4,5.3c0,0-1.3-0.6-3.7-1c-2.2-0.3-8.1-0.4-9-0.4v0c0,0,0,0-0.1,0c0,0-0.1,0-0.1,0v0
	c-0.9,0-6.8,0.1-9,0.4c-2.4,0.3-3.7,1-3.7,1S2.5,8.8,3.4,11s3.3,3.6,6.4,4.2c3.2,0.6,3.7,0.1,3.7,0.1s0.7-0.5,1.1-0.9
	c0.3-0.3,0.8-0.3,1-0.3c0.2,0,0.7,0,1,0.3c0.4,0.4,1.1,0.9,1.1,0.9s0.6,0.5,3.7-0.1c3.2-0.6,5.6-1.9,6.4-4.2S28.4,5.3,28.4,5.3z"/>
<path id="XMLID_3_" class="st0" d="M15.5,1.7c0,0,6.7,0,10.4,0.6s4.3,1.7,4.3,1.7s0.2-0.1,0.2,2s-0.6,3.2-0.6,3.2v0.6
	c0,0,0,0.4-0.6,0.4c-0.6,0-1.3,0-1.3,0"/>
<path id="XMLID_4_" class="st0" d="M15.7,1.7c0,0-6.7,0-10.4,0.6S1,3.9,1,3.9s-0.2-0.1-0.2,2s0.6,3.2,0.6,3.2v0.6c0,0,0,0.4,0.6,0.4
	s1.3,0,1.3,0"/>
<ellipse id="XMLID_2_" cx="5.6" cy="7.2" rx="0.6" ry="1"/>
<ellipse id="XMLID_7_" cx="7.5" cy="7.9" rx="0.6" ry="1.9"/>
</svg>
