<?xml version="1.0" encoding="utf-8"?>
<!-- Generator: Adobe Illustrator 19.0.0, SVG Export Plug-In . SVG Version: 6.00 Build 0)  -->
<svg version="1.1" xmlns="http://www.w3.org/2000/svg" xmlns:xlink="http://www.w3.org/1999/xlink" x="0px" y="0px"
	 viewBox="-33 42.9 31.3 17.1" style="enable-background:new -33 42.9 31.3 17.1;" xml:space="preserve">
<g id="Layer_2">
	<path d="M-17.5,49.7c4,0,8.2,0.5,12.3,1.6c0.7,0.2,0.7,0.2,0.5,0.8c-0.1,0.5-0.2,1.1-0.4,1.6c-0.6,2.1-2.1,3.3-4.1,3.9
		c-1.5,0.5-3.1,0.6-4.7,0.7c-1,0.1-1.6-0.3-2.1-1c-0.2-0.3-0.5-0.6-0.8-0.8c-0.5-0.4-0.9-0.4-1.3,0.1c-0.3,0.3-0.6,0.6-0.9,1
		c-0.5,0.6-1,0.8-1.7,0.8c-1.8-0.1-3.5-0.2-5.2-0.8c-2.3-0.8-3.7-2.4-4.1-4.9c-0.2-1.1-0.4-1,0.8-1.3
		C-25.4,50.2-21.6,49.8-17.5,49.7z"/>
	<path d="M-4.4,50.4c-8.6-2.3-17.2-2.3-25.8,0.1c0-0.3-0.1-0.5-0.1-0.7c-0.1-0.8-0.1-1.5-0.1-2.3c0-0.4,0.1-0.6,0.5-0.8
		c1.4-0.7,2.9-1.1,4.4-1.4c3.8-0.7,7.6-0.8,11.4-0.6c2.3,0.1,4.6,0.4,6.8,1c0.9,0.3,1.8,0.7,2.7,1c0.3,0.1,0.5,0.4,0.4,0.7
		C-4.3,48.4-4.4,49.4-4.4,50.4z"/>
	<path d="M-1.8,51.5c-0.5-0.2-1-0.4-1.4-0.6c-0.1-0.1-0.2-0.2-0.2-0.3c0.1-1,0.1-2,0.2-3c0.8,0.2,1.4,0.9,1.4,1.6c0,0.6,0,1.1,0,1.7
		C-1.8,51.1-1.8,51.3-1.8,51.5z"/>
	<path d="M-32.8,49.5c-0.1-0.7,0.2-1.1,0.7-1.4c0.2-0.2,0.4-0.3,0.7-0.5c0.1,0.6,0.1,1,0.1,1.5c0.1,0.5,0.1,1,0.1,1.5
		c0,0.3-0.1,0.4-0.3,0.5c-0.4,0.2-0.8,0.3-1.3,0.5"/>
	<path d="M-4.1,54.1c0.2-0.8,0.3-1.5,0.5-2.3c0.6,0.2,1,0.4,1.5,0.6c0.1,0,0.1,0.3-0.1,0.4C-2.5,53.5-3.2,53.9-4.1,54.1z"/>
	<path d="M-30.7,54.1c-0.9-0.3-1.6-0.6-2-1.5c0.3-0.2,0.6-0.3,0.8-0.4c1-0.4,0.8-0.4,1,0.6c0.1,0.4,0.2,0.8,0.3,1.2
		C-30.6,54-30.7,54-30.7,54.1z"/>
</g>
<g id="Layer_3">
</g>
</svg>
