<?xml version="1.0" encoding="utf-8"?>
<!-- Generator: Adobe Illustrator 19.0.0, SVG Export Plug-In . SVG Version: 6.00 Build 0)  -->
<svg version="1.1" xmlns="http://www.w3.org/2000/svg" xmlns:xlink="http://www.w3.org/1999/xlink" x="0px" y="0px"
	 viewBox="0 0 45.1 46.9" style="enable-background:new 0 0 45.1 46.9;" xml:space="preserve">
<style type="text/css">
	.st0{display:none;}
</style>
<g id="Layer_1" class="st0">
	
		<image style="display:inline;overflow:visible;" width="1452" height="1600" id="XMLID_1_" xlink:href="9BAC7289.jpg"  transform="matrix(-3.581267e-002 0 0 3.581267e-002 47.5305 -2.3272)">
	</image>
</g>
<g id="Layer_2">
</g>
<g id="Layer_3">
	<path id="XMLID_3_" d="M11.7,26.3H2.4c-1.3,0-2.4-1.1-2.4-2.4l0-13.1c0-1.3,1.1-2.4,2.4-2.4h9.3c4.9,0,8.9,4,8.9,8.9v0.2
		C20.6,22.3,16.6,26.3,11.7,26.3z"/>
</g>
<g id="Layer_4">
	<g id="XMLID_2_">
		<path id="XMLID_5_" d="M22.6,14.5h22.6c-0.1-0.7-0.2-1.5-0.4-2.1C41.9,3.7,32.9-0.1,24.7,0c-7.9,0.1-13.2,6.2-13.5,6.6h2.5
			C18.3,6.6,22.1,10.1,22.6,14.5z"/>
		<path id="XMLID_7_" d="M37.1,42.2c-2.5-3.8-0.1-8.5-0.1-8.5S42.6,27,44.5,20H22.6c-0.4,4.5-4.2,8.1-8.8,8.1H9.1
			c0,0.7,0.2,4.7,0.1,6c-0.2,1.5-1.1,3.8,0,5.6s8.3,0.9,8.3,0.9s1.8-0.4,1.9,1.8c0,0.3,0,0.6-0.1,0.9c-0.3,1.8,0.9,3.5,2.8,3.5h12.5
			c2.4,0,3.8-2.6,2.5-4.6C37.2,42.2,37.2,42.2,37.1,42.2z"/>
	</g>
</g>
</svg>
