<?xml version="1.0" encoding="utf-8"?>
<!-- Generator: Adobe Illustrator 19.0.0, SVG Export Plug-In . SVG Version: 6.00 Build 0)  -->
<svg version="1.1" id="Layer_1" xmlns="http://www.w3.org/2000/svg" xmlns:xlink="http://www.w3.org/1999/xlink" x="0px" y="0px"
	 viewBox="0 0 35.5 33.5" style="enable-background:new 0 0 35.5 33.5;" xml:space="preserve">
<style type="text/css">
	.st0{fill:none;stroke:#000000;stroke-width:0.6;stroke-linecap:round;stroke-linejoin:round;stroke-miterlimit:10;}
	.st1{fill:none;}
	.st2{font-family:'Roboto-Light';}
	.st3{font-size:12px;}
</style>
<g id="XMLID_4_">
	<path id="XMLID_5_" class="st0" d="M32.5,16.8c0,8.6-7,15.6-15.6,15.6s-15.6-7-15.6-15.6s7-15.6,15.6-15.6c3.3,0,6.4,1,8.9,2.8"/>
</g>
<path id="XMLID_3_" d="M30.9,19.5L30.9,19.5c-0.1-0.1-0.2-0.2-0.1-0.4l1.5-2.5c0.1-0.1,0.2-0.2,0.4-0.1l0,0c0.1,0.1,0.2,0.2,0.1,0.4
	l-1.5,2.5C31.2,19.5,31,19.6,30.9,19.5z"/>
<path id="XMLID_2_" d="M34,19.6L34,19.6c0.1-0.1,0.2-0.2,0.1-0.4l-1.4-2.6c-0.1-0.1-0.2-0.2-0.4-0.1l0,0c-0.1,0.1-0.2,0.2-0.1,0.4
	l1.4,2.6C33.7,19.6,33.9,19.6,34,19.6z"/>
<rect id="XMLID_6_" x="6.6" y="11.6" class="st1" width="20.7" height="10.4"/>
<text id="XMLID_1_" transform="matrix(1 0 0 1 6.9537 20.7031)" class="st2 st3">360</text>
</svg>
