<?xml version="1.0" encoding="utf-8"?>
<!-- Generator: Adobe Illustrator 19.0.0, SVG Export Plug-In . SVG Version: 6.00 Build 0)  -->
<svg version="1.1" xmlns="http://www.w3.org/2000/svg" xmlns:xlink="http://www.w3.org/1999/xlink" x="0px" y="0px"
	 viewBox="0 0 37.5 38.1" style="enable-background:new 0 0 37.5 38.1;" xml:space="preserve">
<style type="text/css">
	.st0{display:none;}
	.st1{fill:none;stroke:#000000;stroke-miterlimit:10;}
</style>
<g id="Layer_1" class="st0">
	
		<image style="display:inline;overflow:visible;" width="1500" height="1600" id="XMLID_1_" xlink:href="A2379611.jpg"  transform="matrix(6.666667e-002 0 0 6.666667e-002 -31.2665 -34.2758)">
	</image>
</g>
<g id="Layer_4">
	<circle id="XMLID_2_" class="st1" cx="18.7" cy="19.1" r="17.6"/>
</g>
<g id="Layer_2">
	<polygon id="XMLID_4_" points="11.8,23.2 18.6,27.1 18.6,19.2 11.8,15.2 	"/>
	<polygon id="XMLID_3_" points="25.6,23.2 18.9,27.1 18.9,19.2 25.6,15.2 	"/>
	<polygon id="XMLID_7_" points="18.7,11 12,15 18.7,18.9 25.5,15 	"/>
</g>
<g id="Layer_3">
	<polygon id="XMLID_11_" points="18.9,3.8 17.4,5.1 18.4,5.1 18.4,9 19.4,9 19.4,5.1 20.4,5.1 	"/>
	<polygon id="XMLID_12_" points="18.6,34.3 17.1,33 18.1,33 18.1,29.1 19.1,29.1 19.1,33 20.1,33 	"/>
	<polygon id="XMLID_9_" points="4.5,19.1 5.8,20.7 5.8,19.6 9.7,19.6 9.7,18.5 5.8,18.5 5.8,17.4 	"/>
	<polygon id="XMLID_10_" points="33,19.1 31.7,20.7 31.7,19.6 27.8,19.6 27.8,18.5 31.7,18.5 31.7,17.4 	"/>
</g>
</svg>
