<?xml version="1.0" encoding="utf-8"?>
<!-- Generator: Adobe Illustrator 19.0.0, SVG Export Plug-In . SVG Version: 6.00 Build 0)  -->
<svg version="1.1" id="Layer_1" xmlns="http://www.w3.org/2000/svg" xmlns:xlink="http://www.w3.org/1999/xlink" x="0px" y="0px"
	 viewBox="0 0 50.4 35.8" style="enable-background:new 0 0 50.4 35.8;" xml:space="preserve">
<g id="XMLID_1_">
	<path id="XMLID_13_" d="M48.4,0H2C0.9,0,0,0.9,0,2v31.8c0,1.1,0.9,2,2,2h46.4c1.1,0,2-0.9,2-2V2C50.4,0.9,49.5,0,48.4,0z M13.8,1.4
		c0.7,0,1.3,0.6,1.3,1.3S14.5,4,13.8,4s-1.3-0.6-1.3-1.3S13.1,1.4,13.8,1.4z M8.8,1.4c0.7,0,1.3,0.6,1.3,1.3S9.5,4,8.8,4
		S7.5,3.4,7.5,2.7S8.1,1.4,8.8,1.4z M3.8,1.4c0.7,0,1.3,0.6,1.3,1.3S4.5,4,3.8,4S2.5,3.4,2.5,2.7S3.1,1.4,3.8,1.4z M48.4,32.2H2V5.4
		h46.5V32.2z"/>
	<polygon id="XMLID_21_" points="18.3,23 11.7,20.3 10.7,20.1 10.7,20 11.7,19.8 18.3,17.1 18.3,14.7 8.7,19.1 8.7,20.9 18.3,25.3 	
		"/>
	<polygon id="XMLID_22_" points="29.3,9.5 27.4,9.5 20.3,28 22.2,28 	"/>
	<polygon id="XMLID_23_" points="41.7,19.4 31.6,14.9 31.6,17.2 38.6,20 39.6,20.2 39.6,20.3 38.6,20.5 31.6,23.3 31.6,25.6 
		41.7,21.1 	"/>
</g>
</svg>
