<?xml version="1.0" encoding="utf-8"?>
<!-- Generator: Adobe Illustrator 21.0.2, SVG Export Plug-In . SVG Version: 6.00 Build 0)  -->
<svg version="1.1" id="Layer_1" xmlns="http://www.w3.org/2000/svg" xmlns:xlink="http://www.w3.org/1999/xlink" x="0px" y="0px"
	 viewBox="0 0 93.9 77.2" style="enable-background:new 0 0 93.9 77.2;" xml:space="preserve">
<style type="text/css">
	.st0{fill:#8B52A0;}
	.st1{fill:none;stroke:#8B52A0;stroke-width:2;stroke-linecap:round;stroke-miterlimit:10;}
</style>
<g id="XMLID_13_">
	<path id="XMLID_16_" class="st0" d="M23,45l0.4-16.7c0-1.8-1.6-3.3-3.6-3.1C8.7,26,0.1,31.2,0,37.7c-0.2,4.2,3.3,8,8.6,10.4l6,27.5
		c0.2,1,1.3,1.6,2.4,1.5l10.4-1.8c1.1-0.2,2-1.1,1.6-2.1L23,45z"/>
	<path id="XMLID_15_" class="st0" d="M61.9,1.9C52.1,13.9,36,21.3,29,24c-2,0.8-3.3,2.8-3.3,4.9v13.2c0,2.1,1.3,4.1,3.3,4.9
		c6.8,2.8,23.1,10.2,32.9,22.3c2.6,3.3,8,2.1,9.1-2c4.2-16.1,4.2-47,0-63.3C69.9-0.2,64.5-1.5,61.9,1.9z"/>
	<path id="XMLID_14_" class="st0" d="M77.7,27.6c-0.8-0.2-1.5,1.1-1.5,2.8v8.1c0,1.6,0.7,2.9,1.5,2.6c2.6-0.8,4.6-3.4,4.6-6.7
		S80.3,28.4,77.7,27.6z"/>
</g>
<path id="XMLID_12_" class="st1" d="M83.5,24.7c0,0,6.9,9.2-0.1,18.6"/>
<path id="XMLID_10_" class="st1" d="M87.6,17.9c0,0,12,15.9-0.2,32.3"/>
</svg>
