<?xml version="1.0" encoding="utf-8"?>
<!-- Generator: Adobe Illustrator 19.0.0, SVG Export Plug-In . SVG Version: 6.00 Build 0)  -->
<svg version="1.1" id="Layer_3" xmlns="http://www.w3.org/2000/svg" xmlns:xlink="http://www.w3.org/1999/xlink" x="0px" y="0px"
	 viewBox="0 0 50 50" style="enable-background:new 0 0 50 50;" xml:space="preserve">
<style type="text/css">
	.st0{fill:#010101;}
</style>
<g id="XMLID_228_">
	<path id="XMLID_229_" class="st0" d="M6.7,18.4c-4.2,7.3-1.5,18.5,3.1,25.2c2.3,3.4,4.7,6.4,7.9,6.4c0.1,0,0.1,0,0.2,0
		c1.5-0.1,2.6-0.5,3.7-1c1.2-0.5,2.4-1,4.4-1c1.8,0,3,0.5,4.2,1c1.1,0.5,2.3,1,4,1c3.6-0.1,5.9-3.3,7.9-6.2c2.1-3,3.1-5.9,3.4-7.1
		l0,0c0.1-0.2,0-0.4-0.2-0.5c0,0,0,0,0,0c-0.6-0.3-6.3-2.8-6.3-9.6c-0.1-5.5,4.2-8.5,5.1-9l0,0c0.1-0.1,0.2-0.2,0.2-0.3
		c0-0.1,0-0.2-0.1-0.3c-3-4.3-7.5-5-9.3-5.1c-0.3,0-0.5,0-0.8,0c-2.1,0-4.2,0.8-5.8,1.5c-1.1,0.4-2.1,0.8-2.8,0.8
		c-0.8,0-1.7-0.4-2.9-0.8c-1.5-0.6-3.3-1.3-5.1-1.3c0,0-0.1,0-0.1,0C12.9,12.1,8.9,14.5,6.7,18.4z"/>
	<path id="XMLID_230_" class="st0" d="M34.8,0c-2.6,0.1-5.7,1.7-7.5,3.9c-1.6,1.8-3.1,4.9-2.7,7.9c0,0.2,0.2,0.3,0.4,0.4
		c0.2,0,0.4,0,0.5,0c2.5,0,5.3-1.4,7.1-3.6c2-2.4,2.9-5.4,2.7-8.2C35.2,0.2,35,0,34.8,0z"/>
</g>
</svg>
