<?xml version="1.0" encoding="utf-8"?>
<!-- Generator: Adobe Illustrator 19.0.1, SVG Export Plug-In . SVG Version: 6.00 Build 0)  -->
<svg version="1.1" id="Слой_1" xmlns="http://www.w3.org/2000/svg" xmlns:xlink="http://www.w3.org/1999/xlink" x="0px" y="0px"
	 viewBox="-264.8 377.6 60.1 37.4" style="enable-background:new -264.8 377.6 60.1 37.4;" xml:space="preserve">
<style type="text/css">
	.st0{fill:#DDAC35;}
	.st1{fill:#DDAC35;stroke:#DDAC35;stroke-width:1.0607;}
</style>
<path class="st0" d="M-220.7,389.9h-40.6c-1.9,0-3.5,1.6-3.5,3.5v18c0,1.9,1.6,3.5,3.5,3.5h15.9c0.4,0,0.8-0.2,1-0.6l2.4-4.8
	c0.3-0.6,0.9-0.8,1.5-0.5c0.2,0.1,0.4,0.3,0.5,0.5l2.3,4.8c0.2,0.4,0.6,0.7,1.1,0.7h16c1.9,0,3.4-1.6,3.4-3.5v-18
	C-217.2,391.5-218.8,389.9-220.7,389.9z M-251.7,406.5c-2.2,0-4.1-1.8-4.1-4c0-2.2,1.8-4.1,4-4.1s4.1,1.8,4.1,4l0,0
	C-247.7,404.7-249.5,406.5-251.7,406.5z M-230.3,406.5c-2.2,0-4.1-1.8-4.1-4c0-2.2,1.8-4.1,4-4.1c2.2,0,4.1,1.8,4.1,4l0,0
	C-226.3,404.7-228.1,406.5-230.3,406.5z"/>
<g transform="translate(0,-952.36218)">
	<path class="st1" d="M-221.2,1330.5c-1,0-1.8,0.8-1.8,1.8v28.4c0,1,0.8,1.8,1.8,1.8h14.2c1,0,1.8-0.8,1.8-1.8v-28.4
		c0-1-0.8-1.8-1.8-1.8H-221.2z M-218.3,1331.9h8.4v0.8h-8.4C-218.3,1332.7-218.3,1331.9-218.3,1331.9z M-222.3,1334h16.5v24.8h-16.5
		V1334z M-214.1,1359.2c0.8,0,1.5,0.7,1.5,1.6c0,0.9-0.7,1.5-1.5,1.5c-0.8,0-1.5-0.7-1.5-1.5C-215.6,1360-215,1359.2-214.1,1359.2z"
		/>
</g>
</svg>
