<?xml version="1.0" encoding="utf-8"?>
<!-- Generator: Adobe Illustrator 19.0.0, SVG Export Plug-In . SVG Version: 6.00 Build 0)  -->
<svg version="1.1" xmlns="http://www.w3.org/2000/svg" xmlns:xlink="http://www.w3.org/1999/xlink" x="0px" y="0px"
	 viewBox="0 0 100 100" style="enable-background:new 0 0 100 100;" xml:space="preserve">
<style type="text/css">
	.st0{display:none;}
	.st1{fill:#8C40CC;}
</style>
<g id="Layer_1" class="st0">
</g>
<g id="Layer_3" class="st0">
</g>
<g id="Layer_2">
	<path class="st1" d="M90,0H10C4.5,0,0,4.5,0,10v80c0,5.5,4.5,10,10,10h80c5.5,0,10-4.5,10-10V10C100,4.5,95.5,0,90,0z M30.9,20
		l34.4,19.2l-8.7,8.2L27.1,19.2C28.2,18.9,29.6,19.1,30.9,20z M24.1,76.3V23.7c0-0.6,0.1-1.2,0.2-1.7c0,0,29.5,28,29.5,28L24.4,78
		C24.2,77.5,24.1,76.9,24.1,76.3z M30.9,80c-1.4,0.9-2.8,1.1-4,0.7c0,0,29.6-28.1,29.6-28.1l8.8,8.4L30.9,80z M78,54.2L69,59.1
		L59.5,50l9.4-8.9l9.2,5.1C80.8,47.7,82.3,51.7,78,54.2z"/>
</g>
</svg>
