<?xml version="1.0" encoding="utf-8"?>
<!-- Generator: Adobe Illustrator 19.0.1, SVG Export Plug-In . SVG Version: 6.00 Build 0)  -->
<svg version="1.1" id="Слой_1" xmlns="http://www.w3.org/2000/svg" xmlns:xlink="http://www.w3.org/1999/xlink" x="0px" y="0px"
	 viewBox="-231 380.9 112.9 32.2" style="enable-background:new -231 380.9 112.9 32.2;" xml:space="preserve">
<style type="text/css">
	.st0{fill:#DDAC35;}
</style>
<path class="st0" d="M-123.3,399.5c0,0.1,0.1,0.1,0.1,0.1l4-0.1c0.1,0,0.1-0.1,0.1-0.1c0-0.1-0.1-0.1-0.1-0.1l-4,0.1
	C-123.3,399.4-123.3,399.5-123.3,399.5z"/>
<path class="st0" d="M-123.3,398.7c0,0.1,0.1,0.1,0.1,0.1l4-0.1c0.1,0,0.1-0.1,0.1-0.1c0-0.1-0.1-0.1-0.1-0.1h-3.9
	C-123.3,398.6-123.3,398.7-123.3,398.7z"/>
<path class="st0" d="M-123.3,398.4c0,0.1,0.1,0.1,0.1,0.1h3.9c0.1,0,0.1,0,0.1-0.1s-0.1-0.1-0.1-0.1h-3.9
	C-123.3,398.2-123.3,398.3-123.3,398.4z"/>
<path class="st0" d="M-123.3,399.9c0,0.1,0.1,0.1,0.1,0.1l4-0.1c0.1,0,0.1-0.1,0.1-0.1l-0.1-0.1l-4,0.1
	C-123.3,399.8-123.3,399.9-123.3,399.9z"/>
<path class="st0" d="M-123.3,400.7c0,0.1,0.1,0.1,0.1,0.1l4-0.2c0.1,0,0.1-0.1,0.1-0.1c0-0.1-0.1-0.1-0.1-0.1L-123.3,400.7
	C-123.3,400.6-123.3,400.7-123.3,400.7z"/>
<path class="st0" d="M-123.3,400.3c0,0.1,0.1,0.1,0.1,0.1l4-0.2c0.1,0,0.1-0.1,0.1-0.1c0-0.1-0.1-0.1-0.1-0.1l-4,0.1
	C-123.3,400.2-123.3,400.3-123.3,400.3z"/>
<path class="st0" d="M-123.3,399.1C-123.3,399.2-123.2,399.2-123.3,399.1h4.1c0.1,0,0.1-0.1,0.1-0.1c0-0.1-0.1-0.1-0.1-0.1l-4,0.1
	C-123.3,399-123.3,399.1-123.3,399.1z"/>
<path class="st0" d="M-142.9,395.4c0,0-0.1,3.2,0,4.3c0.4,4.7,1.3,6.6,6.1,6.5l8.2-0.6c3.6-0.5,4.9-2.2,4.9-5l-0.1-4.3
	c-0.6-3.9-3.3-5.1-7-5.3c0,0-5.2-0.3-7.3-0.3C-142.2,390.6-142.9,393.3-142.9,395.4z"/>
<path class="st0" d="M-123.3,398c0,0.1,0.1,0.1,0.1,0.1h3.9c0.1,0,0.1,0,0.1-0.1s-0.1-0.1-0.1-0.1h-3.9
	C-123.3,397.8-123.3,397.9-123.3,398z"/>
<path class="st0" d="M-123.3,396.8c0,0.1,0.1,0.1,0.1,0.1l3.9,0.1c0.1,0,0.1,0,0.1-0.1s-0.1-0.1-0.1-0.1l-3.9-0.1
	C-123.3,396.7-123.3,396.7-123.3,396.8z"/>
<path class="st0" d="M-123.3,397.6C-123.3,397.7-123.2,397.7-123.3,397.6l4,0.1c0.1,0,0.1,0,0.1-0.1c0-0.1-0.1-0.1-0.1-0.1h-3.9
	C-123.3,397.4-123.3,397.5-123.3,397.6z"/>
<path class="st0" d="M-123.3,397.2c0,0.1,0.1,0.1,0.1,0.1l3.9,0.1c0.1,0,0.1,0,0.1-0.1s-0.1-0.1-0.1-0.1H-123.3
	C-123.3,397.1-123.3,397.1-123.3,397.2z"/>
<path class="st0" d="M-155.9,403.5l-0.6,0.1c0.9,3,2.8,4.7,5.5,4.7h0.1l2,0.1l0,0c0.5,0,1.3,0,2.2,0l3.8,0.9
	c0.2,0.1,0.4,0.2,0.6,0.2c1.4,0.2,17.8-1,21.1-2.9c1.9-1.1,2.6-2.2,2.9-4c0.2-0.9,0.2-2,0.2-3.5c0-1.2,0-2.5-0.2-3.4
	c-1.4-5.8-7.2-6-9.4-6.2c-5.1-0.4-15.6-1.4-16.4-0.8c-0.1,0.1-0.2,0.2-0.3,0.3l0,0l-8,4.4c0,0-1.7,0.5-2.6,3.3l0.9-0.1h0.1
	c0.2,0,0.4-0.1,0.6-0.1c0.6,0,1.2,0.3,1.2,1.3v3.9c0,1.5-0.7,1.7-1.5,1.7h-1.3c1,3.1,3.4,3.6,3.4,3.6l2.4,0.6h-1.8
	C-153.3,407.6-155.1,406.2-155.9,403.5z M-144,394.3c0.1-2.9,1.8-4.4,4.8-4.4l13.9,1c4.4,0.2,6.8,3.2,6.8,6.1v3
	c0,2.9-0.7,5.1-4.5,5.9l-15.6,1.4c-2.9,0-5.2-2.4-5.3-5.3C-144.1,400-144,396.5-144,394.3z M-147.4,396.6h1c0,0,0,0,0,0.1
	c0,0.2,0,0.4,0,0.6c0,0.4,0,0.8,0,1.3c0,0.1,0,0.2,0,0.3v0.3c0,0.2,0,0.4,0,0.6c0,0.3,0,0.6,0.1,0.8h-1c0-0.2-0.1-0.5-0.1-0.8
	c0-0.2,0-0.4-0.1-0.6v-0.3c0-0.1,0-0.2,0-0.3c0-0.2,0-0.4,0-0.7c0-0.2,0-0.4,0-0.7C-147.5,397-147.4,396.8-147.4,396.6z
	 M-146.2,391.7c0,0,0,0.2,0,0.6c0,0.2,0,0.4,0,0.7c0,0.3,0,0.6,0,0.9s0,0.7,0,1c0,0.4,0,0.7,0,1.1h-0.9c0,0,0,0,0-0.1
	c0-0.4,0.1-0.8,0.2-1.2c0.1-0.4,0.1-0.7,0.2-1c0.1-0.3,0.2-0.6,0.3-0.9c0.1-0.3,0.2-0.5,0.2-0.7
	C-146.3,391.9-146.2,391.7-146.2,391.7z M-146.6,403.3c-0.1-0.3-0.2-0.7-0.3-1c-0.1-0.4-0.2-0.7-0.2-1.1h0.9c0,0.3,0.1,0.7,0.1,1
	c0,0.4,0.1,0.7,0.1,1c0,0.3,0.1,0.6,0.1,0.9c0,0.3,0.1,0.5,0.1,0.7c0,0.4,0.1,0.6,0.1,0.6s-0.1-0.2-0.3-0.5
	C-146.2,404.4-146.4,403.9-146.6,403.3z"/>
<path class="st0" d="M-164.5,399.1v3.9c0,0.6,0.1,0.6,0.4,0.6l10.3-0.9c0.6,0,0.9,0,0.9-1.1v-3.9c0-0.8-0.6-0.7-1.1-0.6l-9.5,1.3
	C-164.2,398.7-164.5,398.5-164.5,399.1z"/>
<path class="st0" d="M-136.7,388.3l5.5,0.5c0,0,0-1.5-4.7-3.3c-4.8-1.9-13.5-3.5-17-2.5c-6.2,1.8-5.2,12.3-5.2,12.3h1.8
	c0,0.1-0.1,0.1-0.1,0.2h-1.7c-0.6,0-0.9,0.5-0.9,1.1v0.5l2.2-0.3l0.7-0.1c0.7-2.7,2.4-4.6,4.4-4.5c0.4,0,0.8,0,1.2,0l1.3-0.7
	c-0.3,0-0.6,0-0.9,0c-0.6,0-1.1,0.1-1.6,0.1c-0.1,0-0.1,0-0.2,0c-0.8,0-1.5,0.2-2.2,0.7c0.2-3.3,1.2-8.5,6.1-8.9
	c6.4-0.5,11.1,4.4,11.1,4.4L-136.7,388.3z"/>
<path class="st0" d="M-190,380.9h-33.2c-1.1,0-1.9,0.9-1.9,1.9l0,0v19.5c0,1.1,0.9,1.9,1.9,1.9l0,0h33.2l0,0c1.1,0,1.9-0.9,1.9-1.9
	v-19.4l0,0C-188.1,381.8-189,380.9-190,380.9z M-190.5,402.4h-32.2c-0.3,0-0.5-0.2-0.5-0.5v-18.5c0-0.3,0.2-0.5,0.5-0.5h32.2
	c0.3,0,0.5,0.2,0.5,0.5v18.5C-190,402.1-190.3,402.4-190.5,402.4z"/>
<path class="st0" d="M-187.9,405.4c-0.4-0.3-1.1-0.6-1.6-0.6h-34.2c-0.5,0-1.2,0.3-1.6,0.6l-5.5,5.1c-0.1,0.1-0.2,0.2-0.2,0.3v0.8
	c0,0,0,1.5,1.5,1.5h45.8c1.5,0,1.5-1.5,1.5-1.5v-0.8c0-0.1-0.1-0.3-0.2-0.4L-187.9,405.4z M-212.7,408.4h12.3c0.2,0,0.3,0.1,0.4,0.2
	l0.4,0.6c0.2,0.3,0,0.7-0.4,0.7h-13c-0.4,0-0.6-0.4-0.4-0.7l0.4-0.6C-213.1,408.5-212.9,408.4-212.7,408.4z M-203.2,411.1
	c0,0.3-0.2,0.5-0.5,0.5h-5.8c-0.3,0-0.5-0.2-0.5-0.5v-0.5h6.8V411.1L-203.2,411.1z"/>
<rect x="-185" y="400.5" class="st0" width="17.6" height="0.8"/>
<circle class="st0" cx="-176.7" cy="400.8" r="1.3"/>
</svg>
