<?xml version="1.0" encoding="utf-8"?>
<!-- Generator: Adobe Illustrator 19.0.0, SVG Export Plug-In . SVG Version: 6.00 Build 0)  -->
<svg version="1.1" id="Layer_1" xmlns="http://www.w3.org/2000/svg" xmlns:xlink="http://www.w3.org/1999/xlink" x="0px" y="0px"
	 viewBox="0 0 70 70" style="enable-background:new 0 0 70 70;" xml:space="preserve">
<g id="Фигура_12_1_">
	<g id="XMLID_30_">
		<path id="XMLID_31_" d="M48.6,19.7c-0.7-2.3-2.2-4.2-4.2-5.2c-0.3-0.2-0.7-0.3-1-0.4c0,0,0,0-0.1,0l-3.1-0.7
			c-1.1-0.3-2.3,0.4-2.8,1.5l-3.1,7.4c-0.3,0.7-0.4,1.6-0.2,2.4c0.2,0.5,0.5,0.9,0.9,1.1l3.4,1.7c0,0,0,0,0.1,0
			c0.7,0.4,1.2,1,1.4,1.8c0.5,1.9,0.4,4-0.5,5.8l-2.9,6.8c-1.4,3.2-4.1,5.1-6,4.2L27,44.4c-1.1-0.5-2.4,0.2-3,1.6l-3.1,7.4
			c-0.5,1.1-0.2,2.5,0.8,3.3l2.5,2.1c0.3,0.2,0.6,0.4,1,0.6c0.9,0.5,2,0.7,3,0.7c5.9,0,13.1-7,17.7-17.7
			C49.5,34,50.5,25.3,48.6,19.7z M44.3,41.5C39.5,52.7,31.2,60,26,57.5c-0.2-0.1-0.4-0.2-0.6-0.4L22.9,55c-0.3-0.2-0.3-0.6-0.2-0.9
			l3.1-7.4c0.1-0.3,0.3-0.5,0.6-0.7l3.5,1.7c2.8,1.4,6.5-0.9,8.3-5.2l2.9-6.8c1-2.3,1.2-4.9,0.5-7.3c-0.4-1.2-1.2-2.3-2.3-2.8
			c0,0,0,0-0.1,0l-3.5-1.7c-0.1-0.3-0.1-0.6,0.1-0.9l3.1-7.4c0.1-0.3,0.5-0.5,0.8-0.4l3.1,0.7c0.2,0.1,0.5,0.2,0.7,0.3
			c1.5,0.8,2.7,2.3,3.2,4.1C48.7,25.6,47.7,33.6,44.3,41.5z"/>
	</g>
</g>
</svg>
