<?xml version="1.0" encoding="utf-8"?>
<!-- Generator: Adobe Illustrator 19.0.0, SVG Export Plug-In . SVG Version: 6.00 Build 0)  -->
<svg version="1.1" id="Layer_1" xmlns="http://www.w3.org/2000/svg" xmlns:xlink="http://www.w3.org/1999/xlink" x="0px" y="0px"
	 viewBox="0 0 70 70" style="enable-background:new 0 0 70 70;" xml:space="preserve">
<style type="text/css">
	.st0{fill:#010101;}
</style>
<path id="VK" class="st0" d="M36.5,48.8c1.5,0,1.5-2.1,1.5-3c0-1.5,1.5-3,3-3s4,2.6,6,4.5c1.5,1.5,1.5,1.5,3,1.5c1.5,0,4.5,0,4.5,0
	s3-0.1,3-3c0-0.9-1-2.5-4.5-6c-3-3-4.5-1.4,0-7.5c2.7-3.7,4.7-7,4.4-7.9c-0.3-0.9-8-2.4-8.9-1c-3,4.5-3.5,5.6-4.5,7.5
	c-1.5,3-1.6,4.5-3,4.5c-1.4,0-1.5-2.9-1.5-4.5c0-4.9,0.7-8.4-1.5-8.9c0,0-3,0-4.5,0c-2.4,0-4.5,1.5-4.5,1.5s-1.9,1.4-1.5,1.5
	c0.4,0.1,3-0.6,3,1.5c0,1.5,0,3,0,3s0,6-1.5,6c-1.5,0-4.5-6-7.5-10.4c-1.2-1.8-1.5-1.5-3-1.5c-1.6,0-3,0.1-4.5,0.1
	c-1.5,0-1.7,0.9-1.5,1.4c3,7.5,5.1,12.1,10.8,18c5.2,5.4,8.7,5.7,11.6,5.8C35.8,48.9,35,48.8,36.5,48.8z"/>
</svg>
