<?xml version="1.0" encoding="utf-8"?>
<!-- Generator: Adobe Illustrator 19.0.1, SVG Export Plug-In . SVG Version: 6.00 Build 0)  -->
<svg version="1.1" id="Слой_1" xmlns="http://www.w3.org/2000/svg" xmlns:xlink="http://www.w3.org/1999/xlink" x="0px" y="0px"
	 viewBox="0 0 70 70" style="enable-background:new 0 0 70 70;" xml:space="preserve">
<style type="text/css">
	.st0{fill:#DDAC35;}
	.st1{fill:#DDAC35;stroke:#DDAC35;stroke-width:1.0607;}
</style>
<path class="st0" d="M49.3,27.9H8.7c-1.9,0-3.5,1.6-3.5,3.5v18c0,1.9,1.6,3.5,3.5,3.5h15.9c0.4,0,0.8-0.2,1-0.6l2.4-4.8
	c0.3-0.6,0.9-0.8,1.5-0.5c0.2,0.1,0.4,0.3,0.5,0.5l2.3,4.8c0.2,0.4,0.6,0.7,1.1,0.7h16c1.9,0,3.4-1.6,3.4-3.5v-18
	C52.8,29.5,51.2,27.9,49.3,27.9z M18.3,44.5c-2.2,0-4.1-1.8-4.1-4c0-2.2,1.8-4.1,4-4.1s4.1,1.8,4.1,4c0,0,0,0,0,0
	C22.3,42.7,20.5,44.5,18.3,44.5z M39.7,44.5c-2.2,0-4.1-1.8-4.1-4c0-2.2,1.8-4.1,4-4.1c2.2,0,4.1,1.8,4.1,4c0,0,0,0,0,0
	C43.7,42.7,41.9,44.5,39.7,44.5z"/>
<g transform="translate(0,-952.36218)">
	<path class="st1" d="M48.8,968.5c-1,0-1.8,0.8-1.8,1.8v28.4c0,1,0.8,1.8,1.8,1.8H63c1,0,1.8-0.8,1.8-1.8v-28.4c0-1-0.8-1.8-1.8-1.8
		H48.8z M51.7,969.9h8.4v0.8h-8.4V969.9z M47.7,972h16.5v24.8H47.7V972z M55.9,997.2c0.8,0,1.5,0.7,1.5,1.6s-0.7,1.5-1.5,1.5
		c-0.8,0-1.5-0.7-1.5-1.5S55,997.2,55.9,997.2z"/>
</g>
</svg>
