<svg xmlns="http://www.w3.org/2000/svg" viewBox="0 0 309.6 82.4">
	<style type="text/css">
	.st0{fill:#8c40cc;}
	.st1{fill:none;stroke:#8c40cc;stroke-miterlimit:10;}
	.st2{fill:#FFFFFF;}
	.st3{fill:none;}
	.st4{fill:none;stroke:#8c40cc;stroke-width:0.75;stroke-miterlimit:10;}
	</style>
	<polygon class="st0" points="179.3,2.3 179.3,5.6 173,5.6 173,0 163.4,0 163.4,9.6 167.6,9.6 167.6,19.2 
	181.2,19.2 181.2,7.3 184.3,7.3 184.3,2.3 	"/>
	<rect x="165.4" y="20.5" class="st0" width="4.4" height="4.4"/>
	<rect x="180.8" y="20.5" class="st0" width="1.5" height="1.5"/>
	<path class="st0" d="M4.4,24.8v-2.2c0-0.2,0.2-0.4,0.4-0.4h3.9L7,25.1H4.8C4.6,25.2,4.4,25,4.4,24.8z M7.2,29.3
	L6,30.1c-0.2,0.1-0.3,0-0.3-0.2l0.2-1.4c0-0.2,0.2-0.3,0.4-0.2l1,0.5C7.3,29,7.3,29.2,7.2,29.3z M7.4,28.5l-1-0.5
	c-0.2-0.1-0.2-0.3-0.1-0.5l4.4-7.7c0.1-0.2,0.3-0.2,0.5-0.1l1,0.5c0.2,0.1,0.2,0.3,0.1,0.5l-4.4,7.7C7.9,28.5,7.6,28.6,7.4,28.5z
	M10.8,25.2l1.7-2.9h1l1.4,2.9H10.8z M16.3,26.1c-0.4-0.2-2.3-4.6-2.8-5.7s-2-4.2-1.5-4.4c0.3-0.2,1.6,2.2,2.5,3.7
	c0.9,1.4,2.8,5.1,3.1,5.6c0.2,0.4-0.2,0.8-0.5,0.9C16.8,26.1,16.7,26.2,16.3,26.1z M17.6,28.1L17,27.2c-0.1-0.2-0.1-0.4,0.1-0.5
	l0.5-0.3c0.2-0.1,0.4,0,0.5,0.2l0.5,0.9c0.1,0.2,0,0.4-0.2,0.6L18,28.3C17.9,28.3,17.7,28.3,17.6,28.1z M19.7,30.4
	c-0.1-0.4-1-0.4-1.5-1c-0.4-0.6-0.1-0.9,0.1-1C20,27.5,19.7,30.4,19.7,30.4z M20.5,24.8c0,0.2-0.2,0.4-0.4,0.4h-1.9
	c0-0.1-0.1-0.2-0.1-0.3c-0.1-0.1-0.2-0.3-0.4-0.7c-0.3-0.5-0.6-1.2-1-1.9h3.4c0.2,0,0.4,0.2,0.4,0.4V24.8L20.5,24.8z"/>
	<path class="st0" d="M14.4,70c-1.4,1.8-2.8,3.5-4.2,5.2c-1.8,2.2-3.5,4.4-5.3,6.5c-0.5,0.6-1.2,0.8-2,0.7
	c-0.8-0.2-1-0.8-1.1-1.5c0-0.3-0.1-0.6-0.1-0.9c0-6.7,0-13.4,0-20.1c0-0.5,0.1-1,0.2-1.5c0.2-0.8,0.8-1.1,1.6-0.9
	c0.6,0.1,1.1,0.3,1.5,0.8c3,3.7,6,7.4,9,11.1C14.1,69.7,14.2,69.8,14.4,70z"/>
	<path class="st0" d="M19.3,73.8c-1-1.3-2.1-2.5-3.1-3.8c1-1.3,2-2.5,3.1-3.8c0.4,0.2,0.8,0.5,1.2,0.7
	c0.9,0.5,1.7,1,2.6,1.5c1.4,0.9,1.4,2.2,0.1,3.1c-0.2,0.1-0.4,0.3-0.6,0.4C21.5,72.6,20.4,73.2,19.3,73.8z"/>
	<path class="st0" d="M17.9,65.7c-1,1.2-1.9,2.4-2.9,3.6c-2.6-3.3-5.3-6.5-7.9-9.7c0,0,0-0.1,0.1-0.1
	C10.7,61.6,14.3,63.6,17.9,65.7z"/>
	<path class="st0" d="M15,70.7c1,1.2,1.9,2.4,2.9,3.6c-3.6,2.1-7.2,4.2-10.7,6.3c0,0,0-0.1-0.1-0.1
	C9.7,77.3,12.3,74,15,70.7z"/>
	<circle class="st1" cx="12.2" cy="24.2" r="11.7"/>
	<path class="st0" d="M98.7,47.2c0,0.4,0.3,0.8,0.8,0.8h16.3l-6.6,6.6c-0.2,0.2-0.2,0.3-0.2,0.5s0.1,0.4,0.2,0.5
	c0.3,0.3,0.8,0.3,1.1,0l7.8-7.8c0.3-0.3,0.3-0.8,0-1.1l-7.8-7.8c-0.3-0.3-0.8-0.3-1.1,0s-0.3,0.8,0,1.1l6.6,6.4H99.5
	C99.1,46.4,98.7,46.8,98.7,47.2z"/>
	<circle class="st2" cx="72.1" cy="78" r="2.8"/>
	<circle class="st3" cx="72.1" cy="78" r="2.8"/>
	<path class="st3" d="M71.4,62.5c0.3,0.3,0.8,0.3,1.1,0l7.8-7.8c0.3-0.3,0.3-0.8,0-1.1c-0.3-0.3-0.8-0.3-1.1,0
	l-6.4,6.6V43.9c0-0.4-0.3-0.8-0.8-0.8s-0.8,0.3-0.8,0.8v16.3l-6.6-6.6c-0.2-0.2-0.3-0.2-0.5-0.2s-0.4,0.1-0.5,0.2
	c-0.3,0.3-0.3,0.8,0,1.1L71.4,62.5z"/>
	<path class="st3" d="M79.9,64.5H64.2c-0.4,0-0.7,0.3-0.7,0.7s0.3,0.7,0.7,0.7h15.7c0.4,0,0.7-0.3,0.7-0.7
	S80.2,64.5,79.9,64.5z"/>
	<path class="st0" d="M85.1,12.5H58.8c-2.2,0-4,1.8-4,4v61.6c0,2.2,1.8,4,4,4h26.3c2.2,0,4-1.8,4-4V16.5
	C89.1,14.3,87.3,12.5,85.1,12.5z M68.2,15.6H76c0.2,0,0.4,0.2,0.4,0.4c0,0.2-0.2,0.4-0.4,0.4h-7.8c-0.2,0-0.4-0.2-0.4-0.4
	C67.8,15.8,68,15.6,68.2,15.6z M72.1,80.8c-1.5,0-2.8-1.2-2.8-2.8c0-1.5,1.2-2.8,2.8-2.8s2.8,1.2,2.8,2.8
	C74.8,79.6,73.6,80.8,72.1,80.8z M88.2,73.7H55.6V20.2h32.6C88.2,20.2,88.2,73.7,88.2,73.7z"/>
	<path class="st2" d="M55.6,73.7h32.6V20.2H55.6V73.7z M79.9,65.8H64.2c-0.4,0-0.7-0.3-0.7-0.7s0.3-0.7,0.7-0.7
	h15.7c0.4,0,0.7,0.3,0.7,0.7S80.2,65.8,79.9,65.8z M63.6,53.6c0.2-0.2,0.3-0.2,0.5-0.2s0.4,0.1,0.5,0.2l6.6,6.6V43.9
	c0-0.4,0.3-0.8,0.8-0.8s0.8,0.3,0.8,0.8v16.3l6.4-6.6c0.3-0.3,0.8-0.3,1.1,0c0.3,0.3,0.3,0.8,0,1.1l-7.8,7.8
	c-0.3,0.3-0.8,0.3-1.1,0l-7.8-7.8C63.3,54.4,63.3,53.9,63.6,53.6z"/>
	<path class="st2" d="M68.2,16.5H76c0.2,0,0.4-0.2,0.4-0.4c0-0.2-0.2-0.4-0.4-0.4h-7.8c-0.2,0-0.4,0.2-0.4,0.4
	C67.8,16.3,68,16.5,68.2,16.5z"/>
	<path class="st0" d="M71.4,62.5c0.3,0.3,0.8,0.3,1.1,0l7.8-7.8c0.3-0.3,0.3-0.8,0-1.1c-0.3-0.3-0.8-0.3-1.1,0
	l-6.4,6.6V43.9c0-0.4-0.3-0.8-0.8-0.8s-0.8,0.3-0.8,0.8v16.3l-6.6-6.6c-0.2-0.2-0.3-0.2-0.5-0.2s-0.4,0.1-0.5,0.2
	c-0.3,0.3-0.3,0.8,0,1.1L71.4,62.5z"/>
	<path class="st0" d="M79.9,64.5H64.2c-0.4,0-0.7,0.3-0.7,0.7s0.3,0.7,0.7,0.7h15.7c0.4,0,0.7-0.3,0.7-0.7
	S80.2,64.5,79.9,64.5z"/>
	<path class="st0" d="M46.1,61.5l-14.6,5.9c-0.3,0.1-0.7,0-0.9-0.4l0,0c-0.1-0.3,0-0.7,0.4-0.9l14.6-5.9
	c0.3-0.1,0.7,0,0.9,0.4l0,0C46.6,61,46.5,61.4,46.1,61.5z"/>
	<path class="st0" d="M46.1,34.2l-14.6-5.9c-0.3-0.1-0.7,0-0.9,0.4l0,0c-0.1,0.3,0,0.7,0.4,0.9l14.6,5.9
	c0.3,0.1,0.7,0,0.9-0.4l0,0C46.6,34.8,46.5,34.4,46.1,34.2z"/>
	<path class="st0" d="M158.9,82.1h-26.3c-2.2,0-4-1.8-4-4V16.5c0-2.2,1.8-4,4-4h26.3c2.2,0,4,1.8,4,4v61.6
	C162.9,80.3,161.1,82.1,158.9,82.1z"/>
	<rect x="129.5" y="20.2" class="st2" width="32.6" height="53.4"/>
	<circle class="st2" cx="145.9" cy="78" r="2.8"/>
	<path class="st2" d="M149.9,16.5h-7.8c-0.2,0-0.4-0.2-0.4-0.4l0,0c0-0.2,0.2-0.4,0.4-0.4h7.8c0.2,0,0.4,0.2,0.4,0.4
	l0,0C150.3,16.3,150.1,16.5,149.9,16.5z"/>
	<polygon class="st0" points="150.7,38.3 150.7,40.9 145.7,40.9 145.7,36.4 137.9,36.4 137.9,44.2 141.2,44.2 
	141.2,51.9 152.2,51.9 152.2,42.3 154.7,42.3 154.7,38.3 	"/>
	<rect x="139.5" y="53" class="st0" width="3.6" height="3.6"/>
	<rect x="151.9" y="53" class="st0" width="1.3" height="1.3"/>
	<path class="st0" d="M173.9,47.2c0,0.4,0.3,0.8,0.8,0.8H191l-6.6,6.6c-0.2,0.2-0.2,0.3-0.2,0.5s0.1,0.4,0.2,0.5
	c0.3,0.3,0.8,0.3,1.1,0l7.8-7.8c0.3-0.3,0.3-0.8,0-1.1l-7.8-7.8c-0.3-0.3-0.8-0.3-1.1,0s-0.3,0.8,0,1.1l6.6,6.4h-16.3
	C174.2,46.4,173.9,46.8,173.9,47.2z"/>
	<path class="st3" d="M203.2,61c-0.5-1.4-2.1-2.1-3.5-1.6s-2.1,2.1-1.6,3.5c0.5,1.4,2.1,2.1,3.5,1.6
	C203,64,203.7,62.4,203.2,61L203.2,61z"/>
	<path class="st0" d="M235,12.5h-26.3c-2.2,0-4,1.8-4,4v35.2l0.8-0.3V20.2h32.6v53.4h-32.6v-4.7l-0.8,0.3V78
	c0,2.2,1.8,4,4,4H235c2.2,0,4-1.8,4-4V16.5C239,14.3,237.2,12.5,235,12.5z M226,16.5h-7.8c-0.2,0-0.4-0.2-0.4-0.4
	c0-0.2,0.2-0.4,0.4-0.4h7.8c0.2,0,0.4,0.2,0.4,0.4C226.4,16.3,226.2,16.5,226,16.5z M222,80.8c-1.5,0-2.8-1.2-2.8-2.8
	c0-1.5,1.2-2.8,2.8-2.8s2.8,1.2,2.8,2.8S223.6,80.8,222,80.8z"/>
	<path class="st2" d="M220.3,48.5l4.1,11.3c0.4,1.2-0.2,2.5-1.4,2.9l-10.1,3.6c-0.3,0.1-0.6,0-0.8-0.2l-2.5-2.5
	c-0.1-0.1-0.3-0.2-0.4-0.2c-0.4,0-0.8,0.3-0.8,0.7l-0.4,3.6c0,0.3-0.2,0.5-0.5,0.6l-1.8,0.7v4.7h32.6V20.2h-32.6v31.1l11.7-4.2
	C218.5,46.7,219.8,47.3,220.3,48.5z"/>
	<path class="st2" d="M215,59.6c1.4-0.5,2.1-2.1,1.6-3.5l0,0c-0.5-1.4-2.1-2.1-3.5-1.6c-1.4,0.5-2.1,2.1-1.6,3.5
	C212.1,59.4,213.6,60.2,215,59.6z"/>
	<circle class="st2" cx="222" cy="78" r="2.8"/>
	<path class="st2" d="M226,15.6h-7.8c-0.2,0-0.4,0.2-0.4,0.4c0,0.2,0.2,0.4,0.4,0.4h7.8c0.2,0,0.4-0.2,0.4-0.4
	C226.4,15.8,226.2,15.6,226,15.6z"/>
	<polygon class="st0" points="205.6,51.3 204.8,51.6 204.8,69.3 205.6,69 	"/>
	<path class="st0" d="M207.4,68.4c0.3-0.1,0.5-0.3,0.5-0.6l0.4-3.6c0-0.4,0.4-0.7,0.8-0.7c0.2,0,0.3,0.1,0.4,0.2
	l2.5,2.5c0.2,0.2,0.5,0.3,0.8,0.2l10.1-3.6c1.2-0.4,1.8-1.8,1.4-2.9l-4.1-11.3c-0.4-1.2-1.8-1.8-3-1.4l-11.7,4.2v17.7L207.4,68.4z
	M213.2,54.6c1.4-0.5,3,0.2,3.5,1.6l0,0c0.5,1.4-0.2,2.9-1.6,3.5c-1.4,0.5-3-0.2-3.5-1.6C211,56.6,211.8,55.1,213.2,54.6z"/>
	<path class="st0" d="M274,26.2L249.7,22c-1.1-0.2-2.2,0.6-2.4,1.7l-1.9,10.8c-0.2,1.1,0.6,2.2,1.7,2.4l9.5,1.7
	c0.3,0,0.5,0,0.7-0.3l1.9-2.6c0.2-0.3,0.7-0.4,1-0.2c0.1,0.1,0.2,0.2,0.3,0.4l0.9,3.1c0.1,0.3,0.3,0.5,0.6,0.5l9.6,1.7
	c1.1,0.2,2.2-0.6,2.4-1.7l1.9-10.8C276,27.5,275.2,26.4,274,26.2z M253.8,32.9c-1.3-0.2-2.2-1.5-2-2.8s1.5-2.2,2.8-2s2.2,1.5,2,2.8
	l0,0C256.4,32.2,255.1,33.1,253.8,32.9z M266.6,35.1c-1.3-0.2-2.2-1.5-2-2.8s1.5-2.2,2.8-2s2.2,1.5,2,2.8l0,0
	C269.2,34.4,267.9,35.3,266.6,35.1z"/>
	<rect x="299.4" y="30.1" transform="matrix(-0.9648 0.2629 -0.2629 -0.9648 606.4136 -11.7664)" class="st0" width="9.2" height="9.2"/>
	<rect x="284.4" y="34.7" transform="matrix(-0.9284 -0.3716 0.3716 -0.9284 541.7795 181.8187)" class="st4" width="8" height="8"/>
	<path class="st0" d="M265,60.4l6.1-1.6l-2.9,4.3l1.8-0.5l6.8-5.3l5-1.4l0.3-0.1c2.4-0.7,3.5-1.9,3.2-3
	c-0.2-0.9-1.6-1-2.6-0.9c0,0-0.4-0.3-0.7-0.2c-0.1,0-2.4,0.6-5.2,1.4l-10.3-4.6l-1.8,0.5l6,5.8c-2.4,0.7-4.2,1.2-4.2,1.2l-5.3-2
	l-1.9,0.6L265,60.4z"/>
</svg>