<?xml version="1.0" encoding="utf-8"?>
<!-- Generator: Adobe Illustrator 19.0.1, SVG Export Plug-In . SVG Version: 6.00 Build 0)  -->
<svg version="1.1" id="Слой_1" xmlns="http://www.w3.org/2000/svg" xmlns:xlink="http://www.w3.org/1999/xlink" x="0px" y="0px"
	 viewBox="-1382 1382.7 70 70" style="enable-background:new -1382 1382.7 70 70;" xml:space="preserve">
<style type="text/css">
	.st0{fill:#7B42C7;}
	.st1{fill:#FFFFFF;}
</style>
<circle class="st0" cx="-1347" cy="1417.7" r="34.7"/>
<g transform="translate(0,-952.36218)">
	<path class="st1" d="M-1364.8,2355c-1,0-1.9,0.3-2.6,0.8l0,0l19.5,18.3c0.4,0.4,1.4,0.4,1.8,0l19.5-18.3l0,0
		c-0.7-0.5-1.6-0.8-2.6-0.8H-1364.8L-1364.8,2355z M-1368.8,2357.5c-0.3,0.6-0.4,1.2-0.4,1.9v21.1c0,0.8,0.2,1.6,0.6,2.3l13.8-12.2
		C-1354.8,2370.7-1368.8,2357.5-1368.8,2357.5z M-1325.2,2357.5l-14,13.1l13.8,12.2c0.4-0.7,0.6-1.4,0.6-2.3v-21.1
		C-1324.8,2358.8-1324.9,2358.1-1325.2,2357.5z M-1353.2,2372.2l-13.8,12.2c0.7,0.4,1.4,0.6,2.2,0.6h35.6c0.8,0,1.6-0.2,2.2-0.6
		l-13.8-12.2l-3.8,3.5c-1.4,1.3-3.5,1.3-4.9,0L-1353.2,2372.2L-1353.2,2372.2z"/>
</g>
</svg>
