<?xml version="1.0" encoding="UTF-8" standalone="no"?>
<svg width="25px" height="35px" viewBox="0 0 25 35" version="1.1" xmlns="http://www.w3.org/2000/svg" xmlns:xlink="http://www.w3.org/1999/xlink">
    <!-- Generator: Sketch 3.8.3 (29802) - http://www.bohemiancoding.com/sketch -->
    <title>Shape</title>
    <desc>Created with Sketch.</desc>
    <defs></defs>
    <g id="Page-1" stroke="none" stroke-width="1" fill="none" fill-rule="evenodd">
        <g id="OG---Страница-&quot;Новостройки&quot;---определенная-новостройка" transform="translate(-710.000000, -2166.000000)" fill="#8c40cc">
            <path d="M722.393777,2166 C715.548901,2166 710,2171.5489 710,2178.39378 C710,2185.23865 715.548901,2190.78755 722.393777,2190.78755 C722.837936,2190.78755 723.276406,2190.76291 723.70824,2190.7174 C722.314141,2195.67045 719.902792,2200.26325 719.902792,2200.26325 C728.984578,2194.14695 732.525048,2187.35279 733.9054,2182.98515 C734.459057,2181.59864 734.770015,2180.0903 734.78471,2178.50991 C734.787554,2178.43454 734.787554,2178.39378 734.787554,2178.39378 C734.787554,2171.5489 729.238654,2166 722.393777,2166 L722.393777,2166 Z M722.393777,2187.32482 C717.461579,2187.32482 713.46273,2183.32645 713.46273,2178.39378 C713.46273,2173.46158 717.461105,2169.46273 722.393777,2169.46273 C727.326449,2169.46273 731.324824,2173.46111 731.324824,2178.39378 C731.324824,2183.32598 727.325975,2187.32482 722.393777,2187.32482 L722.393777,2187.32482 Z" id="Shape"></path>
        </g>
    </g>
</svg>