<?xml version="1.0" encoding="utf-8"?>
<!-- Generator: Adobe Illustrator 19.0.0, SVG Export Plug-In . SVG Version: 6.00 Build 0)  -->
<svg version="1.1" xmlns="http://www.w3.org/2000/svg" xmlns:xlink="http://www.w3.org/1999/xlink" x="0px" y="0px"
	 viewBox="0 0 56.4 42.4" style="enable-background:new 0 0 56.4 42.4;" xml:space="preserve">
<style type="text/css">
	.st0{fill:none;stroke:#000000;stroke-miterlimit:10;}
</style>
<g id="Layer_1">
	<path id="XMLID_13_" d="M54.5,0H1.9C0.8,0,0,0.8,0,1.9v29.4c0,1,0.8,1.9,1.9,1.9H23v7.6h-4.9v1.7H23h10.4h4.9v-1.7h-4.9v-7.6h21.1
		c1,0,1.9-0.8,1.9-1.9V1.9C56.4,0.8,55.6,0,54.5,0z M54.8,31.3H1.6V1.8h53.2V31.3z"/>
</g>
<g id="Layer_2">
	<rect id="XMLID_1_" x="24.1" y="5.7" class="st0" width="22.1" height="12"/>
	<rect id="XMLID_2_" x="7.7" y="12.7" class="st0" width="9.5" height="14.7"/>
	<rect id="XMLID_3_" x="33.6" y="6.9" width="10.5" height="0.7"/>
	<rect id="XMLID_4_" x="33.6" y="9.6" width="10.5" height="2.1"/>
	<rect id="XMLID_6_" x="9.1" y="13.8" width="6.7" height="3.1"/>
	<rect id="XMLID_7_" x="9.1" y="17.7" width="6.7" height="0.4"/>
	<rect id="XMLID_8_" x="9.1" y="20.9" width="6.7" height="0.4"/>
</g>
</svg>
