<?xml version="1.0" encoding="utf-8"?>
<!-- Generator: Adobe Illustrator 21.0.2, SVG Export Plug-In . SVG Version: 6.00 Build 0)  -->
<svg version="1.1" id="Layer_1" xmlns="http://www.w3.org/2000/svg" xmlns:xlink="http://www.w3.org/1999/xlink" x="0px" y="0px"
	 viewBox="0 0 65 100.8" style="enable-background:new 0 0 65 100.8;" xml:space="preserve">
<style type="text/css">
	.st0{fill:#8B52A0;}
</style>
<g id="XMLID_3_">
	<path id="XMLID_15_" class="st0" d="M32.5,100.8c4.1,0,7.5-2.7,8.6-6.4H23.9C25,98.1,28.4,100.8,32.5,100.8z"/>
	<path id="XMLID_14_" class="st0" d="M18.1,86.8c-0.6,0.7-0.9,1.6-0.9,2.6c0,1.2,0.6,2.3,1.4,3.1h27.8c0.9-0.7,1.4-1.8,1.4-3.1
		c0-1-0.3-1.9-0.9-2.6H18.1z"/>
	<path id="XMLID_13_" class="st0" d="M46.2,79H18.8c-1,0.7-1.6,1.9-1.6,3.2c0,1.1,0.4,2,1.1,2.7h28.5c0.7-0.7,1.1-1.7,1.1-2.7
		C47.8,80.9,47.2,79.7,46.2,79z"/>
	<path id="XMLID_4_" class="st0" d="M32.5,0C14.6,0,0,13.8,0,30.8c0,11.9,4.6,18.6,9,25.1c3.7,5.4,7.5,11,7.8,18.6
		c0,1,0.4,1.8,1,2.5h29.4c0.6-0.7,0.9-1.5,1-2.5c0.2-7.6,4.1-13.2,7.8-18.6c4.4-6.5,9-13.2,9-25.1C65,13.8,50.4,0,32.5,0z
		 M34.5,60.7c0,0.8-0.6,1.4-1.4,1.4h-1.2c-0.8,0-1.4-0.6-1.4-1.4V34.2c0-0.8,0.6-1.4,1.4-1.4h1.2c0.8,0,1.4,0.6,1.4,1.4V60.7z
		 M32.5,28.7c-1.9,0-3.5-1.6-3.5-3.5s1.6-3.5,3.5-3.5s3.5,1.6,3.5,3.5S34.4,28.7,32.5,28.7z"/>
</g>
</svg>
