<?xml version="1.0" encoding="utf-8"?>
<!-- Generator: Adobe Illustrator 19.0.0, SVG Export Plug-In . SVG Version: 6.00 Build 0)  -->
<svg version="1.1" id="Слой_1" xmlns="http://www.w3.org/2000/svg" xmlns:xlink="http://www.w3.org/1999/xlink" x="0px" y="0px"
	 viewBox="-24 26 70 70" style="enable-background:new -24 26 70 70;" xml:space="preserve">
<style type="text/css">
	.st0{fill:none;}
	.st1{fill:#686868;}
</style>
<g>
	<path class="st0" d="M11,40.6C-0.3,40.6-9.4,49.7-9.4,61S-0.3,81.4,11,81.4S31.4,72.3,31.4,61S22.3,40.6,11,40.6z M11,78.2
		C1.5,78.2-6.2,70.5-6.2,61S1.5,43.8,11,43.8S28.2,51.5,28.2,61S20.5,78.2,11,78.2z"/>
	<path class="st1" d="M44.1,65.6v-9.2l-8-2.3c-0.6-2.1-1.4-4.1-2.4-5.9l4-7.3l-6.5-6.5l-7.3,4c-1.8-1.1-3.8-1.9-5.9-2.4l-2.3-8H6.5
		l-2.3,8c-2.1,0.6-4.1,1.4-5.9,2.4l-7.3-4l-6.5,6.5l4,7.3c-1,1.8-1.9,3.8-2.4,5.9l-8,2.3v9.2l8,2.3c0.6,2.1,1.4,4.1,2.4,5.9l-4,7.3
		l6.5,6.5l7.3-4c1.8,1,3.8,1.9,5.9,2.4l2.3,8h9.2l2.3-8c2.1-0.6,4.1-1.4,5.9-2.4l7.3,4l6.5-6.5l-4-7.3c1-1.8,1.9-3.8,2.4-5.9
		L44.1,65.6z M11,81.4C-0.3,81.4-9.4,72.3-9.4,61S-0.3,40.6,11,40.6S31.4,49.7,31.4,61S22.3,81.4,11,81.4z"/>
	<path class="st1" d="M17.7,55.4c-0.8,0-1.3,0.1-1.5,0.1v4.1h1.3c1.7,0,2.7-0.8,2.7-2.1C20.2,56.1,19.3,55.4,17.7,55.4z"/>
	<path class="st1" d="M4,55.5L4,55.5c-0.3,0.9-0.5,2-0.7,2.9l-0.9,3.1h3.3l-0.9-3.1C4.5,57.5,4.2,56.4,4,55.5z"/>
	<path class="st1" d="M11,43.8C1.5,43.8-6.2,51.5-6.2,61S1.5,78.2,11,78.2S28.2,70.5,28.2,61S20.5,43.8,11,43.8z M7.3,67.9l-1.1-3.8
		H2l-1.1,3.8h-3.5L1.9,53h4.4l4.6,14.8L7.3,67.9L7.3,67.9z M22.9,63.7c0.5,1.7,0.9,3.6,1.2,4.2h-3.4c-0.2-0.4-0.6-1.6-1-3.5
		c-0.4-1.8-1-2.4-2.4-2.4h-1v5.8H13V53.2c1.1-0.2,2.7-0.3,4.5-0.3c2.2,0,3.7,0.3,4.8,1.2c0.9,0.7,1.4,1.7,1.4,3.1
		c0,1.9-1.3,3.2-2.6,3.7V61C21.9,61.3,22.5,62.3,22.9,63.7z"/>
</g>
</svg>
