<?xml version="1.0" encoding="utf-8"?>
<!-- Generator: Adobe Illustrator 19.0.0, SVG Export Plug-In . SVG Version: 6.00 Build 0)  -->
<svg version="1.1" id="Layer_1" xmlns="http://www.w3.org/2000/svg" xmlns:xlink="http://www.w3.org/1999/xlink" x="0px" y="0px"
	 viewBox="-34 33.7 30.7 35.3" style="enable-background:new -34 33.7 30.7 35.3;" xml:space="preserve">
<path d="M-6.2,34.6H-31c-1.1,0-2,0.9-2,2v29.5c0,1.1,0.9,2,2,2h24.8c1.1,0,2-0.9,2-2V36.6C-4.2,35.5-5.1,34.6-6.2,34.6z M-17.3,63.6
	H-30v-1h12.7V63.6z M-17.3,53.6H-30v-1h12.7V53.6z M-17.3,43.6H-30v-1h12.7V43.6z M-8.2,62.9L-9,63.6l-2.1-2.1l-2.1,2.1l-0.7-0.7
	l2.1-2.1l-2.1-2.1l0.7-0.8l2.1,2.1l2.1-2.1l0.8,0.8l-2.1,2.1L-8.2,62.9z M-10.3,52.9l-0.8,0.7l-0.7-0.7l-2.1-2.1l0.7-0.8l2.2,2.1
	l3-3l0.7,0.7L-10.3,52.9z M-10.3,42.9l-0.8,0.7l-0.7-0.7l-2.1-2.1l0.7-0.8l2.2,2.1l3-3l0.7,0.7L-10.3,42.9z"/>
</svg>
