<?xml version="1.0" encoding="utf-8"?>
<!-- Generator: Adobe Illustrator 19.0.0, SVG Export Plug-In . SVG Version: 6.00 Build 0)  -->
<svg version="1.1" id="Layer_1" xmlns="http://www.w3.org/2000/svg" xmlns:xlink="http://www.w3.org/1999/xlink" x="0px" y="0px"
	 viewBox="-21 29.6 56.4 42.4" style="enable-background:new -21 29.6 56.4 42.4;" xml:space="preserve">
<g id="Layer_1_1_">
	<path id="XMLID_13_" d="M33.5,29.6h-52.6c-1.1,0-1.9,0.8-1.9,1.9v29.4c0,1,0.8,1.9,1.9,1.9H2v7.6h-4.9v1.7H2h10.4h4.9v-1.7h-4.9
		v-7.6h21.1c1,0,1.9-0.8,1.9-1.9V31.5C35.4,30.4,34.6,29.6,33.5,29.6z M33.8,60.9h-53.2V31.4h53.2V60.9z"/>
</g>
<g id="Layer_2">
	<path d="M3.1,35.3v12h22.1v-12H3.1z M23.1,41.3H12.6v-2.1h10.5V41.3z M23.1,37.2H12.6v-0.7h10.5V37.2z"/>
	<path d="M-13.3,42.3V57h9.5V42.3H-13.3z M-5.2,50.9h-6.7v-0.4h6.7V50.9z M-5.2,47.7h-6.7v-0.4h6.7V47.7z M-5.2,46.5h-6.7v-3.1h6.7
		V46.5z"/>
</g>
</svg>
