<?xml version="1.0" encoding="utf-8"?>
<!-- Generator: Adobe Illustrator 19.0.0, SVG Export Plug-In . SVG Version: 6.00 Build 0)  -->
<svg version="1.1" id="Layer_1" xmlns="http://www.w3.org/2000/svg" xmlns:xlink="http://www.w3.org/1999/xlink" x="0px" y="0px"
	 viewBox="-30 31.9 37.5 38.1" style="enable-background:new -30 31.9 37.5 38.1;" xml:space="preserve">
<style type="text/css">
	.st0{display:none;}
</style>
<g id="Layer_1_1_" class="st0">
</g>
<path d="M-11.3,33.4c-9.7,0-17.6,7.9-17.6,17.6s7.9,17.6,17.6,17.6S6.3,60.7,6.3,51S-1.6,33.4-11.3,33.4z M-11.3,67.7
	C-20.5,67.7-28,60.2-28,51s7.5-16.7,16.7-16.7S5.4,41.8,5.4,51S-2.1,67.7-11.3,67.7z"/>
<g id="Layer_2">
	<polygon id="XMLID_4_" points="-18.2,55.1 -11.4,59 -11.4,51.1 -18.2,47.1 	"/>
	<polygon id="XMLID_3_" points="-4.4,55.1 -11.1,59 -11.1,51.1 -4.4,47.1 	"/>
	<polygon id="XMLID_7_" points="-11.3,42.9 -18,46.9 -11.3,50.8 -4.5,46.9 	"/>
</g>
<g id="Layer_3">
	<polygon id="XMLID_11_" points="-11.1,35.7 -12.6,37 -11.6,37 -11.6,40.9 -10.6,40.9 -10.6,37 -9.6,37 	"/>
	<polygon id="XMLID_12_" points="-11.4,66.2 -12.9,64.9 -11.9,64.9 -11.9,61 -10.9,61 -10.9,64.9 -9.9,64.9 	"/>
	<polygon id="XMLID_9_" points="-25.5,51 -24.2,52.6 -24.2,51.5 -20.3,51.5 -20.3,50.4 -24.2,50.4 -24.2,49.3 	"/>
	<polygon id="XMLID_10_" points="3,51 1.7,52.6 1.7,51.5 -2.2,51.5 -2.2,50.4 1.7,50.4 1.7,49.3 	"/>
</g>
</svg>
