<?xml version="1.0" encoding="utf-8"?>
<!-- Generator: Adobe Illustrator 19.0.0, SVG Export Plug-In . SVG Version: 6.00 Build 0)  -->
<svg version="1.1" id="Layer_1" xmlns="http://www.w3.org/2000/svg" xmlns:xlink="http://www.w3.org/1999/xlink" x="0px" y="0px"
	 viewBox="0 0 50 50" style="enable-background:new 0 0 50 50;" xml:space="preserve">
<g id="XMLID_6_">
	<g id="post-linkedin">
		<path id="XMLID_7_" d="M45,0H5C2.3,0,0,2.3,0,5v40c0,2.8,2.3,5,5,5h40c2.8,0,5-2.3,5-5V5C50,2.3,47.8,0,45,0z M15,42.5H7.5V20H15
			V42.5z M11.3,15.7c-2.5,0-4.5-2-4.5-4.5s2-4.5,4.5-4.5s4.5,2,4.5,4.5S13.8,15.7,11.3,15.7z M42.5,42.5H35V29.3
			c0-2-1.8-3.8-3.8-3.8s-3.8,1.8-3.8,3.8v13.3H20V20h7.5v3c1.3-2,4-3.5,6.3-3.5c4.8,0,8.8,4,8.8,8.8V42.5z"/>
	</g>
</g>
</svg>
