<?xml version="1.0" encoding="utf-8"?>
<!-- Generator: Adobe Illustrator 19.0.0, SVG Export Plug-In . SVG Version: 6.00 Build 0)  -->
<svg version="1.1" id="Layer_1" xmlns="http://www.w3.org/2000/svg" xmlns:xlink="http://www.w3.org/1999/xlink" x="0px" y="0px"
	 viewBox="0 0 120 120" style="enable-background:new 0 0 120 120;" xml:space="preserve">
<style type="text/css">
	.st0{fill:#8B52A0;}
</style>
<g id="XMLID_3_">
	<path id="XMLID_4_" class="st0" d="M105.4,53.3h-0.8v-8.6c0-3.6-2.9-6.5-6.5-6.5H68.4v-0.8c0-1.4-1.1-2.6-2.6-2.6H54.2
		c-1.4,0-2.6,1.1-2.6,2.6v0.8H21.8c-3.6,0-6.5,2.9-6.5,6.5v8.6h-0.8c-1.4,0-2.6,1.1-2.6,2.6v11.6c0,1.4,1.1,2.6,2.6,2.6h0.8v8.6
		c0,3.6,2.9,6.5,6.5,6.5h29.8c0.8,0,1.5-0.4,1.9-1.1l4.5-9.1c0.5-1.1,1.8-1.5,2.8-1c0.4,0.2,0.8,0.6,1,1l4.3,8.9
		c0.4,0.8,1.1,1.3,2,1.3h30.1c3.6,0,6.5-2.9,6.5-6.5V70h0.8c1.4,0,2.6-1.1,2.6-2.6V55.9C108,54.5,106.9,53.3,105.4,53.3z M39.9,69.3
		c-4.2,0-7.6-3.4-7.7-7.6c0-4.2,3.4-7.6,7.6-7.7c4.2,0,7.6,3.4,7.7,7.6c0,0,0,0,0,0C47.5,65.9,44.1,69.3,39.9,69.3z M80.1,69.3
		c-4.2,0-7.6-3.4-7.7-7.6c0-4.2,3.4-7.6,7.6-7.7c4.2,0,7.6,3.4,7.7,7.6c0,0,0,0,0,0C87.7,65.9,84.3,69.3,80.1,69.3z"/>
</g>
</svg>
