<?xml version="1.0" encoding="utf-8"?>
<!-- Generator: Adobe Illustrator 21.0.2, SVG Export Plug-In . SVG Version: 6.00 Build 0)  -->
<svg version="1.1" id="Layer_1" xmlns="http://www.w3.org/2000/svg" xmlns:xlink="http://www.w3.org/1999/xlink" x="0px" y="0px"
	 viewBox="0 0 81.6 97.2" style="enable-background:new 0 0 81.6 97.2;" xml:space="preserve">
<style type="text/css">
	.st0{fill:#8B52A0;}
</style>
<g id="XMLID_2_">
	<path id="XMLID_9_" class="st0" d="M5.9,31.7c-3.3,0-5.9,2.7-5.9,5.9l0,0v10.1v4.7v10.1l0,0c0,3.3,2.7,5.9,5.9,5.9
		c3.3,0,5.9-2.7,5.9-5.9l0,0V52.4v-4.7V37.6l0,0C11.8,34.3,9.2,31.7,5.9,31.7z"/>
	<path id="XMLID_8_" class="st0" d="M81.6,37.6c0-3.3-2.7-5.9-5.9-5.9c-3.3,0-5.9,2.7-5.9,5.9l0,0v10.1v4.7v10.1l0,0
		c0,3.3,2.7,5.9,5.9,5.9c3.3,0,5.9-2.7,5.9-5.9l0,0V52.4v-4.7V37.6L81.6,37.6z"/>
	<path id="XMLID_7_" class="st0" d="M14.3,32.7H14v39.1c0,3.3,2.7,5.9,5.9,5.9h5v3.5v10.1l0,0c0,3.3,2.7,5.9,5.9,5.9
		s5.9-2.7,5.9-5.9l0,0v-10v-3.6h8.1v3.5v10.1c0,3.3,2.7,5.9,5.9,5.9c3.3,0,5.9-2.7,5.9-5.9v-10v-3.6h5c3.3,0,5.9-2.7,5.9-5.9V32.7
		h-0.1H14.3z"/>
	<path id="XMLID_3_" class="st0" d="M67.6,30.6v-2.9c-0.1-0.8-0.2-1.6-0.4-2.4c-1.5-7-6.3-12.8-13-16.3l4.1-7.6
		c0.3-0.5,0.1-1.1-0.4-1.3c-0.5-0.3-1.1-0.1-1.3,0.4l-4.1,7.7C49,6.7,45,5.8,40.8,5.8s-8.2,0.9-11.7,2.4l-4.2-7.7
		c-0.3-0.5-0.8-0.6-1.3-0.4c-0.5,0.3-0.6,0.8-0.4,1.3L27.3,9c-6.3,3.3-11,8.8-12.7,15.4c-0.4,1.7-0.7,3.5-0.7,5.3c0,0.3,0,0.5,0,0.8
		h53.7V30.6z M53,16.1c1.4,0,2.5,1.1,2.5,2.5s-1.1,2.5-2.5,2.5s-2.5-1.1-2.5-2.5C50.5,17.2,51.6,16.1,53,16.1z M28.6,16.1
		c1.4,0,2.5,1.1,2.5,2.5s-1.1,2.5-2.5,2.5s-2.5-1.1-2.5-2.5C26.1,17.2,27.2,16.1,28.6,16.1z"/>
</g>
</svg>
