<?xml version="1.0" encoding="utf-8"?>
<!-- Generator: Adobe Illustrator 21.0.2, SVG Export Plug-In . SVG Version: 6.00 Build 0)  -->
<svg version="1.1" id="Layer_1" xmlns="http://www.w3.org/2000/svg" xmlns:xlink="http://www.w3.org/1999/xlink" x="0px" y="0px"
	 viewBox="0 0 60.1 17.2" style="enable-background:new 0 0 60.1 17.2;" xml:space="preserve">
<style type="text/css">
	.st0{display:none;}
	.st1{display:inline;}
	.st2{fill:none;stroke:#FFFFFF;stroke-miterlimit:10;}
	.st3{fill:#FFFFFF;}
</style>
<!-- <g id="XMLID_3_" class="st0">
	<g id="XMLID_4_" class="st1">
		<path id="XMLID_1_" class="st2" d="M27.4,21.8c-0.7,0.1-1.4-0.2-2-0.5c-1.4-0.6-3-1.1-4.6-1.4c-0.6-0.1-1.1-0.2-1.7,0
			c-0.5,0.2-0.8,0.6-1.1,1.1c-1.7,2.3-3.2,4.7-4.4,7.3C12.8,30.1,12,32,12.3,34c0.3,1.9,1.7,3.6,3.4,4.5c1.8,0.9,3.8,1.2,5.7,1
			c3.9-0.4,7.5-2.5,10.6-4.9c8.8-7,14.6-17.3,17.6-28.2c1.3-4.6,2.1-9.4,1.5-14.1c-0.6-4.5-4.7-15.2-11.1-12.7
			c-1.4,0.6-2.5,1.7-3.5,2.9c-2,2.4-3.5,5.3-4.5,8.3c-0.6,1.8-0.8,4,0.4,5.4c1.4,1.7,4.3,1.6,5.3,3.5c0.6,1,0.4,2.3,0.1,3.4
			c-1.4,6.5-4.4,12.5-8.7,17.6C28.6,21.2,28.1,21.7,27.4,21.8C27.5,21.9,27.4,21.9,27.4,21.8z"/>
	</g>
</g> -->
<g>
	<path class="st3" d="M36.2,5c-0.2,0-0.4,0.1-0.6,0.1c-0.2,0.1-0.5,0.2-0.8,0.3c-0.3,0.1-0.5,0.3-0.7,0.6c-0.2,0.2-0.4,0.5-0.5,0.9
		c-0.1,0.4-0.2,0.8-0.2,1.3v0.7h6.4v-4h-3.2C36.5,5,36.3,5,36.2,5z"/>
	<path class="st3" d="M57.6,9c-0.2-1.7-0.5-3.4-0.8-5.1c-0.2-1.3-1-2.1-2.2-2.5c-1.7-0.5-3.4-1-5.1-1.1C47,0.1,44.7,0,42.1,0
		C38.5,0.1,35,0.2,31.5,1.2c-1.6,0.5-2.5,1.4-2.8,3c-0.2,1-0.4,2-0.5,3.1c-0.2,1.7-0.4,3.3-0.5,5c-0.1,1,0.4,1.9,1.3,2.4
		c1.2,0.7,2.4,1.3,3.7,1.9c1,0.5,2.2,0.7,3.3,0.5c0.6-0.1,1.3-0.2,1.9-0.3c1.8-0.3,3.6-0.8,5.5-0.6c1.6,0.2,3.3,0.5,4.9,0.7
		c1,0.2,2,0.4,3,0.2c2.1-0.4,3.9-1.4,5.6-2.6c0.7-0.5,1-1.2,1-2C57.8,11.3,57.7,10.1,57.6,9z M41.6,13.3h-1.8v-2.5h-6.4v2.5h-1.8
		V8.2c0-0.7,0.1-1.4,0.4-2s0.6-1.2,1.1-1.6c0.5-0.4,1-0.8,1.6-1s1.3-0.4,2-0.4h4.1c0.1,0,0.2,0,0.4,0.1c0.1,0,0.2,0.1,0.3,0.2
		s0.2,0.2,0.2,0.3c0,0.1,0.1,0.2,0.1,0.4v9.1H41.6z M51.4,13.3L47.6,10h-1.3V8.2h4.1c0.2,0,0.4-0.1,0.6-0.1c0.2-0.1,0.4-0.2,0.5-0.3
		s0.2-0.3,0.3-0.5s0.1-0.4,0.1-0.6V5.4c0-0.1,0-0.2,0-0.2c0-0.1-0.1-0.1-0.1-0.1h-0.1h-0.1h-6v8.3h-1.8V4.2c0-0.1,0-0.2,0.1-0.4
		c0-0.1,0.1-0.2,0.2-0.3c0.1-0.1,0.2-0.2,0.3-0.2s0.2-0.1,0.4-0.1h7c0.4,0,0.8,0.1,1,0.2c0.3,0.1,0.5,0.3,0.7,0.6
		c0.2,0.2,0.3,0.5,0.4,0.7C54,5,54,5.2,54,5.4v1.2c0,0.4-0.1,0.8-0.2,1.1c-0.1,0.3-0.2,0.6-0.4,0.9c-0.2,0.3-0.4,0.5-0.6,0.6
		c-0.2,0.2-0.5,0.3-0.7,0.4c-0.3,0.1-0.5,0.2-0.8,0.3S50.8,10,50.6,10l3.8,3.3C54.4,13.3,51.4,13.3,51.4,13.3z"/>
	<path class="st3" d="M26.5,3.2c-0.6,0-1,0.4-1,1c0,1.8,0,3.6,0,5.4c0,0.5,0.2,0.8,0.6,1s0.5,0.1,0.5-0.3c0.3-2.4,0.6-4.7,0.9-7.1
		c0,0,0,0-0.1,0C27.2,3.2,26.8,3.2,26.5,3.2z"/>
	<path class="st3" d="M60,4.2c0-0.5-0.4-0.9-0.8-1c-0.5,0-0.9,0-1.3,0c0.3,2.3,0.6,4.6,0.9,6.9c0,0.2,0.1,0.4,0.1,0.6
		c0.2-0.1,0.5-0.1,0.7-0.3s0.3-0.5,0.3-0.7C60.1,7.9,60.1,6.1,60,4.2z"/>
	<path class="st3" d="M10.4,9.8L7.5,5.2C7.4,5.1,7.3,5,7.2,4.9C7.1,4.8,6.9,4.8,6.8,4.8c-0.2,0-0.3,0-0.4,0.1C6.3,5,6.2,5.1,6.1,5.2
		L3.2,9.8L2,3.1H0l1.7,9.5c0,0.2,0.1,0.4,0.3,0.5s0.4,0.3,0.6,0.3c0.2,0,0.3,0,0.4-0.1s0.2-0.2,0.3-0.3l3.4-5.5l3.4,5.5
		c0.1,0.2,0.2,0.3,0.4,0.4c0.2,0,0.4,0,0.6,0c0.2,0,0.3-0.1,0.5-0.3c0.1-0.1,0.2-0.3,0.3-0.5l1.7-9.5h-1.9L10.4,9.8z"/>
	<path class="st3" d="M15.6,3.2c-0.1,0-0.2,0.1-0.3,0.2s-0.1,0.2-0.2,0.3c0,0.1-0.1,0.2-0.1,0.4v6.6c0,0.5,0.1,0.9,0.3,1.2
		s0.4,0.6,0.6,0.8c0.3,0.2,0.5,0.4,0.8,0.4c0.3,0.1,0.6,0.1,0.8,0.1h6.6v-1.8h-6.6c-0.2,0-0.4-0.1-0.6-0.2c-0.1-0.1-0.2-0.3-0.2-0.5
		V5H24V3.2h-8C15.8,3.2,15.7,3.2,15.6,3.2z"/>
	<rect x="17.6" y="7.3" class="st3" width="5.8" height="1.8"/>
</g>
</svg>
