<?xml version="1.0" encoding="utf-8"?>
<!-- Generator: Adobe Illustrator 19.0.0, SVG Export Plug-In . SVG Version: 6.00 Build 0)  -->
<svg version="1.1" id="Слой_1" xmlns="http://www.w3.org/2000/svg" xmlns:xlink="http://www.w3.org/1999/xlink" x="0px" y="0px"
	 viewBox="631.7 -208.1 665.4 191.3" style="enable-background:new 631.7 -208.1 665.4 191.3;" xml:space="preserve">
<style type="text/css">
	.st0{fill:#7B42C7;}
</style>
<g>
	<path class="st0" d="M1032.1-152.1c-2,0.2-4.3,0.6-7,1.4c-2.6,0.7-5.4,1.8-8.3,3.4c-2.9,1.5-5.6,3.6-8,6.3c-2.4,2.7-4.5,6-6.1,10
		s-2.4,8.8-2.4,14.5v8.2h71.4v-43.9H1036C1035.4-152.4,1034.1-152.3,1032.1-152.1z"/>
	<path class="st0" d="M1269.8-108.5c-2.4-18.8-5.3-37.6-8.7-56.2c-2.5-14-10.9-23.8-24.6-28.3c-18.4-6-37.2-10.6-56.5-11.9
		c-27.5-1.9-53.7-3.2-82.4-3.2c-39.7,1.4-79.3,1.9-117.8,13.2c-17.7,5.2-28.2,15.7-31.2,33.8c-1.9,11.4-4.1,22.7-5.4,34.1
		c-2.1,18.5-3.9,37.1-5.4,55.7c-0.9,11.5,4,20.8,14.1,26.4c13.4,7.6,26.9,15,40.8,21.5c11.6,5.5,24.1,7.7,37,6
		c7.1-0.9,14.1-2.1,21.1-3.3c20.1-3.5,40.2-8.9,60.7-6.9c18.2,1.7,36.2,5.2,54.3,8c11.1,1.7,22.1,4.1,33.3,1.8
		c23.1-4.8,43.5-15.7,62.6-29.2c7.7-5.5,11.5-13.4,11-22.7C1272.2-82.7,1271.4-95.7,1269.8-108.5z M1092-60.7h-20.3v-27.5h-71.4
		v27.5H980v-56c0-8.2,1.4-15.7,4.2-22.6s6.7-12.8,11.7-17.7c5-4.9,10.9-8.8,17.7-11.6c6.8-2.8,14.3-4.1,22.3-4.1h45.8
		c1.4,0,2.7,0.3,4,0.8c1.3,0.5,2.3,1.3,3.3,2.2s1.7,2,2.2,3.3s0.8,2.6,0.8,4V-60.7z M1201-60.7l-42.3-36.6h-14.6v-20.3h45.9
		c2.6-0.2,4.9-0.7,7-1.6s3.9-2,5.5-3.5c1.5-1.5,2.7-3.2,3.6-5.3c0.8-2.1,1.3-4.4,1.3-7.1v-12.8c0-1.1-0.1-2-0.4-2.6s-0.7-1-1.1-1.3
		c-0.4-0.3-0.9-0.5-1.4-0.5c-0.5-0.1-1-0.1-1.4-0.1h-67v91.7h-20.3v-101.8c0-1.4,0.3-2.7,0.8-4s1.2-2.3,2.1-3.3
		c0.9-0.9,2-1.7,3.2-2.2c1.3-0.5,2.6-0.8,4.1-0.8h77c4.5,0,8.4,0.8,11.5,2.5s5.7,3.7,7.6,6.2c2,2.5,3.4,5.1,4.2,8
		c0.9,2.9,1.3,5.5,1.3,8v13c0,4.6-0.6,8.8-1.7,12.4c-1.1,3.6-2.7,6.9-4.6,9.6c-2,2.8-4.2,5.2-6.8,7.1c-2.6,2-5.2,3.6-8,4.9
		s-5.6,2.2-8.4,2.8c-2.8,0.6-5.5,0.9-8,0.9l42.4,36.6L1201-60.7L1201-60.7z"/>
	<path class="st0" d="M925.1-172.3c-6.6,0.3-11.4,4.9-11.4,11.5c-0.1,20.1-0.1,40.3,0,60.4c0,5,2.7,8.6,7.2,10.7
		c4.2,1.9,5.4,1.1,6-3.4c3.4-26.2,6.9-52.4,10.5-79c0.2,0-0.4-0.2-1-0.2C932.5-172.4,928.8-172.5,925.1-172.3z"/>
	<path class="st0" d="M1297-161c0-5.6-4-10.5-9.2-11c-5.1-0.5-10.3-0.1-14.6-0.1c3.5,25.7,7,51.2,10.5,76.8c0.3,2.1,1,4.2,1.5,6.3
		c2.7-1,5.9-1.3,7.8-3.1c2-2,3.8-5.3,3.8-8C1297.2-120.4,1297.1-140.7,1297-161z"/>
</g>
<g>
	<path class="st0" d="M781-172.7l-18.8,105c-0.4,2.1-1.4,3.9-2.8,5.4c-1.5,1.5-3.2,2.5-5.3,2.9c-2.1,0.4-4.2,0.1-6.1-0.7
		c-1.9-0.8-3.4-2.1-4.5-3.9l-37.2-61.1L669.1-64c-0.9,1.5-2.1,2.7-3.6,3.5s-3.2,1.3-5,1.3c-2.4,0-4.6-0.8-6.5-2.3s-3-3.6-3.4-6.1
		l-18.9-105h20.6l13.4,74l32-51.1c0.9-1.5,2.1-2.7,3.6-3.5s3.2-1.3,5-1.3c1.8,0,3.4,0.4,4.9,1.3c1.5,0.8,2.8,2,3.8,3.5l31.9,51.1
		l13.4-74H781V-172.7z"/>
	<path class="st0" d="M899.6-60.7h-73.3c-2.8,0-5.9-0.5-9.2-1.5c-3.3-1-6.4-2.6-9.3-4.9c-2.8-2.3-5.2-5.2-7.1-8.8
		c-1.9-3.6-2.9-8.1-2.9-13.3v-73.3c0-1.4,0.3-2.7,0.8-4s1.2-2.3,2.1-3.3c0.9-0.9,2-1.7,3.2-2.2c1.3-0.5,2.6-0.8,4.1-0.8h91.5v20.3
		h-81.4v63.2c0,2.7,0.7,4.7,2.1,6.1s3.5,2.1,6.2,2.1h73.1L899.6-60.7L899.6-60.7z M890.4-106.5h-64.1V-127h64.1V-106.5z"/>
</g>
</svg>
