<?xml version="1.0" encoding="utf-8"?>
<!-- Generator: Adobe Illustrator 19.0.1, SVG Export Plug-In . SVG Version: 6.00 Build 0)  -->
<svg version="1.1" id="Слой_1" xmlns="http://www.w3.org/2000/svg" xmlns:xlink="http://www.w3.org/1999/xlink" x="0px" y="0px"
	 viewBox="0 0 381.3 232.2" style="enable-background:new 0 0 381.3 232.2;" xml:space="preserve">
<style type="text/css">
	.st0{fill:#7B42C7;}
	.st1{fill:none;stroke:#7B42C7;stroke-miterlimit:10;}
	.st2{fill:#FFFFFF;}
	.st3{fill:none;}
	.st4{fill:none;stroke:#7B42C7;stroke-width:0.75;stroke-miterlimit:10;}
</style>
<g>
	<polygon class="st0" points="217.9,76.2 217.9,79.5 211.6,79.5 211.6,73.9 202,73.9 202,83.5 206.2,83.5 206.2,93.1 219.8,93.1 
		219.8,81.2 222.9,81.2 222.9,76.2 	"/>
	<rect x="204" y="94.4" class="st0" width="4.4" height="4.4"/>
	<rect x="219.4" y="94.4" class="st0" width="1.5" height="1.5"/>
</g>
<path class="st0" d="M43,98.7v-2.2c0-0.2,0.2-0.4,0.4-0.4h3.9l-1.7,2.9h-2.2C43.2,99.1,43,98.9,43,98.7z M45.8,103.2l-1.2,0.8
	c-0.2,0.1-0.3,0-0.3-0.2l0.2-1.4c0-0.2,0.2-0.3,0.4-0.2l1,0.5C45.9,102.9,45.9,103.1,45.8,103.2z M46,102.4l-1-0.5
	c-0.2-0.1-0.2-0.3-0.1-0.5l4.4-7.7c0.1-0.2,0.3-0.2,0.5-0.1l1,0.5c0.2,0.1,0.2,0.3,0.1,0.5l-4.4,7.7C46.5,102.4,46.2,102.5,46,102.4
	z M49.4,99.1l1.7-2.9h1l1.4,2.9H49.4z M54.9,100c-0.4-0.2-2.3-4.6-2.8-5.7c-0.5-1.1-2-4.2-1.5-4.4c0.3-0.2,1.6,2.2,2.5,3.7
	c0.9,1.4,2.8,5.1,3.1,5.6c0.2,0.4-0.2,0.8-0.5,0.9C55.4,100,55.3,100.1,54.9,100z M56.2,102l-0.6-0.9c-0.1-0.2-0.1-0.4,0.1-0.5
	l0.5-0.3c0.2-0.1,0.4,0,0.5,0.2l0.5,0.9c0.1,0.2,0,0.4-0.2,0.6l-0.4,0.2C56.5,102.2,56.3,102.2,56.2,102z M58.3,104.3
	c-0.1-0.4-1-0.4-1.5-1c-0.4-0.6-0.1-0.9,0.1-1C58.6,101.4,58.3,104.3,58.3,104.3z M59.1,98.7c0,0.2-0.2,0.4-0.4,0.4h-1.9
	c0-0.1-0.1-0.2-0.1-0.3c-0.1-0.1-0.2-0.3-0.4-0.7c-0.3-0.5-0.6-1.2-1-1.9h3.4c0.2,0,0.4,0.2,0.4,0.4L59.1,98.7L59.1,98.7z"/>
<g>
	<path class="st0" d="M53,143.9c-1.4,1.8-2.8,3.5-4.2,5.2c-1.8,2.2-3.5,4.4-5.3,6.5c-0.5,0.6-1.2,0.8-2,0.7c-0.8-0.2-1-0.8-1.1-1.5
		c0-0.3-0.1-0.6-0.1-0.9c0-6.7,0-13.4,0-20.1c0-0.5,0.1-1,0.2-1.5c0.2-0.8,0.8-1.1,1.6-0.9c0.6,0.1,1.1,0.3,1.5,0.8
		c3,3.7,6,7.4,9,11.1C52.7,143.6,52.8,143.7,53,143.9z"/>
	<path class="st0" d="M57.9,147.7c-1-1.3-2.1-2.5-3.1-3.8c1-1.3,2-2.5,3.1-3.8c0.4,0.2,0.8,0.5,1.2,0.7c0.9,0.5,1.7,1,2.6,1.5
		c1.4,0.9,1.4,2.2,0.1,3.1c-0.2,0.1-0.4,0.3-0.6,0.4C60.1,146.5,59,147.1,57.9,147.7z"/>
	<path class="st0" d="M56.5,139.6c-1,1.2-1.9,2.4-2.9,3.6c-2.6-3.3-5.3-6.5-7.9-9.7c0,0,0-0.1,0.1-0.1
		C49.3,135.5,52.9,137.5,56.5,139.6z"/>
	<path class="st0" d="M53.6,144.6c1,1.2,1.9,2.4,2.9,3.6c-3.6,2.1-7.2,4.2-10.7,6.3c0,0,0-0.1-0.1-0.1
		C48.3,151.2,50.9,147.9,53.6,144.6z"/>
</g>
<circle class="st1" cx="50.8" cy="98.1" r="11.7"/>
<path class="st0" d="M137.3,121.1c0,0.4,0.3,0.8,0.8,0.8h16.3l-6.6,6.6c-0.2,0.2-0.2,0.3-0.2,0.5c0,0.2,0.1,0.4,0.2,0.5
	c0.3,0.3,0.8,0.3,1.1,0l7.8-7.8c0.3-0.3,0.3-0.8,0-1.1l-7.8-7.8c-0.3-0.3-0.8-0.3-1.1,0c-0.3,0.3-0.3,0.8,0,1.1l6.6,6.4l-16.3,0
	C137.7,120.3,137.3,120.7,137.3,121.1z"/>
<g>
	<circle class="st2" cx="110.7" cy="151.9" r="2.8"/>
	<g>
		<circle class="st3" cx="110.7" cy="151.9" r="2.8"/>
		<path class="st3" d="M110,136.4c0.3,0.3,0.8,0.3,1.1,0l7.8-7.8c0.3-0.3,0.3-0.8,0-1.1c-0.3-0.3-0.8-0.3-1.1,0l-6.4,6.6l0-16.3
			c0-0.4-0.3-0.8-0.8-0.8s-0.8,0.3-0.8,0.8v16.3l-6.6-6.6c-0.2-0.2-0.3-0.2-0.5-0.2s-0.4,0.1-0.5,0.2c-0.3,0.3-0.3,0.8,0,1.1
			L110,136.4z"/>
		<path class="st3" d="M118.5,138.4h-15.7c-0.4,0-0.7,0.3-0.7,0.7s0.3,0.7,0.7,0.7h15.7c0.4,0,0.7-0.3,0.7-0.7
			S118.8,138.4,118.5,138.4z"/>
		<path class="st0" d="M123.7,86.4H97.4c-2.2,0-4,1.8-4,4V152c0,2.2,1.8,4,4,4h26.3c2.2,0,4-1.8,4-4V90.4
			C127.7,88.2,125.9,86.4,123.7,86.4z M106.8,89.5h7.8c0.2,0,0.4,0.2,0.4,0.4s-0.2,0.4-0.4,0.4h-7.8c-0.2,0-0.4-0.2-0.4-0.4
			S106.6,89.5,106.8,89.5z M110.7,154.7c-1.5,0-2.8-1.2-2.8-2.8c0-1.5,1.2-2.8,2.8-2.8s2.8,1.2,2.8,2.8
			C113.4,153.5,112.2,154.7,110.7,154.7z M126.8,147.6H94.2V94.1h32.6V147.6z"/>
		<path class="st2" d="M94.2,147.6h32.6V94.1H94.2V147.6z M118.5,139.7h-15.7c-0.4,0-0.7-0.3-0.7-0.7s0.3-0.7,0.7-0.7h15.7
			c0.4,0,0.7,0.3,0.7,0.7S118.8,139.7,118.5,139.7z M102.2,127.5c0.2-0.2,0.3-0.2,0.5-0.2s0.4,0.1,0.5,0.2l6.6,6.6v-16.3
			c0-0.4,0.3-0.8,0.8-0.8s0.8,0.3,0.8,0.8l0,16.3l6.4-6.6c0.3-0.3,0.8-0.3,1.1,0c0.3,0.3,0.3,0.8,0,1.1l-7.8,7.8
			c-0.3,0.3-0.8,0.3-1.1,0l-7.8-7.8C101.9,128.3,101.9,127.8,102.2,127.5z"/>
		<path class="st2" d="M106.8,90.4h7.8c0.2,0,0.4-0.2,0.4-0.4s-0.2-0.4-0.4-0.4h-7.8c-0.2,0-0.4,0.2-0.4,0.4S106.6,90.4,106.8,90.4z
			"/>
	</g>
	<path class="st0" d="M110,136.4c0.3,0.3,0.8,0.3,1.1,0l7.8-7.8c0.3-0.3,0.3-0.8,0-1.1c-0.3-0.3-0.8-0.3-1.1,0l-6.4,6.6l0-16.3
		c0-0.4-0.3-0.8-0.8-0.8s-0.8,0.3-0.8,0.8v16.3l-6.6-6.6c-0.2-0.2-0.3-0.2-0.5-0.2s-0.4,0.1-0.5,0.2c-0.3,0.3-0.3,0.8,0,1.1
		L110,136.4z"/>
	<path class="st0" d="M118.5,138.4h-15.7c-0.4,0-0.7,0.3-0.7,0.7s0.3,0.7,0.7,0.7h15.7c0.4,0,0.7-0.3,0.7-0.7
		S118.8,138.4,118.5,138.4z"/>
</g>
<path class="st0" d="M84.7,135.4l-14.6,5.9c-0.3,0.1-0.7,0-0.9-0.4v0c-0.1-0.3,0-0.7,0.4-0.9l14.6-5.9c0.3-0.1,0.7,0,0.9,0.4l0,0
	C85.2,134.9,85.1,135.3,84.7,135.4z"/>
<path class="st0" d="M84.7,108.1l-14.6-5.9c-0.3-0.1-0.7,0-0.9,0.4l0,0c-0.1,0.3,0,0.7,0.4,0.9l14.6,5.9c0.3,0.1,0.7,0,0.9-0.4l0,0
	C85.2,108.7,85.1,108.3,84.7,108.1z"/>
<path class="st0" d="M197.5,156h-26.3c-2.2,0-4-1.8-4-4V90.4c0-2.2,1.8-4,4-4h26.3c2.2,0,4,1.8,4,4V152
	C201.5,154.2,199.7,156,197.5,156z"/>
<rect x="168.1" y="94.1" class="st2" width="32.6" height="53.4"/>
<circle class="st2" cx="184.5" cy="151.9" r="2.8"/>
<path class="st2" d="M188.5,90.4h-7.8c-0.2,0-0.4-0.2-0.4-0.4l0,0c0-0.2,0.2-0.4,0.4-0.4h7.8c0.2,0,0.4,0.2,0.4,0.4l0,0
	C188.9,90.2,188.7,90.4,188.5,90.4z"/>
<g>
	<polygon class="st0" points="189.3,112.2 189.3,114.8 184.3,114.8 184.3,110.3 176.5,110.3 176.5,118.1 179.8,118.1 179.8,125.8 
		190.8,125.8 190.8,116.2 193.3,116.2 193.3,112.2 	"/>
	<rect x="178.1" y="126.9" class="st0" width="3.6" height="3.6"/>
	<rect x="190.5" y="126.9" class="st0" width="1.3" height="1.3"/>
</g>
<path class="st0" d="M212.5,121.1c0,0.4,0.3,0.8,0.8,0.8h16.3l-6.6,6.6c-0.2,0.2-0.2,0.3-0.2,0.5c0,0.2,0.1,0.4,0.2,0.5
	c0.3,0.3,0.8,0.3,1.1,0l7.8-7.8c0.3-0.3,0.3-0.8,0-1.1l-7.8-7.8c-0.3-0.3-0.8-0.3-1.1,0c-0.3,0.3-0.3,0.8,0,1.1l6.6,6.4l-16.3,0
	C212.8,120.3,212.5,120.7,212.5,121.1z"/>
<g>
	<path class="st3" d="M241.8,134.9c-0.5-1.4-2.1-2.1-3.5-1.6c-1.4,0.5-2.1,2.1-1.6,3.5c0.5,1.4,2.1,2.1,3.5,1.6
		C241.6,137.9,242.3,136.3,241.8,134.9C241.8,134.9,241.8,134.9,241.8,134.9z"/>
	<path class="st0" d="M273.6,86.4h-26.3c-2.2,0-4,1.8-4,4v35.2l0.8-0.3V94.1h32.6v53.4h-32.6v-4.7l-0.8,0.3v8.8c0,2.2,1.8,4,4,4
		h26.3c2.2,0,4-1.8,4-4V90.4C277.6,88.2,275.8,86.4,273.6,86.4z M264.6,90.4h-7.8c-0.2,0-0.4-0.2-0.4-0.4s0.2-0.4,0.4-0.4h7.8
		c0.2,0,0.4,0.2,0.4,0.4S264.8,90.4,264.6,90.4z M260.6,154.7c-1.5,0-2.8-1.2-2.8-2.8c0-1.5,1.2-2.8,2.8-2.8s2.8,1.2,2.8,2.8
		C263.4,153.5,262.2,154.7,260.6,154.7z"/>
	<path class="st2" d="M258.9,122.4l4.1,11.3c0.4,1.2-0.2,2.5-1.4,2.9l-10.1,3.6c-0.3,0.1-0.6,0-0.8-0.2l-2.5-2.5
		c-0.1-0.1-0.3-0.2-0.4-0.2c-0.4,0-0.8,0.3-0.8,0.7l-0.4,3.6c0,0.3-0.2,0.5-0.5,0.6l-1.8,0.7v4.7h32.6V94.1h-32.6v31.1l11.7-4.2
		C257.1,120.6,258.4,121.2,258.9,122.4z"/>
	<path class="st2" d="M253.6,133.5c1.4-0.5,2.1-2.1,1.6-3.5c0,0,0,0,0,0c-0.5-1.4-2.1-2.1-3.5-1.6c-1.4,0.5-2.1,2.1-1.6,3.5
		C250.7,133.3,252.2,134.1,253.6,133.5z"/>
	<circle class="st2" cx="260.6" cy="151.9" r="2.8"/>
	<path class="st2" d="M264.6,89.5h-7.8c-0.2,0-0.4,0.2-0.4,0.4s0.2,0.4,0.4,0.4h7.8c0.2,0,0.4-0.2,0.4-0.4S264.8,89.5,264.6,89.5z"
		/>
	<polygon class="st0" points="244.2,125.2 243.4,125.5 243.4,143.2 244.2,142.9 	"/>
	<path class="st0" d="M246,142.3c0.3-0.1,0.5-0.3,0.5-0.6l0.4-3.6c0-0.4,0.4-0.7,0.8-0.7c0.2,0,0.3,0.1,0.4,0.2l2.5,2.5
		c0.2,0.2,0.5,0.3,0.8,0.2l10.1-3.6c1.2-0.4,1.8-1.8,1.4-2.9l-4.1-11.3c-0.4-1.2-1.8-1.8-3-1.4l-11.7,4.2v17.7L246,142.3z
		 M251.8,128.5c1.4-0.5,3,0.2,3.5,1.6c0,0,0,0,0,0c0.5,1.4-0.2,2.9-1.6,3.5c-1.4,0.5-3-0.2-3.5-1.6
		C249.6,130.5,250.4,129,251.8,128.5z"/>
</g>
<path class="st0" d="M312.6,100.1l-24.3-4.2c-1.1-0.2-2.2,0.6-2.4,1.7l-1.9,10.8c-0.2,1.1,0.6,2.2,1.7,2.4l9.5,1.7
	c0.3,0,0.5,0,0.7-0.3l1.9-2.6c0.2-0.3,0.7-0.4,1-0.2c0.1,0.1,0.2,0.2,0.3,0.4l0.9,3.1c0.1,0.3,0.3,0.5,0.6,0.5l9.6,1.7
	c1.1,0.2,2.2-0.6,2.4-1.7l1.9-10.8C314.6,101.4,313.8,100.3,312.6,100.1z M292.4,106.8c-1.3-0.2-2.2-1.5-2-2.8s1.5-2.2,2.8-2
	c1.3,0.2,2.2,1.5,2,2.8c0,0,0,0,0,0C295,106.1,293.7,107,292.4,106.8z M305.2,109c-1.3-0.2-2.2-1.5-2-2.8c0.2-1.3,1.5-2.2,2.8-2
	c1.3,0.2,2.2,1.5,2,2.8c0,0,0,0,0,0C307.8,108.3,306.5,109.2,305.2,109z"/>
<rect x="338" y="104" transform="matrix(0.9648 -0.2629 0.2629 0.9648 -16.5033 93.8801)" class="st0" width="9.2" height="9.2"/>
<rect x="323" y="108.6" transform="matrix(0.9284 0.3716 -0.3716 0.9284 65.2573 -113.4416)" class="st4" width="8" height="8"/>
<circle class="st4" cx="110.7" cy="42.7" r="8.3"/>
<g>
	<path class="st0" d="M111.5,46.7h-0.7V39l-2.3,0.9v-0.7l2.9-1.1h0.1V46.7z"/>
</g>
<circle class="st4" cx="184.9" cy="200" r="8.3"/>
<circle class="st4" cx="260.5" cy="42.4" r="8.3"/>
<g>
	<path class="st0" d="M187.8,204h-5.3v-0.5l2.9-3.3c0.5-0.6,0.8-1,1-1.4s0.3-0.7,0.3-1.1c0-0.5-0.2-1-0.5-1.3s-0.8-0.5-1.3-0.5
		c-0.6,0-1,0.2-1.4,0.6s-0.5,0.8-0.5,1.4h-0.7c0-0.5,0.1-0.9,0.3-1.3s0.5-0.7,0.9-0.9s0.9-0.3,1.4-0.3c0.8,0,1.4,0.2,1.8,0.6
		s0.7,1,0.7,1.7c0,0.4-0.1,0.8-0.4,1.3s-0.7,1.1-1.3,1.8l-2.4,2.7h4.5V204z"/>
</g>
<g>
	<path class="st0" d="M259.6,42.1h0.7c0.4,0,0.8-0.1,1.1-0.2s0.5-0.3,0.7-0.6s0.2-0.5,0.2-0.9c0-0.5-0.2-1-0.5-1.3s-0.8-0.5-1.3-0.5
		c-0.5,0-1,0.2-1.3,0.5s-0.5,0.7-0.5,1.3h-0.7c0-0.4,0.1-0.8,0.3-1.2s0.5-0.6,0.9-0.8s0.8-0.3,1.3-0.3c0.8,0,1.4,0.2,1.8,0.6
		s0.7,1,0.7,1.7c0,0.4-0.1,0.8-0.4,1.1s-0.6,0.6-1.1,0.8c0.5,0.1,0.9,0.4,1.2,0.8s0.4,0.8,0.4,1.3c0,0.7-0.2,1.3-0.7,1.8
		s-1.1,0.7-1.9,0.7c-0.5,0-1-0.1-1.4-0.3s-0.8-0.5-1-0.9s-0.3-0.8-0.3-1.3h0.7c0,0.5,0.2,1,0.6,1.3s0.9,0.5,1.5,0.5
		c0.6,0,1.1-0.2,1.4-0.5s0.5-0.8,0.5-1.4c0-0.6-0.2-1-0.5-1.3s-0.9-0.5-1.6-0.5h-0.7V42.1z"/>
</g>
<path class="st0" d="M303.6,134.3l6.1-1.6l-2.9,4.3l1.8-0.5l6.8-5.3l5-1.4l0.3-0.1c2.4-0.7,3.5-1.9,3.2-3c-0.2-0.9-1.6-1-2.6-0.9
	c0,0-0.4-0.3-0.7-0.2c-0.1,0-2.4,0.6-5.2,1.4l-10.3-4.6l-1.8,0.5l6,5.8c-2.4,0.7-4.2,1.2-4.2,1.2l-5.3-2l-1.9,0.6L303.6,134.3z"/>
<g>
	<path d="M80.3,59.9c-0.1,0.5-0.2,0.9-0.6,1.2c-0.3,0.3-0.7,0.4-1.3,0.4c-0.4,0-0.7-0.1-1-0.3c-0.3-0.2-0.5-0.4-0.7-0.8
		c-0.2-0.3-0.2-0.7-0.2-1.2v-0.6c0-0.4,0.1-0.8,0.2-1.2s0.4-0.6,0.7-0.8c0.3-0.2,0.6-0.3,1-0.3c0.5,0,1,0.1,1.3,0.4
		c0.3,0.3,0.5,0.7,0.5,1.2h-0.4c-0.1-0.8-0.6-1.3-1.4-1.3c-0.5,0-0.8,0.2-1.1,0.5C77.1,57.6,77,58,77,58.6v0.6c0,0.6,0.1,1,0.4,1.4
		c0.3,0.3,0.6,0.5,1.1,0.5c0.4,0,0.8-0.1,1-0.3c0.2-0.2,0.4-0.5,0.4-0.9H80.3z"/>
	<path d="M82.2,59.7h-0.6v1.7h-0.4v-3.7h0.4v1.6h0.6l1.4-1.6h0.5l-1.5,1.8l1.7,1.9h-0.5L82.2,59.7z"/>
	<path d="M87.2,61.4c0-0.1-0.1-0.3-0.1-0.5c-0.1,0.2-0.3,0.3-0.5,0.4c-0.2,0.1-0.5,0.2-0.7,0.2c-0.4,0-0.6-0.1-0.9-0.3
		c-0.2-0.2-0.3-0.4-0.3-0.8c0-0.4,0.1-0.6,0.4-0.9c0.3-0.2,0.7-0.3,1.3-0.3h0.7v-0.4c0-0.3-0.1-0.5-0.2-0.6
		c-0.2-0.2-0.4-0.2-0.7-0.2c-0.3,0-0.5,0.1-0.7,0.2s-0.3,0.3-0.3,0.5l-0.4,0c0-0.3,0.1-0.5,0.4-0.8c0.3-0.2,0.6-0.3,1-0.3
		c0.4,0,0.7,0.1,1,0.3c0.2,0.2,0.4,0.5,0.4,0.9v1.8c0,0.4,0,0.6,0.1,0.8v0H87.2z M85.9,61.1c0.3,0,0.5-0.1,0.7-0.2
		c0.2-0.1,0.4-0.3,0.5-0.5v-0.8h-0.7c-0.4,0-0.7,0.1-1,0.2c-0.2,0.1-0.3,0.3-0.3,0.6c0,0.2,0.1,0.4,0.2,0.5
		C85.4,61.1,85.6,61.1,85.9,61.1z"/>
	<path d="M91.2,61.4h-0.4v-1.6c-0.3,0.1-0.7,0.2-1,0.2c-0.5,0-0.8-0.1-1.1-0.3c-0.2-0.2-0.3-0.6-0.3-1v-1h0.4v1
		c0,0.4,0.1,0.6,0.2,0.8c0.2,0.2,0.4,0.2,0.8,0.2c0.3,0,0.7-0.1,1-0.2v-1.8h0.4V61.4z"/>
	<path d="M94.6,61.4c0-0.1-0.1-0.3-0.1-0.5c-0.1,0.2-0.3,0.3-0.5,0.4c-0.2,0.1-0.5,0.2-0.7,0.2c-0.4,0-0.6-0.1-0.9-0.3
		c-0.2-0.2-0.3-0.4-0.3-0.8c0-0.4,0.1-0.6,0.4-0.9c0.3-0.2,0.7-0.3,1.3-0.3h0.7v-0.4c0-0.3-0.1-0.5-0.2-0.6
		c-0.2-0.2-0.4-0.2-0.7-0.2c-0.3,0-0.5,0.1-0.7,0.2s-0.3,0.3-0.3,0.5l-0.4,0c0-0.3,0.1-0.5,0.4-0.8c0.3-0.2,0.6-0.3,1-0.3
		c0.4,0,0.7,0.1,1,0.3c0.2,0.2,0.4,0.5,0.4,0.9v1.8c0,0.4,0,0.6,0.1,0.8v0H94.6z M93.3,61.1c0.3,0,0.5-0.1,0.7-0.2
		c0.2-0.1,0.4-0.3,0.5-0.5v-0.8h-0.7c-0.4,0-0.7,0.1-1,0.2c-0.2,0.1-0.3,0.3-0.3,0.6c0,0.2,0.1,0.4,0.2,0.5
		C92.9,61.1,93.1,61.1,93.3,61.1z"/>
	<path d="M98.6,58.1h-1.3v3.3h-0.4v-3.3h-1.3v-0.3h3.1V58.1z"/>
	<path d="M99.8,59.1h1.1c0.3,0,0.5,0,0.7,0.1c0.2,0.1,0.4,0.2,0.5,0.4c0.1,0.2,0.2,0.4,0.2,0.6c0,0.4-0.1,0.6-0.4,0.9
		c-0.2,0.2-0.6,0.3-1,0.3h-1.5v-3.7h0.4V59.1z M99.8,59.4v1.7h1.1c0.3,0,0.5-0.1,0.7-0.2c0.2-0.1,0.3-0.4,0.3-0.6
		c0-0.2-0.1-0.4-0.2-0.6c-0.2-0.2-0.4-0.2-0.7-0.2H99.8z"/>
	<path d="M107.2,57.7h0.4v3.7h-0.4v-3l-2,3h-0.4v-3.7h0.4v3L107.2,57.7z"/>
	<path d="M111.6,60.8l1.1-3.1h0.4l-1.6,4.3l-0.1,0.2c-0.2,0.4-0.5,0.7-0.9,0.7c-0.1,0-0.2,0-0.3,0l0-0.3l0.2,0c0.2,0,0.4,0,0.5-0.1
		c0.1-0.1,0.2-0.3,0.3-0.5l0.2-0.5l-1.4-3.7h0.4L111.6,60.8z"/>
	<path d="M115.1,61.1c0.3,0,0.5-0.1,0.7-0.2c0.2-0.2,0.3-0.4,0.3-0.6h0.4c0,0.2-0.1,0.4-0.2,0.6c-0.1,0.2-0.3,0.3-0.5,0.4
		c-0.2,0.1-0.4,0.2-0.7,0.2c-0.5,0-0.9-0.2-1.2-0.5c-0.3-0.3-0.4-0.8-0.4-1.4v-0.1c0-0.4,0.1-0.7,0.2-1s0.3-0.5,0.5-0.6
		c0.2-0.2,0.5-0.2,0.8-0.2c0.4,0,0.7,0.1,1,0.4c0.3,0.2,0.4,0.6,0.4,1h-0.4c0-0.3-0.1-0.5-0.3-0.7c-0.2-0.2-0.4-0.3-0.7-0.3
		c-0.4,0-0.7,0.1-0.9,0.4c-0.2,0.3-0.3,0.6-0.3,1.1v0.1c0,0.5,0.1,0.8,0.3,1.1C114.4,61,114.7,61.1,115.1,61.1z"/>
	<path d="M119.9,58.1h-1.3v3.3h-0.4v-3.3h-1.3v-0.3h3.1V58.1z"/>
	<path d="M122.9,61.4c0-0.1-0.1-0.3-0.1-0.5c-0.1,0.2-0.3,0.3-0.5,0.4c-0.2,0.1-0.5,0.2-0.7,0.2c-0.4,0-0.6-0.1-0.9-0.3
		c-0.2-0.2-0.3-0.4-0.3-0.8c0-0.4,0.1-0.6,0.4-0.9c0.3-0.2,0.7-0.3,1.3-0.3h0.7v-0.4c0-0.3-0.1-0.5-0.2-0.6
		c-0.2-0.2-0.4-0.2-0.7-0.2c-0.3,0-0.5,0.1-0.7,0.2s-0.3,0.3-0.3,0.5l-0.4,0c0-0.3,0.1-0.5,0.4-0.8c0.3-0.2,0.6-0.3,1-0.3
		c0.4,0,0.7,0.1,1,0.3c0.2,0.2,0.4,0.5,0.4,0.9v1.8c0,0.4,0,0.6,0.1,0.8v0H122.9z M121.6,61.1c0.3,0,0.5-0.1,0.7-0.2
		c0.2-0.1,0.4-0.3,0.5-0.5v-0.8h-0.7c-0.4,0-0.7,0.1-1,0.2c-0.2,0.1-0.3,0.3-0.3,0.6c0,0.2,0.1,0.4,0.2,0.5
		C121.2,61.1,121.4,61.1,121.6,61.1z"/>
	<path d="M127.2,61.4h-0.4v-1.7h-2v1.7h-0.4v-3.7h0.4v1.7h2v-1.7h0.4V61.4z"/>
	<path d="M128,59.5c0-0.4,0.1-0.7,0.2-1c0.1-0.3,0.3-0.5,0.6-0.7c0.3-0.2,0.5-0.2,0.9-0.2c0.5,0,0.9,0.2,1.2,0.5
		c0.3,0.3,0.5,0.8,0.5,1.4v0.1c0,0.4-0.1,0.7-0.2,1c-0.1,0.3-0.3,0.5-0.6,0.7s-0.5,0.2-0.9,0.2c-0.5,0-0.9-0.2-1.2-0.5
		C128.2,60.6,128,60.2,128,59.5L128,59.5z M128.4,59.6c0,0.4,0.1,0.8,0.3,1.1c0.2,0.3,0.5,0.4,0.9,0.4c0.4,0,0.7-0.1,0.9-0.4
		c0.2-0.3,0.3-0.7,0.3-1.1v-0.1c0-0.3-0.1-0.5-0.2-0.8s-0.3-0.4-0.4-0.5c-0.2-0.1-0.4-0.2-0.6-0.2c-0.4,0-0.7,0.1-0.9,0.4
		C128.5,58.7,128.4,59.1,128.4,59.6L128.4,59.6z"/>
	<path d="M132.2,61.4v-3.7h1.4c0.5,0,0.8,0.1,1.1,0.3c0.3,0.2,0.4,0.4,0.4,0.7c0,0.2-0.1,0.3-0.2,0.5c-0.1,0.1-0.3,0.3-0.5,0.3
		c0.2,0,0.4,0.1,0.6,0.3c0.1,0.2,0.2,0.3,0.2,0.6c0,0.3-0.1,0.6-0.4,0.8c-0.2,0.2-0.6,0.3-1,0.3H132.2z M132.6,59.4h1
		c0.6,0,1-0.2,1-0.7c0-0.2-0.1-0.4-0.3-0.5c-0.2-0.1-0.4-0.2-0.8-0.2h-1V59.4z M132.6,59.7v1.4h1.2c0.3,0,0.5-0.1,0.7-0.2
		s0.2-0.3,0.2-0.5c0-0.2-0.1-0.4-0.2-0.5s-0.4-0.2-0.7-0.2H132.6z"/>
	<path d="M138.5,57.7h0.4v3.7h-0.4v-3l-2,3h-0.4v-3.7h0.4v3L138.5,57.7z"/>
	<path d="M142.7,58.1h-1.3v3.3h-0.4v-3.3h-1.3v-0.3h3.1V58.1z"/>
	<path d="M143.8,59.1h1.1c0.3,0,0.5,0,0.7,0.1c0.2,0.1,0.4,0.2,0.5,0.4c0.1,0.2,0.2,0.4,0.2,0.6c0,0.4-0.1,0.6-0.4,0.9
		c-0.2,0.2-0.6,0.3-1,0.3h-1.5v-3.7h0.4V59.1z M143.8,59.4v1.7h1.1c0.3,0,0.5-0.1,0.7-0.2c0.2-0.1,0.3-0.4,0.3-0.6
		c0-0.2-0.1-0.4-0.2-0.6c-0.2-0.2-0.4-0.2-0.7-0.2H143.8z"/>
	<path d="M94.7,69.8h-0.4v-3.3h-2v3.3h-0.4v-3.7h2.8V69.8z"/>
	<path d="M98.8,68c0,0.6-0.1,1-0.4,1.4c-0.3,0.3-0.6,0.5-1,0.5c-0.5,0-0.9-0.2-1.2-0.5v1.9h-0.4v-5.1h0.4l0,0.5
		c0.3-0.4,0.7-0.6,1.2-0.6c0.4,0,0.8,0.2,1,0.5C98.7,66.9,98.8,67.4,98.8,68L98.8,68z M98.4,67.9c0-0.5-0.1-0.8-0.3-1.1
		s-0.5-0.4-0.8-0.4c-0.3,0-0.5,0.1-0.6,0.2s-0.3,0.3-0.4,0.5v1.8c0.1,0.2,0.2,0.4,0.4,0.5s0.4,0.2,0.6,0.2c0.3,0,0.6-0.1,0.8-0.4
		C98.3,68.9,98.4,68.5,98.4,67.9z"/>
	<path d="M102.1,66.1h0.4v3.7h-0.4v-3l-2,3h-0.4v-3.7h0.4v3L102.1,66.1z"/>
	<path d="M106.5,66.1v3.7h-0.4v-3.3h-1.5l-0.1,1.4c0,0.5-0.1,0.9-0.2,1.2c-0.1,0.3-0.2,0.5-0.3,0.6c-0.1,0.1-0.3,0.2-0.6,0.2h-0.2
		v-0.4l0.1,0c0.2,0,0.4-0.1,0.5-0.3s0.2-0.6,0.2-1.2l0.1-1.8H106.5z"/>
	<path d="M107.4,67.9c0-0.4,0.1-0.7,0.2-1c0.1-0.3,0.3-0.5,0.6-0.7c0.3-0.2,0.5-0.2,0.9-0.2c0.5,0,0.9,0.2,1.2,0.5
		c0.3,0.3,0.5,0.8,0.5,1.4V68c0,0.4-0.1,0.7-0.2,1c-0.1,0.3-0.3,0.5-0.6,0.7s-0.5,0.2-0.9,0.2c-0.5,0-0.9-0.2-1.2-0.5
		C107.5,69,107.4,68.6,107.4,67.9L107.4,67.9z M107.8,68c0,0.4,0.1,0.8,0.3,1.1c0.2,0.3,0.5,0.4,0.9,0.4c0.4,0,0.7-0.1,0.9-0.4
		c0.2-0.3,0.3-0.7,0.3-1.1v-0.1c0-0.3-0.1-0.5-0.2-0.8s-0.3-0.4-0.4-0.5c-0.2-0.1-0.4-0.2-0.6-0.2c-0.4,0-0.7,0.1-0.9,0.4
		C107.9,67.1,107.8,67.5,107.8,68L107.8,68z"/>
	<path d="M114.3,68.1h-0.5v1.7h-0.4v-1.7h-0.5l-1.4,1.7H111l1.5-1.9l-1.4-1.8h0.5l1.2,1.6h0.5v-1.6h0.4v1.6h0.5l1.2-1.6h0.5
		l-1.4,1.8l1.5,1.9h-0.5L114.3,68.1z"/>
	<path d="M118.2,69.9c-0.3,0-0.6-0.1-0.9-0.2c-0.3-0.2-0.5-0.4-0.6-0.6c-0.1-0.3-0.2-0.6-0.2-0.9v-0.1c0-0.4,0.1-0.7,0.2-1
		c0.1-0.3,0.3-0.5,0.6-0.7c0.2-0.2,0.5-0.2,0.8-0.2c0.4,0,0.8,0.2,1.1,0.5c0.3,0.3,0.4,0.7,0.4,1.3V68h-2.6v0.1c0,0.4,0.1,0.8,0.4,1
		c0.2,0.3,0.5,0.4,0.9,0.4c0.2,0,0.4,0,0.6-0.1c0.2-0.1,0.3-0.2,0.5-0.4l0.3,0.2C119.2,69.7,118.7,69.9,118.2,69.9z M118.1,66.4
		c-0.3,0-0.6,0.1-0.8,0.3c-0.2,0.2-0.3,0.5-0.4,0.9h2.2v0c0-0.4-0.1-0.6-0.3-0.9S118.4,66.4,118.1,66.4z"/>
	<path d="M123.2,69.8h-0.4v-1.7h-2v1.7h-0.4v-3.7h0.4v1.7h2v-1.7h0.4V69.8z"/>
	<path d="M126.7,66.1h0.4v3.7h-0.4v-3l-2,3h-0.4v-3.7h0.4v3L126.7,66.1z"/>
	<path d="M129.7,69.9c-0.3,0-0.6-0.1-0.9-0.2c-0.3-0.2-0.5-0.4-0.6-0.6c-0.1-0.3-0.2-0.6-0.2-0.9v-0.1c0-0.4,0.1-0.7,0.2-1
		c0.1-0.3,0.3-0.5,0.6-0.7c0.2-0.2,0.5-0.2,0.8-0.2c0.4,0,0.8,0.2,1.1,0.5c0.3,0.3,0.4,0.7,0.4,1.3V68h-2.6v0.1c0,0.4,0.1,0.8,0.4,1
		c0.2,0.3,0.5,0.4,0.9,0.4c0.2,0,0.4,0,0.6-0.1c0.2-0.1,0.3-0.2,0.5-0.4l0.3,0.2C130.7,69.7,130.2,69.9,129.7,69.9z M129.6,66.4
		c-0.3,0-0.6,0.1-0.8,0.3c-0.2,0.2-0.3,0.5-0.4,0.9h2.2v0c0-0.4-0.1-0.6-0.3-0.9S129.9,66.4,129.6,66.4z"/>
</g>
<g>
	<path d="M219.5,56.4h0.4v5h-0.4v-4.3l-2.8,4.3h-0.4v-5h0.4v4.3L219.5,56.4z"/>
	<path d="M222.5,61.1c0.3,0,0.5-0.1,0.7-0.2c0.2-0.2,0.3-0.4,0.3-0.6h0.4c0,0.2-0.1,0.4-0.2,0.6c-0.1,0.2-0.3,0.3-0.5,0.4
		c-0.2,0.1-0.4,0.2-0.7,0.2c-0.5,0-0.9-0.2-1.2-0.5c-0.3-0.3-0.4-0.8-0.4-1.4v-0.1c0-0.4,0.1-0.7,0.2-1s0.3-0.5,0.5-0.6
		c0.2-0.2,0.5-0.2,0.8-0.2c0.4,0,0.7,0.1,1,0.4c0.3,0.2,0.4,0.6,0.4,1h-0.4c0-0.3-0.1-0.5-0.3-0.7c-0.2-0.2-0.4-0.3-0.7-0.3
		c-0.4,0-0.7,0.1-0.9,0.4c-0.2,0.3-0.3,0.6-0.3,1.1v0.1c0,0.5,0.1,0.8,0.3,1.1C221.8,61,222.1,61.1,222.5,61.1z"/>
	<path d="M227.5,61.4h-0.4v-3.3h-2v3.3h-0.4v-3.7h2.8V61.4z"/>
	<path d="M228.4,59.5c0-0.4,0.1-0.7,0.2-1c0.1-0.3,0.3-0.5,0.6-0.7c0.3-0.2,0.5-0.2,0.9-0.2c0.5,0,0.9,0.2,1.2,0.5
		c0.3,0.3,0.5,0.8,0.5,1.4v0.1c0,0.4-0.1,0.7-0.2,1c-0.1,0.3-0.3,0.5-0.6,0.7s-0.5,0.2-0.9,0.2c-0.5,0-0.9-0.2-1.2-0.5
		C228.6,60.6,228.4,60.2,228.4,59.5L228.4,59.5z M228.8,59.6c0,0.4,0.1,0.8,0.3,1.1c0.2,0.3,0.5,0.4,0.9,0.4c0.4,0,0.7-0.1,0.9-0.4
		c0.2-0.3,0.3-0.7,0.3-1.1v-0.1c0-0.3-0.1-0.5-0.2-0.8s-0.3-0.4-0.4-0.5c-0.2-0.1-0.4-0.2-0.6-0.2c-0.4,0-0.7,0.1-0.9,0.4
		C228.9,58.7,228.8,59.1,228.8,59.6L228.8,59.6z"/>
	<path d="M235.3,57.7v3.7h-0.4v-3.3h-1.5l-0.1,1.4c0,0.5-0.1,0.9-0.2,1.2c-0.1,0.3-0.2,0.5-0.3,0.6c-0.1,0.1-0.3,0.2-0.6,0.2h-0.2
		v-0.4l0.1,0c0.2,0,0.4-0.1,0.5-0.3s0.2-0.6,0.2-1.2l0.1-1.8H235.3z"/>
	<path d="M236.9,59.1h1.1c0.3,0,0.5,0,0.7,0.1c0.2,0.1,0.4,0.2,0.5,0.4c0.1,0.2,0.2,0.4,0.2,0.6c0,0.4-0.1,0.6-0.4,0.9
		c-0.2,0.2-0.6,0.3-1,0.3h-1.5v-3.7h0.4V59.1z M236.9,59.4v1.7h1.1c0.3,0,0.5-0.1,0.7-0.2c0.2-0.1,0.3-0.4,0.3-0.6
		c0-0.2-0.1-0.4-0.2-0.6c-0.2-0.2-0.4-0.2-0.7-0.2H236.9z"/>
	<path d="M242.4,58.7c0-0.2-0.1-0.4-0.2-0.5s-0.4-0.2-0.7-0.2c-0.3,0-0.5,0.1-0.7,0.2c-0.2,0.1-0.3,0.3-0.3,0.5H240
		c0-0.3,0.1-0.6,0.4-0.8c0.3-0.2,0.6-0.3,1-0.3c0.4,0,0.8,0.1,1,0.3s0.4,0.4,0.4,0.8c0,0.2-0.1,0.3-0.2,0.5s-0.3,0.3-0.5,0.3
		c0.5,0.1,0.7,0.4,0.7,0.9c0,0.3-0.1,0.6-0.4,0.8s-0.6,0.3-1,0.3c-0.4,0-0.8-0.1-1-0.3s-0.4-0.5-0.4-0.8h0.4c0,0.2,0.1,0.4,0.3,0.6
		c0.2,0.1,0.4,0.2,0.7,0.2c0.3,0,0.6-0.1,0.7-0.2c0.2-0.1,0.3-0.3,0.3-0.5c0-0.2-0.1-0.4-0.2-0.5s-0.4-0.2-0.7-0.2h-0.6v-0.4h0.6
		C242.1,59.3,242.4,59.1,242.4,58.7z"/>
	<path d="M243.5,59.5c0-0.4,0.1-0.7,0.2-1c0.1-0.3,0.3-0.5,0.6-0.7c0.3-0.2,0.5-0.2,0.9-0.2c0.5,0,0.9,0.2,1.2,0.5
		c0.3,0.3,0.5,0.8,0.5,1.4v0.1c0,0.4-0.1,0.7-0.2,1c-0.1,0.3-0.3,0.5-0.6,0.7s-0.5,0.2-0.9,0.2c-0.5,0-0.9-0.2-1.2-0.5
		C243.7,60.6,243.5,60.2,243.5,59.5L243.5,59.5z M243.9,59.6c0,0.4,0.1,0.8,0.3,1.1c0.2,0.3,0.5,0.4,0.9,0.4c0.4,0,0.7-0.1,0.9-0.4
		c0.2-0.3,0.3-0.7,0.3-1.1v-0.1c0-0.3-0.1-0.5-0.2-0.8s-0.3-0.4-0.4-0.5c-0.2-0.1-0.4-0.2-0.6-0.2c-0.4,0-0.7,0.1-0.9,0.4
		C244,58.7,243.9,59.1,243.9,59.6L243.9,59.6z"/>
	<path d="M247.7,61.4v-3.7h1.4c0.5,0,0.8,0.1,1.1,0.3c0.3,0.2,0.4,0.4,0.4,0.7c0,0.2-0.1,0.3-0.2,0.5c-0.1,0.1-0.3,0.3-0.5,0.3
		c0.2,0,0.4,0.1,0.6,0.3c0.1,0.2,0.2,0.3,0.2,0.6c0,0.3-0.1,0.6-0.4,0.8c-0.2,0.2-0.6,0.3-1,0.3H247.7z M248.1,59.4h1
		c0.6,0,1-0.2,1-0.7c0-0.2-0.1-0.4-0.3-0.5c-0.2-0.1-0.4-0.2-0.8-0.2h-1V59.4z M248.1,59.7v1.4h1.2c0.3,0,0.5-0.1,0.7-0.2
		s0.2-0.3,0.2-0.5c0-0.2-0.1-0.4-0.2-0.5s-0.4-0.2-0.7-0.2H248.1z"/>
	<path d="M253.9,61.4c0-0.1-0.1-0.3-0.1-0.5c-0.1,0.2-0.3,0.3-0.5,0.4c-0.2,0.1-0.5,0.2-0.7,0.2c-0.4,0-0.6-0.1-0.9-0.3
		c-0.2-0.2-0.3-0.4-0.3-0.8c0-0.4,0.1-0.6,0.4-0.9c0.3-0.2,0.7-0.3,1.3-0.3h0.7v-0.4c0-0.3-0.1-0.5-0.2-0.6
		c-0.2-0.2-0.4-0.2-0.7-0.2c-0.3,0-0.5,0.1-0.7,0.2s-0.3,0.3-0.3,0.5l-0.4,0c0-0.3,0.1-0.5,0.4-0.8c0.3-0.2,0.6-0.3,1-0.3
		c0.4,0,0.7,0.1,1,0.3c0.2,0.2,0.4,0.5,0.4,0.9v1.8c0,0.4,0,0.6,0.1,0.8v0H253.9z M252.6,61.1c0.3,0,0.5-0.1,0.7-0.2
		c0.2-0.1,0.4-0.3,0.5-0.5v-0.8h-0.7c-0.4,0-0.7,0.1-1,0.2c-0.2,0.1-0.3,0.3-0.3,0.6c0,0.2,0.1,0.4,0.2,0.5
		C252.2,61.1,252.4,61.1,252.6,61.1z"/>
	<path d="M257.9,58.1h-1.3v3.3h-0.4v-3.3h-1.3v-0.3h3.1V58.1z"/>
	<path d="M259,59.1h1.1c0.3,0,0.5,0,0.7,0.1c0.2,0.1,0.4,0.2,0.5,0.4c0.1,0.2,0.2,0.4,0.2,0.6c0,0.4-0.1,0.6-0.4,0.9
		c-0.2,0.2-0.6,0.3-1,0.3h-1.5v-3.7h0.4V59.1z M259,59.4v1.7h1.1c0.3,0,0.5-0.1,0.7-0.2c0.2-0.1,0.3-0.4,0.3-0.6
		c0-0.2-0.1-0.4-0.2-0.6c-0.2-0.2-0.4-0.2-0.7-0.2H259z"/>
	<path d="M263.9,61.1l0.2-0.2c0.3-0.4,0.5-1,0.5-1.7l0.1-1.4h2.2v3.4h0.4v1.4h-0.4v-1.1h-2.8v1.1h-0.4l0-1.4H263.9z M264.4,61.1h2
		v-3h-1.4l0,1C265,59.9,264.8,60.6,264.4,61.1z"/>
	<path d="M267.8,59.5c0-0.4,0.1-0.7,0.2-1c0.1-0.3,0.3-0.5,0.6-0.7c0.3-0.2,0.5-0.2,0.9-0.2c0.5,0,0.9,0.2,1.2,0.5
		c0.3,0.3,0.5,0.8,0.5,1.4v0.1c0,0.4-0.1,0.7-0.2,1c-0.1,0.3-0.3,0.5-0.6,0.7s-0.5,0.2-0.9,0.2c-0.5,0-0.9-0.2-1.2-0.5
		C268,60.6,267.8,60.2,267.8,59.5L267.8,59.5z M268.2,59.6c0,0.4,0.1,0.8,0.3,1.1c0.2,0.3,0.5,0.4,0.9,0.4c0.4,0,0.7-0.1,0.9-0.4
		c0.2-0.3,0.3-0.7,0.3-1.1v-0.1c0-0.3-0.1-0.5-0.2-0.8s-0.3-0.4-0.4-0.5c-0.2-0.1-0.4-0.2-0.6-0.2c-0.4,0-0.7,0.1-0.9,0.4
		C268.3,58.7,268.2,59.1,268.2,59.6L268.2,59.6z"/>
	<path d="M274.8,61.4h-0.4v-3.3h-2v3.3H272v-3.7h2.8V61.4z"/>
	<path d="M278.7,57.7v3.7h-0.4v-3.3h-1.5l-0.1,1.4c0,0.5-0.1,0.9-0.2,1.2c-0.1,0.3-0.2,0.5-0.3,0.6c-0.1,0.1-0.3,0.2-0.6,0.2h-0.2
		v-0.4l0.1,0c0.2,0,0.4-0.1,0.5-0.3s0.2-0.6,0.2-1.2l0.1-1.8H278.7z"/>
	<path d="M282.7,61.4h-0.4v-1.7h-2v1.7h-0.4v-3.7h0.4v1.7h2v-1.7h0.4V61.4z"/>
	<path d="M285.2,61.5c-0.3,0-0.6-0.1-0.9-0.2c-0.3-0.2-0.5-0.4-0.6-0.6c-0.1-0.3-0.2-0.6-0.2-0.9v-0.1c0-0.4,0.1-0.7,0.2-1
		c0.1-0.3,0.3-0.5,0.6-0.7c0.2-0.2,0.5-0.2,0.8-0.2c0.4,0,0.8,0.2,1.1,0.5c0.3,0.3,0.4,0.7,0.4,1.3v0.2H284v0.1c0,0.4,0.1,0.8,0.4,1
		c0.2,0.3,0.5,0.4,0.9,0.4c0.2,0,0.4,0,0.6-0.1c0.2-0.1,0.3-0.2,0.5-0.4l0.3,0.2C286.2,61.3,285.8,61.5,285.2,61.5z M285.1,58
		c-0.3,0-0.6,0.1-0.8,0.3c-0.2,0.2-0.3,0.5-0.4,0.9h2.2v0c0-0.4-0.1-0.6-0.3-0.9S285.4,58,285.1,58z"/>
	<path d="M290.2,61.4h-0.4v-1.7h-2v1.7h-0.4v-3.7h0.4v1.7h2v-1.7h0.4V61.4z"/>
	<path d="M294.2,61.4h-0.4v-1.7h-2v1.7h-0.4v-3.7h0.4v1.7h2v-1.7h0.4V61.4z"/>
	<path d="M296.4,60.8l1.1-3.1h0.4l-1.6,4.3l-0.1,0.2c-0.2,0.4-0.5,0.7-0.9,0.7c-0.1,0-0.2,0-0.3,0l0-0.3l0.2,0c0.2,0,0.4,0,0.5-0.1
		c0.1-0.1,0.2-0.3,0.3-0.5l0.2-0.5l-1.4-3.7h0.4L296.4,60.8z"/>
	<path d="M299,59.4h1.1c0-0.3,0.1-0.6,0.2-0.9c0.1-0.3,0.3-0.5,0.6-0.6c0.2-0.1,0.5-0.2,0.8-0.2c0.5,0,0.9,0.2,1.2,0.5
		c0.3,0.3,0.5,0.8,0.5,1.4v0.1c0,0.4-0.1,0.7-0.2,1c-0.1,0.3-0.3,0.5-0.6,0.7c-0.3,0.2-0.5,0.2-0.9,0.2c-0.5,0-0.9-0.2-1.2-0.5
		c-0.3-0.3-0.5-0.7-0.5-1.3H299v1.7h-0.4v-3.7h0.4V59.4z M300.5,59.6c0,0.4,0.1,0.8,0.3,1.1c0.2,0.3,0.5,0.4,0.9,0.4
		c0.4,0,0.7-0.1,0.9-0.4c0.2-0.3,0.3-0.7,0.3-1.1v-0.1c0-0.4-0.1-0.8-0.3-1.1c-0.2-0.3-0.5-0.4-0.9-0.4c-0.4,0-0.7,0.1-0.9,0.4
		C300.6,58.7,300.5,59.1,300.5,59.6L300.5,59.6z"/>
	<path d="M244.4,68c0,0.6-0.1,1-0.4,1.4c-0.3,0.3-0.6,0.5-1,0.5c-0.5,0-0.9-0.2-1.2-0.5v1.9h-0.4v-5.1h0.4l0,0.5
		c0.3-0.4,0.7-0.6,1.2-0.6c0.4,0,0.8,0.2,1,0.5C244.3,66.9,244.4,67.4,244.4,68L244.4,68z M244,67.9c0-0.5-0.1-0.8-0.3-1.1
		s-0.5-0.4-0.8-0.4c-0.3,0-0.5,0.1-0.6,0.2s-0.3,0.3-0.4,0.5v1.8c0.1,0.2,0.2,0.4,0.4,0.5s0.4,0.2,0.6,0.2c0.3,0,0.6-0.1,0.8-0.4
		C243.9,68.9,244,68.5,244,67.9z"/>
	<path d="M246.8,69.9c-0.3,0-0.6-0.1-0.9-0.2c-0.3-0.2-0.5-0.4-0.6-0.6c-0.1-0.3-0.2-0.6-0.2-0.9v-0.1c0-0.4,0.1-0.7,0.2-1
		c0.1-0.3,0.3-0.5,0.6-0.7c0.2-0.2,0.5-0.2,0.8-0.2c0.4,0,0.8,0.2,1.1,0.5c0.3,0.3,0.4,0.7,0.4,1.3V68h-2.6v0.1c0,0.4,0.1,0.8,0.4,1
		c0.2,0.3,0.5,0.4,0.9,0.4c0.2,0,0.4,0,0.6-0.1c0.2-0.1,0.3-0.2,0.5-0.4l0.3,0.2C247.8,69.7,247.4,69.9,246.8,69.9z M246.7,66.4
		c-0.3,0-0.6,0.1-0.8,0.3c-0.2,0.2-0.3,0.5-0.4,0.9h2.2v0c0-0.4-0.1-0.6-0.3-0.9S247,66.4,246.7,66.4z"/>
	<path d="M251.3,69.8c0-0.1-0.1-0.3-0.1-0.5c-0.1,0.2-0.3,0.3-0.5,0.4c-0.2,0.1-0.5,0.2-0.7,0.2c-0.4,0-0.6-0.1-0.9-0.3
		c-0.2-0.2-0.3-0.4-0.3-0.8c0-0.4,0.1-0.6,0.4-0.9c0.3-0.2,0.7-0.3,1.3-0.3h0.7v-0.4c0-0.3-0.1-0.5-0.2-0.6
		c-0.2-0.2-0.4-0.2-0.7-0.2c-0.3,0-0.5,0.1-0.7,0.2s-0.3,0.3-0.3,0.5l-0.4,0c0-0.3,0.1-0.5,0.4-0.8c0.3-0.2,0.6-0.3,1-0.3
		c0.4,0,0.7,0.1,1,0.3c0.2,0.2,0.4,0.5,0.4,0.9V69c0,0.4,0,0.6,0.1,0.8v0H251.3z M250,69.5c0.3,0,0.5-0.1,0.7-0.2
		c0.2-0.1,0.4-0.3,0.5-0.5V68h-0.7c-0.4,0-0.7,0.1-1,0.2c-0.2,0.1-0.3,0.3-0.3,0.6c0,0.2,0.1,0.4,0.2,0.5
		C249.6,69.5,249.8,69.5,250,69.5z"/>
	<path d="M255.6,66.1v3.7h-0.4v-3.3h-1.5l-0.1,1.4c0,0.5-0.1,0.9-0.2,1.2c-0.1,0.3-0.2,0.5-0.3,0.6c-0.1,0.1-0.3,0.2-0.6,0.2h-0.2
		v-0.4l0.1,0c0.2,0,0.4-0.1,0.5-0.3s0.2-0.6,0.2-1.2l0.1-1.8H255.6z"/>
	<path d="M257.1,67.5h1.1c0.3,0,0.5,0,0.7,0.1c0.2,0.1,0.4,0.2,0.5,0.4c0.1,0.2,0.2,0.4,0.2,0.6c0,0.4-0.1,0.6-0.4,0.9
		c-0.2,0.2-0.6,0.3-1,0.3h-1.5v-3.7h0.4V67.5z M257.1,67.8v1.7h1.1c0.3,0,0.5-0.1,0.7-0.2c0.2-0.1,0.3-0.4,0.3-0.6
		c0-0.2-0.1-0.4-0.2-0.6c-0.2-0.2-0.4-0.2-0.7-0.2H257.1z"/>
	<path d="M263.2,69.8h-0.4v-1.7h-2v1.7h-0.4v-3.7h0.4v1.7h2v-1.7h0.4V69.8z"/>
	<path d="M264.1,67.9c0-0.4,0.1-0.7,0.2-1c0.1-0.3,0.3-0.5,0.6-0.7c0.3-0.2,0.5-0.2,0.9-0.2c0.5,0,0.9,0.2,1.2,0.5
		c0.3,0.3,0.5,0.8,0.5,1.4V68c0,0.4-0.1,0.7-0.2,1c-0.1,0.3-0.3,0.5-0.6,0.7s-0.5,0.2-0.9,0.2c-0.5,0-0.9-0.2-1.2-0.5
		C264.3,69,264.1,68.6,264.1,67.9L264.1,67.9z M264.5,68c0,0.4,0.1,0.8,0.3,1.1c0.2,0.3,0.5,0.4,0.9,0.4c0.4,0,0.7-0.1,0.9-0.4
		c0.2-0.3,0.3-0.7,0.3-1.1v-0.1c0-0.3-0.1-0.5-0.2-0.8s-0.3-0.4-0.4-0.5c-0.2-0.1-0.4-0.2-0.6-0.2c-0.4,0-0.7,0.1-0.9,0.4
		C264.6,67.1,264.5,67.5,264.5,68L264.5,68z"/>
	<path d="M269.6,69.5c0.3,0,0.5-0.1,0.7-0.2c0.2-0.2,0.3-0.4,0.3-0.6h0.4c0,0.2-0.1,0.4-0.2,0.6c-0.1,0.2-0.3,0.3-0.5,0.4
		c-0.2,0.1-0.4,0.2-0.7,0.2c-0.5,0-0.9-0.2-1.2-0.5c-0.3-0.3-0.4-0.8-0.4-1.4v-0.1c0-0.4,0.1-0.7,0.2-1s0.3-0.5,0.5-0.6
		c0.2-0.2,0.5-0.2,0.8-0.2c0.4,0,0.7,0.1,1,0.4c0.3,0.2,0.4,0.6,0.4,1h-0.4c0-0.3-0.1-0.5-0.3-0.7c-0.2-0.2-0.4-0.3-0.7-0.3
		c-0.4,0-0.7,0.1-0.9,0.4c-0.2,0.3-0.3,0.6-0.3,1.1V68c0,0.5,0.1,0.8,0.3,1.1C269,69.4,269.2,69.5,269.6,69.5z"/>
	<path d="M274.5,66.5h-1.3v3.3h-0.4v-3.3h-1.3v-0.3h3.1V66.5z"/>
	<path d="M275.6,67.5h1.1c0.3,0,0.5,0,0.7,0.1c0.2,0.1,0.4,0.2,0.5,0.4c0.1,0.2,0.2,0.4,0.2,0.6c0,0.4-0.1,0.6-0.4,0.9
		c-0.2,0.2-0.6,0.3-1,0.3h-1.5v-3.7h0.4V67.5z M275.6,67.8v1.7h1.1c0.3,0,0.5-0.1,0.7-0.2c0.2-0.1,0.3-0.4,0.3-0.6
		c0-0.2-0.1-0.4-0.2-0.6c-0.2-0.2-0.4-0.2-0.7-0.2H275.6z"/>
</g>
<g>
	<path d="M150.4,173.1c0-0.3-0.1-0.6-0.3-0.7c-0.2-0.2-0.5-0.3-1-0.3c-0.4,0-0.7,0.1-0.9,0.3c-0.2,0.2-0.4,0.4-0.4,0.7h-0.4
		c0-0.3,0.1-0.5,0.2-0.7c0.1-0.2,0.3-0.4,0.6-0.5c0.3-0.1,0.5-0.2,0.8-0.2c0.5,0,1,0.1,1.3,0.4s0.5,0.6,0.5,1c0,0.3-0.1,0.5-0.2,0.7
		s-0.4,0.3-0.7,0.4c0.6,0.2,1,0.6,1,1.2c0,0.4-0.2,0.8-0.5,1c-0.3,0.3-0.8,0.4-1.3,0.4c-0.3,0-0.6-0.1-0.9-0.2
		c-0.3-0.1-0.5-0.3-0.6-0.5c-0.1-0.2-0.2-0.5-0.2-0.7h0.4c0,0.3,0.1,0.6,0.4,0.8c0.2,0.2,0.6,0.3,0.9,0.3c0.4,0,0.8-0.1,1-0.3
		c0.2-0.2,0.4-0.4,0.4-0.8c0-0.3-0.1-0.6-0.3-0.8c-0.2-0.2-0.6-0.3-1-0.3h-0.6V174h0.6c0.4,0,0.7-0.1,0.9-0.2
		S150.4,173.4,150.4,173.1z"/>
	<path d="M154.1,176.7c0-0.1-0.1-0.3-0.1-0.5c-0.1,0.2-0.3,0.3-0.5,0.4c-0.2,0.1-0.5,0.2-0.7,0.2c-0.4,0-0.6-0.1-0.9-0.3
		c-0.2-0.2-0.3-0.4-0.3-0.8c0-0.4,0.1-0.6,0.4-0.9c0.3-0.2,0.7-0.3,1.3-0.3h0.7v-0.4c0-0.3-0.1-0.5-0.2-0.6
		c-0.2-0.2-0.4-0.2-0.7-0.2c-0.3,0-0.5,0.1-0.7,0.2c-0.2,0.1-0.3,0.3-0.3,0.5l-0.4,0c0-0.3,0.1-0.5,0.4-0.8c0.3-0.2,0.6-0.3,1-0.3
		c0.4,0,0.7,0.1,1,0.3c0.2,0.2,0.4,0.5,0.4,0.9v1.8c0,0.4,0,0.6,0.1,0.8v0H154.1z M152.8,176.5c0.3,0,0.5-0.1,0.7-0.2
		c0.2-0.1,0.4-0.3,0.5-0.5v-0.8h-0.7c-0.4,0-0.7,0.1-1,0.2s-0.3,0.3-0.3,0.6c0,0.2,0.1,0.4,0.2,0.5
		C152.3,176.4,152.5,176.5,152.8,176.5z"/>
	<path d="M158.3,176.7h-0.4v-3.3h-2v3.3h-0.4v-3.7h2.8V176.7z"/>
	<path d="M160.6,176.2l1.1-3.1h0.4l-1.6,4.3l-0.1,0.2c-0.2,0.4-0.5,0.7-0.9,0.7c-0.1,0-0.2,0-0.3,0l0-0.3l0.2,0c0.2,0,0.4,0,0.5-0.1
		c0.1-0.1,0.2-0.3,0.3-0.5l0.2-0.5l-1.4-3.7h0.4L160.6,176.2z"/>
	<path d="M164.1,176.5c0.3,0,0.5-0.1,0.7-0.2c0.2-0.2,0.3-0.4,0.3-0.6h0.4c0,0.2-0.1,0.4-0.2,0.6s-0.3,0.3-0.5,0.4
		c-0.2,0.1-0.4,0.2-0.7,0.2c-0.5,0-0.9-0.2-1.2-0.5c-0.3-0.3-0.4-0.8-0.4-1.4v-0.1c0-0.4,0.1-0.7,0.2-1s0.3-0.5,0.5-0.6
		c0.2-0.2,0.5-0.2,0.8-0.2c0.4,0,0.7,0.1,1,0.4c0.3,0.2,0.4,0.6,0.4,1h-0.4c0-0.3-0.1-0.5-0.3-0.7c-0.2-0.2-0.4-0.3-0.7-0.3
		c-0.4,0-0.7,0.1-0.9,0.4c-0.2,0.3-0.3,0.6-0.3,1.1v0.1c0,0.5,0.1,0.8,0.3,1.1C163.4,176.3,163.7,176.5,164.1,176.5z"/>
	<path d="M169,173.4h-1.3v3.3h-0.4v-3.3h-1.3v-0.3h3.1V173.4z"/>
	<path d="M172.1,173.1h0.4v3.7h-0.4v-3l-2,3h-0.4v-3.7h0.4v3L172.1,173.1z"/>
	<path d="M176.2,173.4h-1.3v3.3h-0.4v-3.3h-1.3v-0.3h3.1V173.4z"/>
	<path d="M177.3,174.4h1.1c0.3,0,0.5,0,0.7,0.1c0.2,0.1,0.4,0.2,0.5,0.4c0.1,0.2,0.2,0.4,0.2,0.6c0,0.4-0.1,0.6-0.4,0.9
		c-0.2,0.2-0.6,0.3-1,0.3h-1.5v-3.7h0.4V174.4z M177.3,174.7v1.7h1.1c0.3,0,0.5-0.1,0.7-0.2c0.2-0.1,0.3-0.4,0.3-0.6
		c0-0.2-0.1-0.4-0.2-0.6c-0.2-0.2-0.4-0.2-0.7-0.2H177.3z"/>
	<path d="M185.2,176.7h-0.4v-3.3h-2v3.3h-0.4v-3.7h2.8V176.7z"/>
	<path d="M189.2,174.9c0,0.6-0.1,1-0.4,1.4c-0.3,0.3-0.6,0.5-1,0.5c-0.5,0-0.9-0.2-1.2-0.5v1.9h-0.4v-5.1h0.4l0,0.5
		c0.3-0.4,0.7-0.6,1.2-0.6c0.4,0,0.8,0.2,1,0.5C189.1,173.8,189.2,174.3,189.2,174.9L189.2,174.9z M188.8,174.9
		c0-0.5-0.1-0.8-0.3-1.1s-0.5-0.4-0.8-0.4c-0.3,0-0.5,0.1-0.6,0.2c-0.2,0.1-0.3,0.3-0.4,0.5v1.8c0.1,0.2,0.2,0.4,0.4,0.5
		c0.2,0.1,0.4,0.2,0.6,0.2c0.3,0,0.6-0.1,0.8-0.4C188.7,175.8,188.8,175.4,188.8,174.9z"/>
	<path d="M192.6,173.1h0.4v3.7h-0.4v-3l-2,3h-0.4v-3.7h0.4v3L192.6,173.1z"/>
	<path d="M196.9,173.1v3.7h-0.4v-3.3H195l-0.1,1.4c0,0.5-0.1,0.9-0.2,1.2c-0.1,0.3-0.2,0.5-0.3,0.6c-0.1,0.1-0.3,0.2-0.6,0.2h-0.2
		v-0.4l0.1,0c0.2,0,0.4-0.1,0.5-0.3c0.1-0.2,0.2-0.6,0.2-1.2l0.1-1.8H196.9z"/>
	<path d="M197.8,174.8c0-0.4,0.1-0.7,0.2-1c0.1-0.3,0.3-0.5,0.6-0.7c0.3-0.2,0.5-0.2,0.9-0.2c0.5,0,0.9,0.2,1.2,0.5
		c0.3,0.3,0.5,0.8,0.5,1.4v0.1c0,0.4-0.1,0.7-0.2,1c-0.1,0.3-0.3,0.5-0.6,0.7c-0.3,0.2-0.5,0.2-0.9,0.2c-0.5,0-0.9-0.2-1.2-0.5
		C198,176,197.8,175.5,197.8,174.8L197.8,174.8z M198.2,175c0,0.4,0.1,0.8,0.3,1.1c0.2,0.3,0.5,0.4,0.9,0.4c0.4,0,0.7-0.1,0.9-0.4
		c0.2-0.3,0.3-0.7,0.3-1.1v-0.1c0-0.3-0.1-0.5-0.2-0.8c-0.1-0.2-0.3-0.4-0.4-0.5s-0.4-0.2-0.6-0.2c-0.4,0-0.7,0.1-0.9,0.4
		C198.3,174,198.2,174.4,198.2,175L198.2,175z"/>
	<path d="M204.7,175h-0.5v1.7h-0.4V175h-0.5l-1.4,1.7h-0.5l1.5-1.9l-1.4-1.8h0.5l1.2,1.6h0.5v-1.6h0.4v1.6h0.5l1.2-1.6h0.5l-1.4,1.8
		l1.5,1.9h-0.5L204.7,175z"/>
	<path d="M208.6,176.8c-0.3,0-0.6-0.1-0.9-0.2c-0.3-0.2-0.5-0.4-0.6-0.6c-0.1-0.3-0.2-0.6-0.2-0.9v-0.1c0-0.4,0.1-0.7,0.2-1
		c0.1-0.3,0.3-0.5,0.6-0.7c0.2-0.2,0.5-0.2,0.8-0.2c0.4,0,0.8,0.2,1.1,0.5c0.3,0.3,0.4,0.7,0.4,1.3v0.2h-2.6v0.1
		c0,0.4,0.1,0.8,0.4,1c0.2,0.3,0.5,0.4,0.9,0.4c0.2,0,0.4,0,0.6-0.1c0.2-0.1,0.3-0.2,0.5-0.4l0.3,0.2
		C209.6,176.6,209.2,176.8,208.6,176.8z M208.5,173.3c-0.3,0-0.6,0.1-0.8,0.3c-0.2,0.2-0.3,0.5-0.4,0.9h2.2v0c0-0.4-0.1-0.6-0.3-0.9
		C209.1,173.4,208.8,173.3,208.5,173.3z"/>
	<path d="M213.6,176.7h-0.4v-1.7h-2v1.7h-0.4v-3.7h0.4v1.7h2v-1.7h0.4V176.7z"/>
	<path d="M217.2,173.1h0.4v3.7h-0.4v-3l-2,3h-0.4v-3.7h0.4v3L217.2,173.1z"/>
	<path d="M220.1,176.8c-0.3,0-0.6-0.1-0.9-0.2c-0.3-0.2-0.5-0.4-0.6-0.6c-0.1-0.3-0.2-0.6-0.2-0.9v-0.1c0-0.4,0.1-0.7,0.2-1
		c0.1-0.3,0.3-0.5,0.6-0.7c0.2-0.2,0.5-0.2,0.8-0.2c0.4,0,0.8,0.2,1.1,0.5c0.3,0.3,0.4,0.7,0.4,1.3v0.2h-2.6v0.1
		c0,0.4,0.1,0.8,0.4,1c0.2,0.3,0.5,0.4,0.9,0.4c0.2,0,0.4,0,0.6-0.1c0.2-0.1,0.3-0.2,0.5-0.4l0.3,0.2
		C221.1,176.6,220.7,176.8,220.1,176.8z M220,173.3c-0.3,0-0.6,0.1-0.8,0.3c-0.2,0.2-0.3,0.5-0.4,0.9h2.2v0c0-0.4-0.1-0.6-0.3-0.9
		C220.6,173.4,220.3,173.3,220,173.3z"/>
	<path d="M143.1,181.5h0.4v3.7h-0.4v-3l-2,3h-0.4v-3.7h0.4v3L143.1,181.5z"/>
	<path d="M149.1,185.2h-0.4v-1.7h-2v1.7h-0.4v-3.7h0.4v1.7h2v-1.7h0.4V185.2z"/>
	<path d="M152.6,185.2c0-0.1-0.1-0.3-0.1-0.5c-0.1,0.2-0.3,0.3-0.5,0.4c-0.2,0.1-0.5,0.2-0.7,0.2c-0.4,0-0.6-0.1-0.9-0.3
		c-0.2-0.2-0.3-0.4-0.3-0.8c0-0.4,0.1-0.6,0.4-0.9c0.3-0.2,0.7-0.3,1.3-0.3h0.7v-0.4c0-0.3-0.1-0.5-0.2-0.6
		c-0.2-0.2-0.4-0.2-0.7-0.2c-0.3,0-0.5,0.1-0.7,0.2c-0.2,0.1-0.3,0.3-0.3,0.5l-0.4,0c0-0.3,0.1-0.5,0.4-0.8c0.3-0.2,0.6-0.3,1-0.3
		c0.4,0,0.7,0.1,1,0.3c0.2,0.2,0.4,0.5,0.4,0.9v1.8c0,0.4,0,0.6,0.1,0.8v0H152.6z M151.3,184.9c0.3,0,0.5-0.1,0.7-0.2
		c0.2-0.1,0.4-0.3,0.5-0.5v-0.8h-0.7c-0.4,0-0.7,0.1-1,0.2c-0.2,0.1-0.3,0.3-0.3,0.6c0,0.2,0.1,0.4,0.2,0.5
		C150.8,184.8,151,184.9,151.3,184.9z"/>
	<path d="M154,185.2v-3.7h1.4c0.5,0,0.8,0.1,1.1,0.3c0.3,0.2,0.4,0.4,0.4,0.7c0,0.2-0.1,0.3-0.2,0.5s-0.3,0.3-0.5,0.3
		c0.2,0,0.4,0.1,0.6,0.3c0.1,0.2,0.2,0.3,0.2,0.6c0,0.3-0.1,0.6-0.4,0.8c-0.2,0.2-0.6,0.3-1,0.3H154z M154.4,183.1h1
		c0.6,0,1-0.2,1-0.7c0-0.2-0.1-0.4-0.3-0.5c-0.2-0.1-0.4-0.2-0.8-0.2h-1V183.1z M154.4,183.4v1.4h1.2c0.3,0,0.5-0.1,0.7-0.2
		c0.2-0.1,0.2-0.3,0.2-0.5c0-0.2-0.1-0.4-0.2-0.5c-0.2-0.1-0.4-0.2-0.7-0.2H154.4z"/>
	<path d="M159.3,185.2c-0.3,0-0.6-0.1-0.9-0.2c-0.3-0.2-0.5-0.4-0.6-0.6c-0.1-0.3-0.2-0.6-0.2-0.9v-0.1c0-0.4,0.1-0.7,0.2-1
		c0.1-0.3,0.3-0.5,0.6-0.7s0.5-0.2,0.8-0.2c0.4,0,0.8,0.2,1.1,0.5c0.3,0.3,0.4,0.7,0.4,1.3v0.2h-2.6v0.1c0,0.4,0.1,0.8,0.4,1
		c0.2,0.3,0.5,0.4,0.9,0.4c0.2,0,0.4,0,0.6-0.1c0.2-0.1,0.3-0.2,0.5-0.4l0.3,0.2C160.3,185,159.9,185.2,159.3,185.2z M159.3,181.7
		c-0.3,0-0.6,0.1-0.8,0.3c-0.2,0.2-0.3,0.5-0.4,0.9h2.2v0c0-0.4-0.1-0.6-0.3-0.9C159.8,181.8,159.6,181.7,159.3,181.7z"/>
	<path d="M162.9,184.9c0.3,0,0.5-0.1,0.7-0.2c0.2-0.2,0.3-0.4,0.3-0.6h0.4c0,0.2-0.1,0.4-0.2,0.6c-0.1,0.2-0.3,0.3-0.5,0.4
		c-0.2,0.1-0.4,0.2-0.7,0.2c-0.5,0-0.9-0.2-1.2-0.5c-0.3-0.3-0.4-0.8-0.4-1.4v-0.1c0-0.4,0.1-0.7,0.2-1s0.3-0.5,0.5-0.6
		c0.2-0.2,0.5-0.2,0.8-0.2c0.4,0,0.7,0.1,1,0.4c0.3,0.2,0.4,0.6,0.4,1h-0.4c0-0.3-0.1-0.5-0.3-0.7c-0.2-0.2-0.4-0.3-0.7-0.3
		c-0.4,0-0.7,0.1-0.9,0.4c-0.2,0.3-0.3,0.6-0.3,1.1v0.1c0,0.5,0.1,0.8,0.3,1.1C162.2,184.7,162.5,184.9,162.9,184.9z"/>
	<path d="M167.8,181.8h-1.3v3.3H166v-3.3h-1.3v-0.3h3.1V181.8z"/>
	<path d="M170.9,181.5h0.4v3.7h-0.4v-3l-2,3h-0.4v-3.7h0.4v3L170.9,181.5z"/>
	<path d="M175.1,183.5h-0.6v1.7h-0.4v-3.7h0.4v1.6h0.6l1.4-1.6h0.5l-1.5,1.8l1.7,1.9h-0.5L175.1,183.5z"/>
	<path d="M180,185.2c0-0.1-0.1-0.3-0.1-0.5c-0.1,0.2-0.3,0.3-0.5,0.4c-0.2,0.1-0.5,0.2-0.7,0.2c-0.4,0-0.6-0.1-0.9-0.3
		c-0.2-0.2-0.3-0.4-0.3-0.8c0-0.4,0.1-0.6,0.4-0.9c0.3-0.2,0.7-0.3,1.3-0.3h0.7v-0.4c0-0.3-0.1-0.5-0.2-0.6
		c-0.2-0.2-0.4-0.2-0.7-0.2c-0.3,0-0.5,0.1-0.7,0.2c-0.2,0.1-0.3,0.3-0.3,0.5l-0.4,0c0-0.3,0.1-0.5,0.4-0.8c0.3-0.2,0.6-0.3,1-0.3
		c0.4,0,0.7,0.1,1,0.3c0.2,0.2,0.4,0.5,0.4,0.9v1.8c0,0.4,0,0.6,0.1,0.8v0H180z M178.8,184.9c0.3,0,0.5-0.1,0.7-0.2
		c0.2-0.1,0.4-0.3,0.5-0.5v-0.8h-0.7c-0.4,0-0.7,0.1-1,0.2c-0.2,0.1-0.3,0.3-0.3,0.6c0,0.2,0.1,0.4,0.2,0.5
		C178.3,184.8,178.5,184.9,178.8,184.9z"/>
	<path d="M183.5,184.6l1.5-3.1h0.5v3.7h-0.4v-3l-1.4,3h-0.3l-1.4-3.1v3.1h-0.4v-3.7h0.5L183.5,184.6z"/>
	<path d="M188,185.2c-0.3,0-0.6-0.1-0.9-0.2c-0.3-0.2-0.5-0.4-0.6-0.6c-0.1-0.3-0.2-0.6-0.2-0.9v-0.1c0-0.4,0.1-0.7,0.2-1
		c0.1-0.3,0.3-0.5,0.6-0.7s0.5-0.2,0.8-0.2c0.4,0,0.8,0.2,1.1,0.5c0.3,0.3,0.4,0.7,0.4,1.3v0.2h-2.6v0.1c0,0.4,0.1,0.8,0.4,1
		c0.2,0.3,0.5,0.4,0.9,0.4c0.2,0,0.4,0,0.6-0.1c0.2-0.1,0.3-0.2,0.5-0.4l0.3,0.2C189,185,188.6,185.2,188,185.2z M187.9,181.7
		c-0.3,0-0.6,0.1-0.8,0.3c-0.2,0.2-0.3,0.5-0.4,0.9h2.2v0c0-0.4-0.1-0.6-0.3-0.9C188.5,181.8,188.2,181.7,187.9,181.7z"/>
	<path d="M193.2,183.3c0,0.6-0.1,1-0.4,1.4c-0.3,0.3-0.6,0.5-1,0.5c-0.5,0-0.9-0.2-1.2-0.5v1.9h-0.4v-5.1h0.4l0,0.5
		c0.3-0.4,0.7-0.6,1.2-0.6c0.4,0,0.8,0.2,1,0.5C193,182.2,193.2,182.7,193.2,183.3L193.2,183.3z M192.7,183.3c0-0.5-0.1-0.8-0.3-1.1
		s-0.5-0.4-0.8-0.4c-0.3,0-0.5,0.1-0.6,0.2c-0.2,0.1-0.3,0.3-0.4,0.5v1.8c0.1,0.2,0.2,0.4,0.4,0.5c0.2,0.1,0.4,0.2,0.6,0.2
		c0.3,0,0.6-0.1,0.8-0.4C192.7,184.2,192.7,183.8,192.7,183.3z"/>
	<path d="M195.2,184.6l1.1-3.1h0.4l-1.6,4.3l-0.1,0.2c-0.2,0.4-0.5,0.7-0.9,0.7c-0.1,0-0.2,0-0.3,0l0-0.3l0.2,0c0.2,0,0.4,0,0.5-0.1
		c0.1-0.1,0.2-0.3,0.3-0.5l0.2-0.5l-1.4-3.7h0.4L195.2,184.6z"/>
	<path d="M201.9,185.2h-0.4v-1.7h-2v1.7h-0.4v-3.7h0.4v1.7h2v-1.7h0.4V185.2z"/>
	<path d="M205.3,185.2c0-0.1-0.1-0.3-0.1-0.5c-0.1,0.2-0.3,0.3-0.5,0.4c-0.2,0.1-0.5,0.2-0.7,0.2c-0.4,0-0.6-0.1-0.9-0.3
		c-0.2-0.2-0.3-0.4-0.3-0.8c0-0.4,0.1-0.6,0.4-0.9c0.3-0.2,0.7-0.3,1.3-0.3h0.7v-0.4c0-0.3-0.1-0.5-0.2-0.6
		c-0.2-0.2-0.4-0.2-0.7-0.2c-0.3,0-0.5,0.1-0.7,0.2c-0.2,0.1-0.3,0.3-0.3,0.5l-0.4,0c0-0.3,0.1-0.5,0.4-0.8c0.3-0.2,0.6-0.3,1-0.3
		c0.4,0,0.7,0.1,1,0.3c0.2,0.2,0.4,0.5,0.4,0.9v1.8c0,0.4,0,0.6,0.1,0.8v0H205.3z M204,184.9c0.3,0,0.5-0.1,0.7-0.2
		c0.2-0.1,0.4-0.3,0.5-0.5v-0.8h-0.7c-0.4,0-0.7,0.1-1,0.2c-0.2,0.1-0.3,0.3-0.3,0.6c0,0.2,0.1,0.4,0.2,0.5
		C203.6,184.8,203.8,184.9,204,184.9z"/>
	<path d="M211.1,181.8h-1.3v3.3h-0.4v-3.3H208v-0.3h3.1V181.8z"/>
	<path d="M214.7,183.3c0,0.6-0.1,1-0.4,1.4c-0.3,0.3-0.6,0.5-1,0.5c-0.5,0-0.9-0.2-1.2-0.5v1.9h-0.4v-5.1h0.4l0,0.5
		c0.3-0.4,0.7-0.6,1.2-0.6c0.4,0,0.8,0.2,1,0.5C214.6,182.2,214.7,182.7,214.7,183.3L214.7,183.3z M214.3,183.3
		c0-0.5-0.1-0.8-0.3-1.1s-0.5-0.4-0.8-0.4c-0.3,0-0.5,0.1-0.6,0.2c-0.2,0.1-0.3,0.3-0.4,0.5v1.8c0.1,0.2,0.2,0.4,0.4,0.5
		c0.2,0.1,0.4,0.2,0.6,0.2c0.3,0,0.6-0.1,0.8-0.4C214.2,184.2,214.3,183.8,214.3,183.3z"/>
	<path d="M218,185.2c0-0.1-0.1-0.3-0.1-0.5c-0.1,0.2-0.3,0.3-0.5,0.4c-0.2,0.1-0.5,0.2-0.7,0.2c-0.4,0-0.6-0.1-0.9-0.3
		c-0.2-0.2-0.3-0.4-0.3-0.8c0-0.4,0.1-0.6,0.4-0.9c0.3-0.2,0.7-0.3,1.3-0.3h0.7v-0.4c0-0.3-0.1-0.5-0.2-0.6
		c-0.2-0.2-0.4-0.2-0.7-0.2c-0.3,0-0.5,0.1-0.7,0.2c-0.2,0.1-0.3,0.3-0.3,0.5l-0.4,0c0-0.3,0.1-0.5,0.4-0.8c0.3-0.2,0.6-0.3,1-0.3
		c0.4,0,0.7,0.1,1,0.3c0.2,0.2,0.4,0.5,0.4,0.9v1.8c0,0.4,0,0.6,0.1,0.8v0H218z M216.7,184.9c0.3,0,0.5-0.1,0.7-0.2
		c0.2-0.1,0.4-0.3,0.5-0.5v-0.8h-0.7c-0.4,0-0.7,0.1-1,0.2c-0.2,0.1-0.3,0.3-0.3,0.6c0,0.2,0.1,0.4,0.2,0.5
		C216.3,184.8,216.5,184.9,216.7,184.9z"/>
	<path d="M221.7,181.8h-1.9v3.3h-0.4v-3.7h2.3V181.8z"/>
	<path d="M223.7,185.2c-0.3,0-0.6-0.1-0.9-0.2c-0.3-0.2-0.5-0.4-0.6-0.6c-0.1-0.3-0.2-0.6-0.2-0.9v-0.1c0-0.4,0.1-0.7,0.2-1
		c0.1-0.3,0.3-0.5,0.6-0.7s0.5-0.2,0.8-0.2c0.4,0,0.8,0.2,1.1,0.5c0.3,0.3,0.4,0.7,0.4,1.3v0.2h-2.6v0.1c0,0.4,0.1,0.8,0.4,1
		c0.2,0.3,0.5,0.4,0.9,0.4c0.2,0,0.4,0,0.6-0.1c0.2-0.1,0.3-0.2,0.5-0.4l0.3,0.2C224.7,185,224.3,185.2,223.7,185.2z M223.6,181.7
		c-0.3,0-0.6,0.1-0.8,0.3c-0.2,0.2-0.3,0.5-0.4,0.9h2.2v0c0-0.4-0.1-0.6-0.3-0.9C224.2,181.8,223.9,181.7,223.6,181.7z"/>
	<path d="M228.5,181.8h-1.3v3.3h-0.4v-3.3h-1.3v-0.3h3.1V181.8z"/>
</g>
</svg>
