<?xml version="1.0" encoding="utf-8"?>
<!-- Generator: Adobe Illustrator 19.0.0, SVG Export Plug-In . SVG Version: 6.00 Build 0)  -->
<svg version="1.1" id="Layer_1" xmlns="http://www.w3.org/2000/svg" xmlns:xlink="http://www.w3.org/1999/xlink" x="0px" y="0px"
	 viewBox="450 38 24 24" style="enable-background:new 450 38 24 24;" xml:space="preserve">
<g>
	<path d="M467.4,38h-10.8c-3.7,0-6.6,3-6.6,6.6v10.8c0,3.7,3,6.6,6.6,6.6h10.8c3.7,0,6.6-3,6.6-6.6V44.6C474,41,471,38,467.4,38z
		 M471.9,55.4c0,2.5-2,4.5-4.5,4.5h-10.8c-2.5,0-4.5-2-4.5-4.5V44.6c0-2.5,2-4.5,4.5-4.5h10.8c2.5,0,4.5,2,4.5,4.5L471.9,55.4
		L471.9,55.4z"/>
	<path d="M462,43.8c-3.4,0-6.2,2.8-6.2,6.2c0,3.4,2.8,6.2,6.2,6.2s6.2-2.8,6.2-6.2C468.2,46.6,465.4,43.8,462,43.8z M462,54.1
		c-2.2,0-4.1-1.8-4.1-4.1c0-2.2,1.8-4.1,4.1-4.1s4.1,1.8,4.1,4.1C466.1,52.2,464.2,54.1,462,54.1z"/>
	<path d="M468.4,42c-0.4,0-0.8,0.2-1.1,0.5c-0.3,0.3-0.5,0.7-0.5,1.1c0,0.4,0.2,0.8,0.5,1.1c0.3,0.3,0.7,0.5,1.1,0.5
		c0.4,0,0.8-0.2,1.1-0.5c0.3-0.3,0.5-0.7,0.5-1.1c0-0.4-0.2-0.8-0.5-1.1C469.3,42.2,468.9,42,468.4,42z"/>
</g>
</svg>
