<?xml version="1.0" encoding="utf-8"?>
<!-- Generator: Adobe Illustrator 21.0.2, SVG Export Plug-In . SVG Version: 6.00 Build 0)  -->
<svg version="1.1" id="Layer_1" xmlns="http://www.w3.org/2000/svg" xmlns:xlink="http://www.w3.org/1999/xlink" x="0px" y="0px"
	 viewBox="0 0 82.3 96" style="enable-background:new 0 0 82.3 96;" xml:space="preserve">
<style type="text/css">
	.st0{fill:#8B52A0;}
</style>
<g id="XMLID_2_">
	<path id="XMLID_9_" class="st0" d="M82.3,70.4c-2.3,5-3.3,7.2-6.2,11.6c-4,6.2-9.7,13.8-16.8,13.9c-6.3,0.1-7.9-4.1-16.4-4
		c-8.5,0-10.3,4.1-16.6,4.1c-7.1-0.1-12.5-7-16.5-13.1C-1.5,65.7-2.7,45.5,4.3,34.7c5-7.6,12.8-12.1,20.1-12.1
		c7.5,0,12.2,4.1,18.4,4.1c6,0,9.7-4.1,18.3-4.1c6.5,0,13.5,3.6,18.4,9.7C63.3,41.1,65.9,64.2,82.3,70.4z"/>
	<g id="XMLID_7_">
		<path id="XMLID_8_" class="st0" d="M54.5,15.6c3.1-4,5.5-9.7,4.7-15.6c-5.1,0.4-11.1,3.6-14.7,7.9c-3.2,3.9-5.8,9.6-4.8,15.2
			C45.3,23.3,51.1,20,54.5,15.6z"/>
	</g>
</g>
</svg>
