<?xml version="1.0" encoding="utf-8"?>
<!-- Generator: Adobe Illustrator 19.0.1, SVG Export Plug-In . SVG Version: 6.00 Build 0)  -->
<svg version="1.1" id="Слой_1" xmlns="http://www.w3.org/2000/svg" xmlns:xlink="http://www.w3.org/1999/xlink" x="0px" y="0px"
	 viewBox="0 0 70 70" style="enable-background:new 0 0 70 70;" xml:space="preserve">
<style type="text/css">
	.st0{fill:none;}
	.st1{fill:#DDAC35;}
</style>
<g>
	<path class="st0" d="M35,14.6c-11.3,0-20.4,9.1-20.4,20.4S23.7,55.4,35,55.4S55.4,46.3,55.4,35S46.3,14.6,35,14.6z M35,52.2
		c-9.5,0-17.2-7.7-17.2-17.2c0-9.5,7.7-17.2,17.2-17.2S52.2,25.5,52.2,35C52.2,44.5,44.5,52.2,35,52.2z"/>
	<path class="st1" d="M68.1,39.6v-9.2l-8-2.3c-0.6-2.1-1.4-4.1-2.4-5.9l4-7.3l-6.5-6.5l-7.3,4c-1.8-1.1-3.8-1.9-5.9-2.4l-2.3-8h-9.2
		l-2.3,8c-2.1,0.6-4.1,1.4-5.9,2.4l-7.3-4l-6.5,6.5l4,7.3c-1,1.8-1.9,3.8-2.4,5.9l-8,2.3v9.2l8,2.3c0.6,2.1,1.4,4.1,2.4,5.9l-4,7.3
		l6.5,6.5l7.3-4c1.8,1,3.8,1.9,5.9,2.4l2.3,8h9.2l2.3-8c2.1-0.6,4.1-1.4,5.9-2.4l7.3,4l6.5-6.5l-4-7.3c1-1.8,1.9-3.8,2.4-5.9
		L68.1,39.6z M35,55.4c-11.3,0-20.4-9.1-20.4-20.4S23.7,14.6,35,14.6S55.4,23.7,55.4,35S46.3,55.4,35,55.4z"/>
	<path class="st1" d="M41.7,29.4c-0.8,0-1.3,0.1-1.5,0.1v4.1h1.3c1.7,0,2.7-0.8,2.7-2.1C44.2,30.1,43.3,29.4,41.7,29.4z"/>
	<path class="st1" d="M28,29.5L28,29.5c-0.3,0.9-0.5,2-0.7,2.9l-0.9,3.1h3.3l-0.9-3.1C28.5,31.5,28.2,30.4,28,29.5z"/>
	<path class="st1" d="M35,17.8c-9.5,0-17.2,7.7-17.2,17.2c0,9.5,7.7,17.2,17.2,17.2S52.2,44.5,52.2,35C52.2,25.5,44.5,17.8,35,17.8z
		 M31.3,41.9l-1.1-3.8h-4.2l-1.1,3.8h-3.5L25.9,27h4.4l4.6,14.8H31.3z M46.9,37.7c0.5,1.7,0.9,3.6,1.2,4.2h-3.4
		c-0.2-0.4-0.6-1.6-1-3.5c-0.4-1.8-1-2.4-2.4-2.4h-1v5.8h-3.3V27.2c1.1-0.2,2.7-0.3,4.5-0.3c2.2,0,3.7,0.3,4.8,1.2
		c0.9,0.7,1.4,1.7,1.4,3.1c0,1.9-1.3,3.2-2.6,3.7v0.1C45.9,35.3,46.5,36.3,46.9,37.7z"/>
</g>
</svg>
