<?xml version="1.0" encoding="utf-8"?>
<!-- Generator: Adobe Illustrator 19.0.0, SVG Export Plug-In . SVG Version: 6.00 Build 0)  -->
<svg version="1.1" id="Слой_1" xmlns="http://www.w3.org/2000/svg" xmlns:xlink="http://www.w3.org/1999/xlink" x="0px" y="0px"
	 viewBox="40 -40 150 150" style="enable-background:new 40 -40 150 150;" xml:space="preserve">
<style type="text/css">
	.st0{fill:none;}
	.st1{fill:#686868;}
</style>
<g>
	<path class="st0" d="M140.9,23.7c-5.5,0-9.8,4.5-9.8,10s4.5,9.8,10,9.8c5.5,0,9.8-4.5,9.8-9.8l0,0
		C150.7,28.1,146.3,23.7,140.9,23.7z"/>
	<path class="st0" d="M88.9,23.7c-5.5,0-9.8,4.5-9.8,10s4.5,9.8,10,9.8c5.5,0,9.8-4.5,9.8-9.8l0,0C98.7,28.1,94.3,23.7,88.9,23.7z"
		/>
	<path class="st1" d="M173.8,22.7h-1V11.6c0-4.6-3.8-8.4-8.4-8.4h-38.6v-1c0-1.9-1.4-3.3-3.3-3.3h-15c-1.9,0-3.3,1.4-3.3,3.3v1H65.6
		c-4.6,0-8.4,3.8-8.4,8.4v11.1h-1c-1.9,0-3.3,1.4-3.3,3.3v15c0,1.9,1.4,3.3,3.3,3.3h1v11.1c0,4.6,3.8,8.4,8.4,8.4h38.6
		c1,0,2-0.6,2.5-1.4l5.8-11.7c0.7-1.3,2.3-1.9,3.6-1.3c0.6,0.3,1,0.7,1.3,1.3l5.5,11.6c0.4,1,1.4,1.6,2.6,1.6h39
		c4.6,0,8.4-3.8,8.4-8.4V44.4h1c1.9,0,3.3-1.4,3.3-3.3v-15C177.1,24.3,175.5,22.7,173.8,22.7z M89,43.5c-5.5,0-9.8-4.3-10-9.8
		c0-5.5,4.3-9.8,9.8-10c5.5,0,9.8,4.3,10,9.8l0,0C98.8,39.1,94.3,43.5,89,43.5z M141,43.5c-5.5,0-9.8-4.3-10-9.8
		c0-5.5,4.3-9.8,9.8-10c5.5,0,9.8,4.3,10,9.8l0,0C150.8,39.1,146.3,43.5,141,43.5z"/>
</g>
</svg>
