<?xml version="1.0" encoding="utf-8"?>
<!-- Generator: Adobe Illustrator 19.0.0, SVG Export Plug-In . SVG Version: 6.00 Build 0)  -->
<svg version="1.1" id="Layer_1" xmlns="http://www.w3.org/2000/svg" xmlns:xlink="http://www.w3.org/1999/xlink" x="0px" y="0px"
	 viewBox="0 0 70 70" style="enable-background:new 0 0 70 70;" xml:space="preserve">
<style type="text/css">
	.st0{fill:#010101;}
</style>
<g id="XMLID_246_">
	<g id="XMLID_30_">
		<path id="XMLID_31_" class="st0" d="M27.3,32.5v5c0,0,5.1,0,7.2,0c-1.1,3.2-2.9,5-7.2,5c-4.4,0-7.8-3.3-7.8-7.5s3.4-7.5,7.8-7.5
			c2.3,0,3.8,0.8,5.2,1.8c1.1-1,1-1.2,3.8-3.7c-2.4-2-5.5-3.3-9-3.3c-7.4,0-13.4,5.6-13.4,12.6s6,12.6,13.4,12.6
			c11,0,13.7-9.1,12.8-15.1C37.5,32.5,27.3,32.5,27.3,32.5z M51.4,32.8v-4.4h-3.3v4.4h-4.8v3.1h4.8v4.5h3.3v-4.5h4.6v-3.1H51.4z"/>
	</g>
</g>
</svg>
