<?xml version="1.0" encoding="utf-8"?>
<!-- Generator: Adobe Illustrator 19.0.0, SVG Export Plug-In . SVG Version: 6.00 Build 0)  -->
<svg version="1.1" id="Слой_1" xmlns="http://www.w3.org/2000/svg" xmlns:xlink="http://www.w3.org/1999/xlink" x="0px" y="0px"
	 viewBox="0 0 150 150" style="enable-background:new 0 0 150 150;" xml:space="preserve">
<style type="text/css">
	.st0{fill:none;}
	.st1{fill:#686868;}
	.st2{fill:#8C40CC;}
</style>
<g>
	<path class="st0" d="M66.8,88.6c-3.8,0-6.8,3.1-6.8,6.9c0,3.8,3.1,6.8,6.9,6.8c3.8,0,6.8-3.1,6.8-6.8c0,0,0,0,0,0
		C73.6,91.6,70.6,88.6,66.8,88.6z"/>
	<path class="st0" d="M30.8,88.6c-3.8,0-6.8,3.1-6.8,6.9c0,3.8,3.1,6.8,6.9,6.8c3.8,0,6.8-3.1,6.8-6.8c0,0,0,0,0,0
		C37.6,91.6,34.6,88.6,30.8,88.6z"/>
	<path class="st1" d="M89.6,87.9h-0.7v-7.7c0-3.2-2.6-5.8-5.8-5.8H56.4v-0.7c0-1.3-1-2.3-2.3-2.3H43.7c-1.3,0-2.3,1-2.3,2.3v0.7
		H14.7c-3.2,0-5.8,2.6-5.8,5.8v7.7H8.2c-1.3,0-2.3,1-2.3,2.3v10.4c0,1.3,1,2.3,2.3,2.3h0.7v7.7c0,3.2,2.6,5.8,5.8,5.8h26.7
		c0.7,0,1.4-0.4,1.7-1l4-8.1c0.5-0.9,1.6-1.3,2.5-0.9c0.4,0.2,0.7,0.5,0.9,0.9l3.8,8c0.3,0.7,1,1.1,1.8,1.1h27
		c3.2,0,5.8-2.6,5.8-5.8v-7.7h0.7c1.3,0,2.3-1,2.3-2.3V90.2C91.9,89,90.8,87.9,89.6,87.9z M30.9,102.3c-3.8,0-6.8-3-6.9-6.8
		c0-3.8,3-6.8,6.8-6.9c3.8,0,6.8,3,6.9,6.8c0,0,0,0,0,0C37.7,99.2,34.6,102.3,30.9,102.3z M66.9,102.3c-3.8,0-6.8-3-6.9-6.8
		c0-3.8,3-6.8,6.8-6.9c3.8,0,6.8,3,6.9,6.8c0,0,0,0,0,0C73.7,99.2,70.6,102.3,66.9,102.3z"/>
</g>
<g transform="translate(-15,-978.36218)">
	<path class="st2" d="M127.6,1015.2c0.3,0,0.6,0.3,0.6,0.6c0,0.3-0.3,0.6-0.6,0.6c-0.3,0-0.6-0.3-0.6-0.6
		C127,1015.5,127.3,1015.2,127.6,1015.2z M118,1011.1c-2.9,0-5.3,2.3-5.3,5.2v73.2c0,2.9,2.4,5.3,5.3,5.3h30c2.9,0,5.3-2.4,5.3-5.3
		v-73.2c0-2.9-2.4-5.2-5.3-5.2H118z M130,1015.2h6c0.3,0,0.6,0.3,0.6,0.6c0,0.3-0.3,0.6-0.6,0.6h-6c-0.3,0-0.6-0.3-0.6-0.6
		C129.4,1015.5,129.7,1015.2,130,1015.2z M136,1089.4c0,1.7-1.4,3-3,3c-1.7,0-3-1.3-3-3c0-1.7,1.4-3,3-3
		C134.7,1086.4,136,1087.7,136,1089.4z M115.1,1020.6h35.9v63.4h-35.9V1020.6z"/>
</g>
</svg>
