<?xml version="1.0" encoding="utf-8"?>
<!-- Generator: Adobe Illustrator 19.0.0, SVG Export Plug-In . SVG Version: 6.00 Build 0)  -->
<svg version="1.1" id="Layer_1" xmlns="http://www.w3.org/2000/svg" xmlns:xlink="http://www.w3.org/1999/xlink" x="0px" y="0px"
	 viewBox="0 0 70 70" style="enable-background:new 0 0 70 70;" xml:space="preserve">
<style type="text/css">
	.st0{fill:none;stroke:#FFFFFF;stroke-miterlimit:10;}
</style>
<g id="XMLID_3_">
	<g id="XMLID_4_">
		<path id="XMLID_1_" class="st0" d="M32.5,47.5c-0.7,0.1-1.4-0.2-2-0.5c-1.4-0.6-3-1.1-4.6-1.4c-0.6-0.1-1.1-0.2-1.7,0
			c-0.5,0.2-0.8,0.6-1.1,1.1c-1.7,2.3-3.2,4.7-4.4,7.3c-0.8,1.8-1.6,3.7-1.3,5.7c0.3,1.9,1.7,3.6,3.4,4.5c1.8,0.9,3.8,1.2,5.7,1
			c3.9-0.4,7.5-2.5,10.6-4.9c8.8-7,14.6-17.3,17.6-28.2c1.3-4.6,2.1-9.4,1.5-14.1c-0.6-4.5-4.7-15.2-11.1-12.7
			c-1.4,0.6-2.5,1.7-3.5,2.9c-2,2.4-3.6,5.3-4.5,8.3c-0.6,1.8-0.8,4,0.4,5.4c1.4,1.7,4.3,1.6,5.3,3.5c0.6,1,0.4,2.3,0.1,3.4
			c-1.4,6.5-4.4,12.5-8.7,17.6c-0.5,0.5-1,1-1.6,1.2C32.7,47.5,32.6,47.5,32.5,47.5z"/>
	</g>
</g>
</svg>
