<?xml version="1.0" encoding="utf-8"?>
<!-- Generator: Adobe Illustrator 21.0.2, SVG Export Plug-In . SVG Version: 6.00 Build 0)  -->
<svg version="1.1" id="Layer_1" xmlns="http://www.w3.org/2000/svg" xmlns:xlink="http://www.w3.org/1999/xlink" x="0px" y="0px"
	 viewBox="0 0 91.6 61.6" style="enable-background:new 0 0 91.6 61.6;" xml:space="preserve">
<style type="text/css">
	.st0{fill:#8B52A0;}
</style>
<path id="XMLID_2_" class="st0" d="M82.5,9.9c-2.3-3.5-5.1-6.5-9-8.3c-4.6-2.1-9.2-1.9-13.9-0.4c-2.6,0.8-5,2.1-7.2,3.6
	C50.8,5.9,49,6.5,47,6.5c-0.3,0-2.2,0-2.5,0c-2,0-3.8-0.5-5.4-1.7c-2.2-1.6-4.6-2.8-7.2-3.6C27.2-0.3,22.6-0.5,18,1.6
	c-3.9,1.8-6.8,4.8-9,8.3c-6,9.4-8.7,19.8-9,30.8c-0.1,3.3,0.2,6.6,0.6,9.8c0.2,2,0.7,4.1,1.4,6c1.8,5.1,7.4,6.5,11.3,3.7
	c1.5-1.1,3-2.1,4.3-3.4c3.2-3.1,6.2-6.4,9.3-9.7c1.4-1.4,3-2.3,5-2.3c4.5,0,23.3,0,27.8,0c2,0,3.6,0.8,5,2.3
	c3.1,3.2,6.2,6.5,9.3,9.7c1.3,1.3,2.8,2.3,4.3,3.4c3.9,2.8,9.5,1.4,11.3-3.7c0.7-1.9,1.2-4,1.4-6c0.4-3.3,0.6-6.6,0.6-9.8
	C91.2,29.7,88.5,19.3,82.5,9.9z M34.1,27c0,0.5-0.4,0.9-0.9,0.9h-7.6v7.5c0,0.5-0.4,0.9-0.9,0.9h-4.3c-0.5,0-0.9-0.4-0.9-0.9v-7.5
	H12c-0.5,0-0.9-0.4-0.9-0.9v-4.3c0-0.5,0.4-0.9,0.9-0.9h7.5v-7.5c0-0.5,0.4-0.9,0.9-0.9h4.3c0.5,0,0.9,0.4,0.9,0.9v7.5h7.5
	c0.5,0,0.9,0.4,0.9,0.9L34.1,27L34.1,27z M62.3,31.6c-2.2,0.6-4.4-0.6-5.1-2.8c-0.6-2.2,0.6-4.4,2.8-5.1c2.2-0.6,4.4,0.6,5.1,2.8
	C65.7,28.7,64.5,31,62.3,31.6z M65.8,17.9c-0.6-2.2,0.6-4.4,2.8-5.1c2.2-0.6,4.4,0.6,5.1,2.8c0.6,2.2-0.6,4.4-2.8,5.1
	C68.7,21.3,66.5,20,65.8,17.9z M75.5,33.7c-2.2,0.6-4.4-0.6-5.1-2.8c-0.6-2.2,0.6-4.4,2.8-5.1c2.2-0.6,4.4,0.6,5.1,2.8
	C78.9,30.8,77.6,33.1,75.5,33.7z"/>
</svg>
