<?xml version="1.0" encoding="utf-8"?>
<!-- Generator: Adobe Illustrator 19.0.1, SVG Export Plug-In . SVG Version: 6.00 Build 0)  -->
<svg version="1.1" id="Layer_1" xmlns="http://www.w3.org/2000/svg" xmlns:xlink="http://www.w3.org/1999/xlink" x="0px" y="0px"
	 viewBox="-233.1 371.8 96.2 50.4" style="enable-background:new -233.1 371.8 96.2 50.4;" xml:space="preserve">
<style type="text/css">
	.st0{fill:#8B52A0;}
</style>
<g id="XMLID_3_">
	<path id="XMLID_4_" class="st0" d="M-139.6,390.3h-0.8v-8.6c0-3.6-2.9-6.5-6.5-6.5h-29.7v-0.8c0-1.4-1.1-2.6-2.6-2.6h-11.6
		c-1.4,0-2.6,1.1-2.6,2.6v0.8h-29.8c-3.6,0-6.5,2.9-6.5,6.5v8.6h-0.8c-1.4,0-2.6,1.1-2.6,2.6v11.6c0,1.4,1.1,2.6,2.6,2.6h0.8v8.6
		c0,3.6,2.9,6.5,6.5,6.5h29.8c0.8,0,1.5-0.4,1.9-1.1l4.5-9.1c0.5-1.1,1.8-1.5,2.8-1c0.4,0.2,0.8,0.6,1,1l4.3,8.9
		c0.4,0.8,1.1,1.3,2,1.3h30.1c3.6,0,6.5-2.9,6.5-6.5V407h0.8c1.4,0,2.6-1.1,2.6-2.6v-11.5C-137,391.5-138.1,390.3-139.6,390.3z
		 M-205.1,406.3c-4.2,0-7.6-3.4-7.7-7.6c0-4.2,3.4-7.6,7.6-7.7c4.2,0,7.6,3.4,7.7,7.6l0,0C-197.5,402.9-200.9,406.3-205.1,406.3z
		 M-164.9,406.3c-4.2,0-7.6-3.4-7.7-7.6c0-4.2,3.4-7.6,7.6-7.7c4.2,0,7.6,3.4,7.7,7.6l0,0C-157.3,402.9-160.7,406.3-164.9,406.3z"/>
</g>
</svg>
