<?xml version="1.0" encoding="utf-8"?>
<!-- Generator: Adobe Illustrator 19.0.1, SVG Export Plug-In . SVG Version: 6.00 Build 0)  -->
<svg version="1.1"
	 id="Слой_1" xmlns:svg="http://www.w3.org/2000/svg" xmlns:rdf="http://www.w3.org/1999/02/22-rdf-syntax-ns#" xmlns:sodipodi="http://sodipodi.sourceforge.net/DTD/sodipodi-0.dtd" xmlns:inkscape="http://www.inkscape.org/namespaces/inkscape" xmlns:dc="http://purl.org/dc/elements/1.1/" xmlns:cc="http://creativecommons.org/ns#"
	 xmlns="http://www.w3.org/2000/svg" xmlns:xlink="http://www.w3.org/1999/xlink" x="0px" y="0px" viewBox="-249 88 100 125"
	 style="enable-background:new -249 88 100 125;" xml:space="preserve">
<g transform="translate(0,-952.36218)">
	<path d="M-199,1058.4c-14.3,0-26,11.6-26,26c0,3.4,0.9,7.4,2.1,10.3c7.7,15.7,15.4,31.4,23,47.1c0.3,0.7,1.5,0.7,1.8,0
		c7.6-15.7,15.5-31.3,23-47.1c1.1-2.9,2.1-7,2.1-10.3C-173,1070-184.7,1058.4-199,1058.4L-199,1058.4z M-199,1060.4
		c13.3,0,24,10.7,24,24c-0.3,3.3-0.8,6.7-1.9,9.6l-22.1,45.1l-22.1-45.1c-0.9-3.2-1.9-6.6-1.9-9.6
		C-223,1071.1-212.3,1060.4-199,1060.4z M-199,1070.4c-7.7,0-14,6.3-14,14c0,7.7,6.2,14,14,14c7.7,0,14-6.3,14-14
		C-185,1076.7-191.3,1070.4-199,1070.4z M-199,1072.4c6.6,0,12,5.4,12,12s-5.4,12-12,12c-6.6,0-12-5.3-12-12
		C-211,1077.7-205.7,1072.4-199,1072.4z"/>
</g>
</svg>
