<?xml version="1.0" encoding="utf-8"?>
<!-- Generator: Adobe Illustrator 19.0.0, SVG Export Plug-In . SVG Version: 6.00 Build 0)  -->
<svg version="1.1" id="Layer_1" xmlns="http://www.w3.org/2000/svg" xmlns:xlink="http://www.w3.org/1999/xlink" x="0px" y="0px"
	 viewBox="-733 740 32 22" style="enable-background:new -733 740 32 22;" xml:space="preserve">
<g id="mail-icon">
	<path d="M-702.8,740.2h-28.5c-1,0-1.8,0.8-1.8,1.8V760c0,1,0.8,1.8,1.8,1.8h28.5c1,0,1.8-0.8,1.8-1.8v-18.1
		C-701,741-701.8,740.2-702.8,740.2z M-716.8,755.2c-0.3,0.3-0.5,0.3-0.8,0l-13-13.6h27.4L-716.8,755.2z M-722.6,752l-9.1,7.8v-17.2
		L-722.6,752z M-721.6,753l3,3c0.5,0.5,0.9,0.6,1.4,0.6s1-0.2,1.4-0.6l3.4-3.4c0,0.1,0.1,0.2,0.2,0.2l8.7,7.6h-26.6L-721.6,753z
		 M-702.5,759.6l-8.9-7.8c0,0-0.1-0.1-0.2-0.1l9.2-9.2v17.4C-702.4,759.8-702.4,759.6-702.5,759.6z"/>
</g>
</svg>
