<?xml version="1.0" encoding="utf-8"?>
<!-- Generator: Adobe Illustrator 19.0.0, SVG Export Plug-In . SVG Version: 6.00 Build 0)  -->
<svg version="1.1" id="Layer_3" xmlns="http://www.w3.org/2000/svg" xmlns:xlink="http://www.w3.org/1999/xlink" x="0px" y="0px"
	 viewBox="0 0 50 50" style="enable-background:new 0 0 50 50;" xml:space="preserve">
<g id="XMLID_3_">
	<path id="XMLID_58_" d="M17.4,0H0v17.4h17.4V0z M13.9,13.9H3.5V3.5h10.4V13.9z"/>
	<rect id="XMLID_57_" x="5" y="5" width="7.3" height="7.3"/>
	<path id="XMLID_54_" d="M0,50h17.4V32.6H0V50z M3.5,36.1h10.4v10.4H3.5V36.1z"/>
	<rect id="XMLID_53_" x="5" y="37.7" width="7.3" height="7.3"/>
	<path id="XMLID_23_" d="M32.6,0v17.4H50V0H32.6z M46.5,13.9H36.1V3.5h10.4V13.9z"/>
	<rect id="XMLID_12_" x="37.7" y="5" width="7.3" height="7.3"/>
	<polygon id="XMLID_7_" points="41.7,31.3 41.7,27.8 38.3,27.8 38.3,31.3 31.3,31.3 31.3,34.8 27.8,34.8 27.8,41.7 34.8,41.7 
		34.8,38.3 41.7,38.3 41.7,34.8 45.2,34.8 45.2,45.2 24.3,45.2 24.3,27.8 13.9,27.8 13.9,31.3 7,31.3 7,27.8 0,27.8 0,24.3 
		3.5,24.3 3.5,20.9 7,20.9 7,24.3 20.9,24.3 20.9,20.9 24.3,20.9 24.3,17.4 20.9,17.4 20.9,13.9 27.8,13.9 27.8,7 20.9,7 20.9,3.5 
		24.3,3.5 24.3,0 27.8,0 27.8,3.5 31.3,3.5 31.3,17.4 27.8,17.4 27.8,24.3 45.2,24.3 45.2,31.3 	"/>
	<rect id="XMLID_6_" x="38.3" y="31.3" width="3.5" height="3.5"/>
	<rect id="XMLID_4_" x="31.3" y="34.8" width="3.5" height="3.5"/>
</g>
</svg>
