<?xml version="1.0" encoding="utf-8"?>
<!-- Generator: Adobe Illustrator 19.0.0, SVG Export Plug-In . SVG Version: 6.00 Build 0)  -->
<svg version="1.1" id="Layer_1" xmlns="http://www.w3.org/2000/svg" xmlns:xlink="http://www.w3.org/1999/xlink" x="0px" y="0px"
	 viewBox="-9 -5 50 80" style="enable-background:new -9 -5 50 80;" xml:space="preserve">
<g id="XMLID_159_" transform="translate(0,-952.36218)">
	<path id="XMLID_164_" d="M-1.5,948c-2.5,0-4.4,2-4.4,4.4v69.9c0,2.5,2,4.4,4.4,4.4h35c2.5,0,4.4-2,4.4-4.4v-69.9
		c0-2.5-2-4.4-4.4-4.4H-1.5z M5.6,951.4h20.7v2H5.6V951.4z M-4.2,956.6h40.6v61.1H-4.2V956.6z M15.9,1018.6c2,0,3.7,1.7,3.7,3.9
		c0,2.2-1.7,3.7-3.7,3.7s-3.7-1.7-3.7-3.7C12.3,1020.6,13.7,1018.6,15.9,1018.6z"/>
</g>
</svg>
