<?xml version="1.0" encoding="utf-8"?>
<!-- Generator: Adobe Illustrator 19.0.0, SVG Export Plug-In . SVG Version: 6.00 Build 0)  -->
<svg version="1.1" id="Layer_3" xmlns="http://www.w3.org/2000/svg" xmlns:xlink="http://www.w3.org/1999/xlink" x="0px" y="0px"
	 viewBox="0 0 50 50" style="enable-background:new 0 0 50 50;" xml:space="preserve">
<path id="XMLID_9_" d="M47.6,14.3H37.1V7.6c0-0.7-0.5-1.2-1.2-1.2H14.1c-0.7,0-1.2,0.5-1.2,1.2v6.7H2.4c-1.3,0-2.4,1.1-2.4,2.4v17.4
	c0,1.3,1.1,2.4,2.4,2.4h6.3v5.9c0,0.7,0.5,1.2,1.2,1.2h30.1c0.7,0,1.2-0.5,1.2-1.2v-5.9h6.3c1.3,0,2.4-1.1,2.4-2.4V16.7
	C50,15.4,48.9,14.3,47.6,14.3z M16.5,9.3h16.9v5H16.5V9.3z M37.5,40.1h-25V29.1h25V40.1z M42.8,20.6c0,0.7-0.5,1.2-1.2,1.2h-4.9
	c-0.7,0-1.2-0.5-1.2-1.2v-0.3c0-0.7,0.5-1.2,1.2-1.2h4.9c0.7,0,1.2,0.5,1.2,1.2V20.6z"/>
</svg>
