<?xml version="1.0" encoding="utf-8"?>
<!-- Generator: Adobe Illustrator 19.0.0, SVG Export Plug-In . SVG Version: 6.00 Build 0)  -->
<svg version="1.1" xmlns="http://www.w3.org/2000/svg" xmlns:xlink="http://www.w3.org/1999/xlink" x="0px" y="0px"
	 viewBox="0 0 50 50" style="enable-background:new 0 0 50 50;" xml:space="preserve">
<g id="Layer_3">
</g>
<g id="Layer_2">
	<path id="XMLID_6_" d="M48.9,5.1H1.1C0.5,5.1,0,5.6,0,6.2v37.5c0,0.6,0.5,1.1,1.1,1.1h47.8c0.6,0,1.1-0.5,1.1-1.1V6.2
		C50,5.6,49.5,5.1,48.9,5.1z M10,43.2H2.2v-7.8H10V43.2z M10,33.7H2.2v-7.8H10V33.7z M10,24.2H2.2v-7.8H10V24.2z M10,14.6H2.2V6.8
		H10V14.6z M19.6,35.3V14.7l13,10.3L19.6,35.3z M47.8,43.2H40v-7.8h7.8V43.2z M47.8,33.7H40v-7.8h7.8V33.7z M47.8,24.1H40v-7.8h7.8
		V24.1z M47.8,14.6H40V6.8h7.8V14.6z"/>
</g>
</svg>
