<?xml version="1.0" encoding="utf-8"?>
<!-- Generator: Adobe Illustrator 19.0.0, SVG Export Plug-In . SVG Version: 6.00 Build 0)  -->
<svg version="1.1" id="Layer_1" xmlns="http://www.w3.org/2000/svg" xmlns:xlink="http://www.w3.org/1999/xlink" x="0px" y="0px"
	 viewBox="0 0 70 70" style="enable-background:new 0 0 70 70;" xml:space="preserve">
<path id="XMLID_2_" d="M57.4,21.1c-1.6,0.7-3.4,1.2-5.3,1.4c1.9-1.1,3.4-2.9,4-5.1c-1.8,1.1-3.7,1.8-5.8,2.2
	c-1.7-1.8-4.1-2.9-6.7-2.9c-5.1,0-9.2,4.1-9.2,9.2c0,0.7,0.1,1.4,0.2,2.1c-7.6-0.4-14.4-4-18.9-9.6c-0.8,1.4-1.2,2.9-1.2,4.6
	c0,3.2,1.6,6,4.1,7.7c-1.5,0-2.9-0.5-4.2-1.1c0,0,0,0.1,0,0.1c0,4.5,3.2,8.2,7.4,9c-0.8,0.2-1.6,0.3-2.4,0.3c-0.6,0-1.2-0.1-1.7-0.2
	c1.2,3.6,4.6,6.3,8.6,6.4c-3.1,2.5-7.1,3.9-11.4,3.9c-0.7,0-1.5,0-2.2-0.1c4.1,2.6,8.9,4.1,14.1,4.1c16.9,0,26.1-14,26.1-26.1
	c0-0.4,0-0.8,0-1.2C54.6,24.6,56.2,23,57.4,21.1z"/>
</svg>
