<?xml version="1.0" encoding="utf-8"?>
<!-- Generator: Adobe Illustrator 19.0.0, SVG Export Plug-In . SVG Version: 6.00 Build 0)  -->
<svg version="1.1" id="Layer_1" xmlns="http://www.w3.org/2000/svg" xmlns:xlink="http://www.w3.org/1999/xlink" x="0px" y="0px"
	 viewBox="-741 738 16 26" style="enable-background:new -741 738 16 26;" xml:space="preserve">
<g>
	<path d="M-725.5,741.5c-0.4-1.3-1.2-2.3-2.3-2.9c-0.2-0.1-0.4-0.2-0.6-0.2l0,0l-1.8-0.4c-0.6-0.1-1.3,0.2-1.6,0.9l-1.7,4.1
		c-0.2,0.4-0.2,0.9-0.1,1.3c0.1,0.3,0.3,0.5,0.6,0.6l1.9,0.9l0,0c0.4,0.2,0.7,0.6,0.8,1c0.3,1.1,0.2,2.2-0.3,3.2l-1.6,3.8
		c-0.8,1.8-2.3,2.9-3.3,2.3l-2-1c-0.6-0.3-1.3,0.1-1.7,0.9l-1.8,4.1c-0.1,0.9,0,1.6,0.6,2l1.4,1.2c0.2,0.1,0.3,0.2,0.5,0.3
		c0.5,0.3,1.1,0.4,1.7,0.4c3.3,0,7.3-3.9,9.9-9.9C-725,749.5-724.4,744.7-725.5,741.5z M-727.9,753.7c-2.6,6.2-7.3,10.3-10.2,8.9
		c-0.1-0.1-0.2-0.1-0.4-0.2l-1.4-1.1c-0.1-0.1-0.1-0.3-0.1-0.5l1.8-4.1c0.1-0.2,0.2-0.3,0.3-0.4l2,1c1.6,0.8,3.6-0.5,4.7-2.9
		l1.6-3.8c0.6-1.3,0.7-2.7,0.3-4c-0.2-0.7-0.7-1.3-1.3-1.6l0,0l-2-1c-0.1-0.2,0-0.4,0-0.5l1.8-4.1c0.1-0.2,0.3-0.3,0.4-0.2l1.7,0.4
		c0.1,0,0.3,0.1,0.4,0.2c0.9,0.5,1.5,1.3,1.8,2.3C-725.5,744.8-726,749.3-727.9,753.7z"/>
</g>
</svg>
